<svg height="512pt" viewBox="0 -6 512 512" width="512pt" xmlns="http://www.w3.org/2000/svg"><path d="m242.644531 240.160156h269.128907c.136718 3.390625.226562 6.792969.226562 10.21875 0 138.28125-112.097656 250.378906-250.378906 250.378906-2.152344 0-4.300782-.027343-6.441406-.082031-6.96875-.175781-12.535157-5.859375-12.535157-12.832031zm0 0" fill="#0573cd"/><path d="m512 250.378906c0 1.367188-.011719 2.726563-.03125 4.089844h-266.699219v-253.921875c5.40625-.351563 10.855469-.546875 16.351563-.546875 138.28125 0 250.378906 112.097656 250.378906 250.378906zm0 0" fill="#fdb44c"/><path d="m11.542969 262.644531c-.195313-4.066406-.300781-8.152343-.300781-12.265625 0-136.230468 108.800781-247.046875 244.246093-250.300781v262.566406zm0 0" fill="#fc6930"/><path d="m255.488281 254.46875v246.214844c-134.089843-3.222656-242.058593-111.867188-244.214843-246.214844zm0 0" fill="#fdade0"/><path d="m470.101562 116.503906v20.4375c0 11.289063-9.152343 20.441406-20.441406 20.441406h-153.292968c-11.289063 0-20.4375-9.152343-20.4375-20.441406v-20.4375c0-11.289062 9.148437-20.441406 20.4375-20.441406h153.292968c11.289063 0 20.441406 9.152344 20.441406 20.441406zm0 0" fill="#0573cd"/><path d="m470.101562 116.503906v20.4375c0 11.289063-7.707031 20.441406-17.214843 20.441406h-129.089844c-9.503906 0-17.210937-9.152343-17.210937-20.441406v-20.4375c0-11.289062 7.707031-20.441406 17.210937-20.441406h129.089844c9.507812 0 17.214843 9.152344 17.214843 20.441406zm0 0" fill="#528ed7"/><path d="m450.898438 460.097656c-11.972657 11.972656-31.382813 11.972656-43.355469 0l-.984375-.984375c-11.972656-11.972656-11.972656-31.382812 0-43.355469 11.972656-11.976562 31.386718-11.976562 43.359375 0l.980469.980469c11.976562 11.972657 11.976562 31.386719 0 43.359375zm-2.007813-139.308594-14.453125-14.453124c-7.980469-7.984376-20.921875-7.984376-28.90625 0l-108.394531 108.394531c-7.980469 7.980469-7.980469 20.921875 0 28.90625l14.453125 14.453125c7.984375 7.980468 20.925781 7.980468 28.90625 0l108.394531-108.398438c7.980469-7.980468 7.980469-20.921875 0-28.902344zm-153.761719 26.894532c-11.972656-11.972656-11.972656-31.386719 0-43.359375 11.972656-11.972657 31.382813-11.972657 43.355469 0l.984375.984375c11.972656 11.972656 11.972656 31.386718 0 43.359375-11.972656 11.972656-31.382812 11.972656-43.359375 0zm0 0" fill="#fdc5e6"/><path d="m362.792969 435.789062-22.296875 22.300782c-7.984375 7.980468-20.925782 7.980468-28.90625 0l-14.453125-14.453125c-7.980469-7.984375-7.980469-20.925781 0-28.90625l22.300781-22.300781c-7.984375 7.984374-7.984375 20.925781 0 28.90625l14.453125 14.453124c7.980469 7.980469 20.921875 7.980469 28.902344 0zm-66.683594-87.121093c11.976563 11.972656 31.386719 11.972656 43.359375 0 3.695312-3.699219 6.246094-8.101563 7.664062-12.777344-10.472656 3.164063-22.304687.613281-30.582031-7.664063l-.984375-.980468c-8.277344-8.277344-10.828125-20.109375-7.660156-30.582032-4.675781 1.414063-9.082031 3.964844-12.777344 7.664063-11.972656 11.972656-11.972656 31.382813 0 43.355469zm131.871094 90.992187-.984375-.984375c-8.273438-8.277343-10.828125-20.109375-7.660156-30.582031-4.675782 1.417969-9.082032 3.96875-12.777344 7.664062-11.972656 11.972657-11.972656 31.386719 0 43.359376l.984375.980468c11.972656 11.972656 31.382812 11.972656 43.355469 0 3.699218-3.695312 6.25-8.101562 7.664062-12.777344-10.472656 3.167969-22.304688.617188-30.582031-7.660156zm0 0" fill="#fdade0"/><path d="m144.058594 385.824219 28.902344 28.90625c7.984374 7.980469 7.984374 20.921875 0 28.902343l-14.453126 14.453126c-7.980468 7.984374-20.921874 7.984374-28.90625 0l-28.902343-28.902344c-1.996094-1.996094-5.230469-1.996094-7.226563 0l-28.90625 28.902344c-7.980468 7.984374-20.921875 7.984374-28.902344 0l-14.457031-14.453126c-7.980469-7.980468-7.980469-20.921874 0-28.902343l28.90625-28.90625c1.996094-1.996094 1.996094-5.230469 0-7.226563l-28.90625-28.90625c-7.980469-7.980468-7.980469-20.921875 0-28.902344l14.457031-14.453124c7.980469-7.984376 20.921876-7.984376 28.902344 0l28.90625 28.902343c1.996094 1.996094 5.230469 1.996094 7.226563 0l28.902343-28.902343c7.984376-7.984376 20.925782-7.984376 28.90625 0l14.453126 14.453124c7.984374 7.980469 7.984374 20.921876 0 28.902344l-28.902344 28.90625c-1.996094 1.996094-1.996094 5.230469 0 7.226563zm0 0" fill="#fc6930"/><path d="m31.820312 454.246094-10.609374-10.609375c-7.984376-7.984375-7.984376-20.925781 0-28.90625l28.902343-28.90625c1.996094-1.996094 1.996094-5.230469 0-7.226563l-28.90625-28.90625c-7.980469-7.980468-7.980469-20.921875 0-28.902344l10.613281-10.613281c-1.746093 6.773438.011719 14.265625 5.316407 19.570313l38.011719 38.011718c7.984374 7.984376 7.984374 20.925782 0 28.90625l-38.011719 38.015626c-5.304688 5.300781-7.0625 12.792968-5.316407 19.566406zm0 0" fill="#fc5426"/><path d="m194.171875 116.503906v20.4375c0 11.289063-9.152344 20.441406-20.4375 20.441406h-40.878906c-2.824219 0-5.109375 2.285157-5.109375 5.109376v40.878906c0 11.285156-9.152344 20.4375-20.441406 20.4375h-20.4375c-11.289063 0-20.441407-9.152344-20.441407-20.4375v-40.878906c0-2.824219-2.285156-5.109376-5.109375-5.109376h-40.878906c-11.285156 0-20.4375-9.152343-20.4375-20.441406v-20.4375c0-11.289062 9.152344-20.441406 20.4375-20.441406h40.878906c2.824219 0 5.109375-2.285156 5.109375-5.109375v-40.878906c0-11.285157 9.152344-20.4375 20.441407-20.4375h20.4375c11.289062 0 20.441406 9.152343 20.441406 20.4375v40.878906c0 2.824219 2.285156 5.109375 5.109375 5.109375h40.878906c11.285156 0 20.4375 9.152344 20.4375 20.441406zm0 0" fill="#fde0b8"/><path d="m91.976562 223.808594h-5.109374c-11.289063 0-20.441407-9.152344-20.441407-20.4375v-40.878906c0-2.824219-2.285156-5.109376-5.109375-5.109376h-40.878906c-11.285156 0-20.4375-9.152343-20.4375-20.441406v-20.4375c0-11.289062 9.152344-20.441406 20.4375-20.441406h40.878906c2.824219 0 5.109375-2.285156 5.109375-5.109375v-40.878906c0-11.285157 9.152344-20.4375 20.441407-20.4375h5.109374zm0 0" fill="#fdd194"/></svg>