<svg id="Layer_1" data-name="Layer 1" xmlns="http://www.w3.org/2000/svg" viewBox="0 0 108.03 108.22">
  <defs>
    <style>
      .cls-1 {
        fill: #fd5967;
      }

      .cls-2 {
        fill: #231f20;
      }
    </style>
  </defs>
  <title>0</title>
  <g>
    <path class="cls-1" d="M409.19,250.33l.87,3.67,1.8-.5q-.89-2.35-1.79-4.71a.93.93,0,0,0-1.8.5,113.67,113.67,0,0,1,2.11,12.3l1.74-.48-5.74-10.46a.94.94,0,0,0-1.71.72,70.62,70.62,0,0,1,1.51,11.12l1.74-.48q-2.44-5.25-4.91-10.5c-.49-1-1.84-.23-1.7.72q1.11,7.82,2.23,15.63l1.7-.72q-3.18-6-6.37-12a.94.94,0,0,0-1.71.72q2.05,7.51,4.13,15l1.8-.5a56.38,56.38,0,0,0-6.25-13.48.94.94,0,0,0-1.71.72q2.6,9.54,5.18,19.1L402,276l-7.46-13.77a.94.94,0,0,0-1.71.72l4.75,18.17,1.8-.5a55,55,0,0,0-10.82-18,.94.94,0,0,0-1.56.91l7.37,22.52,1.7-.72a178.26,178.26,0,0,0-11.58-18.16c-.56-.78-2.15-.34-1.71.72a172.44,172.44,0,0,1,8.13,24.47l1.71-.72a166.88,166.88,0,0,0-13-18.83c-.59-.74-1.85.06-1.57.91l6.46,19.63c.37,1.13,2.16.66,1.8-.5a61.25,61.25,0,0,0-7-15.11c-.47-.72-1.84-.51-1.75.48a69.86,69.86,0,0,1-1.9,23.92h1.81a70.66,70.66,0,0,1-4.06-18.56c-.08-1-1.57-1.33-1.84-.25-5.58,22.75,7.69,43.24,24.28,57.53a.94.94,0,0,0,1.33-1.32,95.68,95.68,0,0,1-19.82-45.37c-.16-1.07-1.83-.78-1.84.25-.19,19.84,10.92,37.21,25.22,50.14.75.67,2.13-.23,1.47-1.14A110.63,110.63,0,0,1,382,293.34l-1.8.5a112.74,112.74,0,0,0,22,49.21c.66.85,2-.24,1.47-1.14a126.49,126.49,0,0,1-16.67-53l-1.83.24A117.77,117.77,0,0,0,409,345.77c.68.89,1.9-.24,1.46-1.13a320,320,0,0,1-19.35-49.75l-1.8.49a270.43,270.43,0,0,0,19.47,46.48c.57,1.07,2.13.13,1.61-.95-10.59-21.77-22.2-47.32-10.71-71.16L398,269a167.77,167.77,0,0,0-2.06,37.85.94.94,0,0,0,1.87,0c.36-19.61,4.09-39.48,16.1-55.47.64-.84-.77-1.92-1.47-1.13a84.66,84.66,0,0,0-17.76,32.59l1.8.5A77.21,77.21,0,0,1,414.38,249a1,1,0,0,0-.66-1.6c-4.26,0-6.82,3.52-9.64,6.31Q397.47,260.3,391,267l1.56.91a20.84,20.84,0,0,1,8.21-10.32c-.32-.54-.63-1.08-.95-1.61-11.14,8-16.91,20.73-25.77,30.87l1.57.91a55.56,55.56,0,0,1,12.74-22l-1.47-1.13a147.68,147.68,0,0,0-15.48,25.66l1.71.72c2.79-8.32,7.17-15.81,11.67-23.3l-1.61-1a59.42,59.42,0,0,0-3.75,41.54.94.94,0,0,0,1.84-.25q1.08-13.69,2.17-27.39h-1.87q.26,9.79.52,19.59c0,1,1.66,1.33,1.84.24a153.19,153.19,0,0,1,5.8-25.29l-1.83-.25a225.46,225.46,0,0,0,2.88,40.53c.18,1.1,1.76.73,1.84-.25q.57-7.32,1.15-14.62l-1.83.25c5.48,16.49,11.28,33.17,22.89,46.47.72.82,2-.22,1.47-1.13l-11.11-20-1.47,1.13q7.46,9.23,14.92,18.43l1.14-1.47c-10.07-4.4-21.26-3.82-30-11.35-7.45-6.44-12.42-15.23-18.35-23-.72-.94-2.35,0-1.61,1,6,7.86,11.07,16.81,18.64,23.35,8.94,7.73,20,7.13,30.34,11.65a.94.94,0,0,0,1.14-1.47L405,326.08c-.68-.85-2,.24-1.47,1.13l11.12,20,1.46-1.13c-11.39-13-17-29.47-22.41-45.65a.94.94,0,0,0-1.84.25q-.57,7.31-1.15,14.62l1.84-.25a222.57,222.57,0,0,1-2.82-40,.94.94,0,0,0-1.84-.25,153.07,153.07,0,0,0-5.8,25.3l1.83.25q-.26-9.79-.52-19.59a.94.94,0,0,0-1.87,0q-1.08,13.69-2.17,27.39l1.83-.25a57.38,57.38,0,0,1,3.56-40.09.94.94,0,0,0-1.61-1c-4.58,7.63-9,15.29-11.86,23.75-.34,1,1.25,1.69,1.7.72a149.23,149.23,0,0,1,15.48-25.65c.65-.86-.75-1.9-1.46-1.14a57.93,57.93,0,0,0-13.23,22.78,1,1,0,0,0,1.57.91c8.72-10,14.43-22.68,25.39-30.59,1-.69.07-2.29-.95-1.61a23.15,23.15,0,0,0-9.07,11.43c-.33.9.95,1.55,1.57.91q4.44-4.56,8.93-9.08c2.88-2.88,8.18-9.92,12.49-9.91-.23-.53-.45-1.06-.67-1.6a79.32,79.32,0,0,0-18.37,35.17.93.93,0,0,0,1.8.5,82.49,82.49,0,0,1,17.29-31.77l-1.47-1.13c-12.2,16.23-16,36.51-16.36,56.41h1.87a165.66,165.66,0,0,1,2-37.35c.16-1-1.21-1.75-1.71-.72-11.82,24.53-.21,50.57,10.72,73.05l1.61-.95a268.14,268.14,0,0,1-19.28-46c-.36-1.15-2.15-.67-1.8.49a323.1,323.1,0,0,0,19.54,50.2l1.47-1.13a116.14,116.14,0,0,1-23.41-55.76c-.14-1-1.92-.8-1.84.25A129,129,0,0,0,402,342.86l1.47-1.14A110.89,110.89,0,0,1,382,293.34c-.21-1.2-2-.66-1.8.5a111.77,111.77,0,0,0,20.4,50.56l1.47-1.14c-13.95-12.6-24.86-29.45-24.68-48.81l-1.83.24a97.44,97.44,0,0,0,20.29,46.2l1.33-1.32c-16.06-13.83-29.23-33.61-23.8-55.71l-1.84-.25a73.18,73.18,0,0,0,4.12,19.06,1,1,0,0,0,1.81,0,71.24,71.24,0,0,0,2-24.42l-1.74.47a59.16,59.16,0,0,1,6.83,14.66l1.8-.5-6.45-19.63-1.57.91A163.12,163.12,0,0,1,391,292.61a.94.94,0,0,0,1.71-.72,175.45,175.45,0,0,0-8.13-24.47l-1.71.72a181.14,181.14,0,0,1,11.58,18.16.94.94,0,0,0,1.71-.72q-3.69-11.25-7.36-22.51l-1.57.9a52.55,52.55,0,0,1,10.34,17.18.93.93,0,0,0,1.8-.5q-2.37-9.09-4.75-18.17l-1.71.73L400.41,277a.94.94,0,0,0,1.71-.72l-5.19-19.1-1.71.72a54.52,54.52,0,0,1,6.07,13,.93.93,0,0,0,1.8-.5q-2.05-7.52-4.13-15l-1.71.72,6.38,12c.54,1,1.85.25,1.71-.72q-1.11-7.82-2.23-15.63l-1.71.72q2.46,5.25,4.91,10.51a.94.94,0,0,0,1.74-.47,73.45,73.45,0,0,0-1.58-11.62l-1.71.72,5.75,10.47c.42.77,1.85.47,1.74-.47a118,118,0,0,0-2.18-12.8l-1.8.5,1.79,4.71a.93.93,0,0,0,1.8-.5l-.87-3.67c-.27-1.17-2.08-.67-1.8.5Z" transform="translate(-366.77 -243.1)"/>
    <path class="cls-1" d="M424.72,250.69l11.63,20.71a.93.93,0,0,0,1.7-.72,124.84,124.84,0,0,0-8.62-20.86l-1.61,1a104.94,104.94,0,0,1,14.05,27.5l1.81-.5q-3.69-10-7.36-20l-1.57.91c6,5.58,8.79,13.05,11.42,20.62.4,1.12,2.15.66,1.81-.5a115.09,115.09,0,0,0-8.42-20.72l-1.62.94,14.55,21.74c.66,1,2.26.08,1.61-.94a201.7,201.7,0,0,0-15.14-21l-1.13,1.47,14.33,11c.85.65,1.87-.75,1.13-1.47a87.38,87.38,0,0,0-21.18-15.31l-.72,1.71c14.52,3.34,25.39,13.73,35.13,24.41.71.78,2.08-.25,1.47-1.13a70.14,70.14,0,0,0-24.17-21.64l-.72,1.71c17.83,2.45,26.61,19.36,28.49,35.69l1.84-.25a136.23,136.23,0,0,0-7.12-17.76c-.46-.95-2.05-.28-1.71.72a74.26,74.26,0,0,1,3,36.81l1.84.25a66.14,66.14,0,0,0-11-41.57c-.55-.83-2.09-.33-1.71.72,4.4,12.05,8.64,24.26,7.84,37.28h1.87a101.61,101.61,0,0,0-5.76-27.34,99.69,99.69,0,0,0-5.13-11.7c-1.21-2.32-2.25-4.94-5.07-5.38-.63-.1-1.42.41-1.15,1.15a151.25,151.25,0,0,1,8.94,43c.08,1.2,1.94,1.21,1.87,0a138.39,138.39,0,0,0-9.52-43.51.93.93,0,0,0-1.8.5q2.72,16.34,5.45,32.66l1.8-.49A161.83,161.83,0,0,0,446.08,273c-.45-1-2-.29-1.7.72a129.43,129.43,0,0,1,5.46,24.7l1.83-.25c-2.05-11.34-4.37-22.82-11.57-32.13a.94.94,0,0,0-1.71.72q3.57,15.11,7.92,30l1.81-.5L436.69,267l-1.81.5a194.55,194.55,0,0,1,10.31,34c.21,1,2,.81,1.83-.25l-2.43-18.73c-.15-1.16-2-1.21-1.87,0l3.16,31.71c.1,1,1.63,1.37,1.84.25q2.37-12.81,4.75-25.61l-1.84-.25q-.63,16.28-1.27,32.55c0,1,1.65,1.29,1.84.25a161.11,161.11,0,0,1,6-23l-1.83-.25a103.85,103.85,0,0,1-2.9,23.94.94.94,0,0,0,1.71.72c2.31-4.3,4.42-8.83,7-13s2.64-1,2.45,1.69a81,81,0,0,1-1.12,8.62A1,1,0,0,0,464,321a68.73,68.73,0,0,1,7.28-5.9L470,314.08a49,49,0,0,1-30.28,28.14c.3.52.6,1,.91,1.56a155.26,155.26,0,0,0,22.89-26.34l-1.61-.94c-6.68,11.17-16.26,19.87-25.89,28.43l1.47,1.14a75.25,75.25,0,0,0,8.44-40.93c-.09-1.18-1.89-1.22-1.87,0a152.18,152.18,0,0,1-2.48,29.21l1.83.25A66,66,0,0,1,445,314.79l-1.84-.24q1.49,11.88,1.86,23.85a.94.94,0,0,0,1.84.25,157.23,157.23,0,0,1,6-15.54l-1.74-.47a40.27,40.27,0,0,1-2.4,12.09l1.81.5L457,315.54l-1.83-.24a69,69,0,0,1-.25,16.31c-.16,1.16,1.59,1.7,1.8.5a56.29,56.29,0,0,1,5.35-15.95l-1.71-.23A17.41,17.41,0,0,1,459.07,327l1.71.72a70.73,70.73,0,0,0-3.86-41.36,69.2,69.2,0,0,0-9.76-16.7c-5-6.31-12.85-11.17-15.5-19l-1.37,1.06,10.32,6.25.72-1.71-3.14-1.09c-1.07-.37-1.52,1.13-.72,1.71a67,67,0,0,1,26.24,40.93c1.88,9.41,2.7,21.15-3.81,29-5.84,7-13.66,12.82-20.62,18.65l1.59.66c0-5.05,4.47-8.79,6.8-13a40.2,40.2,0,0,0,4.22-11.19A41.27,41.27,0,0,0,450.27,299a.94.94,0,0,0-1.83.25q-1.14,14.25-2.29,28.49H448c-1.65-22.58-3.58-45.5-13.33-66.28-.51-1.09-2.13-.14-1.62.95,9.61,20.45,11.45,43.1,13.08,65.33a.94.94,0,0,0,1.87,0q1.16-14.25,2.29-28.49l-1.84.25a39.54,39.54,0,0,1,.36,26.4,43.41,43.41,0,0,1-6.27,11.4c-2,2.8-3.58,5.19-3.56,8.71a1,1,0,0,0,1.6.66q6.63-5.56,13.07-11.34c3.64-3.28,7.63-6.55,10.09-10.86,4.28-7.5,3.47-17.53,2-25.73a68.85,68.85,0,0,0-27.38-43.54l-.72,1.7,3.13,1.09c1,.36,1.6-1.17.72-1.71l-10.32-6.25a1,1,0,0,0-1.37,1.06c2,6,6.6,9.82,10.94,14.19a67,67,0,0,1,12.54,17.61A68.82,68.82,0,0,1,459,327.2c-.2,1,1.25,1.74,1.71.72a19.86,19.86,0,0,0,1.5-12.48,1,1,0,0,0-1.71-.23,58,58,0,0,0-5.53,16.4l1.8.5a71.09,71.09,0,0,0,.32-16.81.94.94,0,0,0-1.84-.25q-3.27,9.84-6.55,19.68c-.38,1.15,1.4,1.62,1.81.5a42.11,42.11,0,0,0,2.46-12.59c0-.89-1.36-1.33-1.74-.47a160.34,160.34,0,0,0-6.19,16l1.83.25q-.36-12-1.86-23.85c-.12-1-1.57-1.37-1.84-.25a67.6,67.6,0,0,0-1.65,20.3c.07,1,1.64,1.35,1.84.25a154.93,154.93,0,0,0,2.55-29.71H444a73.38,73.38,0,0,1-8.19,40,.94.94,0,0,0,1.47,1.13c9.76-8.67,19.43-17.5,26.18-28.81.63-1.05-.94-1.92-1.61-.94a153.58,153.58,0,0,1-22.6,26,.94.94,0,0,0,.9,1.56,51,51,0,0,0,31.59-29.44c.31-.75-.73-1.51-1.37-1.06a72.24,72.24,0,0,0-7.67,6.18l1.57.91a88.94,88.94,0,0,0,1.37-14.47.94.94,0,0,0-.93-.94c-2.34-.1-3.63,1.2-4.88,3.14-2.74,4.26-4.89,9-7.3,13.51l1.71.72a106,106,0,0,0,3-24.44.94.94,0,0,0-1.84-.25,162.48,162.48,0,0,0-6,23l1.84.25q.63-16.28,1.27-32.55c0-1-1.64-1.29-1.83-.24q-2.39,12.8-4.75,25.6l1.83.25-3.16-31.71h-1.87l2.43,18.73L447,301a194.78,194.78,0,0,0-10.3-34c-.45-1.1-2.25-.63-1.81.5l11.43,29.25c.43,1.09,2.15.68,1.81-.5q-4.37-14.89-7.93-30l-1.71.72c7.11,9.19,9.37,20.51,11.39,31.69.18,1,2,.8,1.84-.25a131.53,131.53,0,0,0-5.53-25.2l-1.71.72a160.52,160.52,0,0,1,9.86,27c.32,1.19,2,.67,1.8-.49q-2.72-16.33-5.45-32.67l-1.8.5a137.29,137.29,0,0,1,9.45,43h1.87a153.32,153.32,0,0,0-9-43.53l-1.15,1.15c3.33.52,5.5,7.56,6.65,10.18a94.55,94.55,0,0,1,3.94,10.7,99.85,99.85,0,0,1,4,21.74.94.94,0,0,0,1.87,0c.81-13.17-3.45-25.57-7.9-37.78l-1.71.72A64.51,64.51,0,0,1,467.61,315c-.07,1,1.66,1.29,1.84.24a76.33,76.33,0,0,0-3-37.8l-1.71.72a133.36,133.36,0,0,1,6.93,17.32c.3.95,2,.85,1.83-.25-2-17.08-11.18-34.93-29.87-37.49-1-.13-1.73,1.15-.72,1.71a68,68,0,0,1,23.51,21l1.46-1.14c-9.95-10.92-21.12-21.48-35.95-24.89-1-.23-1.7,1.2-.72,1.71a85.73,85.73,0,0,1,20.8,15l1.13-1.47-14.33-11c-.9-.7-1.75.71-1.13,1.46a200.84,200.84,0,0,1,14.85,20.64l1.61-.94q-7.28-10.87-14.54-21.74a.94.94,0,0,0-1.62.94,112.22,112.22,0,0,1,8.23,20.28l1.81-.5c-2.74-7.85-5.69-15.66-11.9-21.45-.64-.59-1.91,0-1.57.91q3.69,10,7.36,20c.41,1.11,2.2.65,1.81-.5a106.9,106.9,0,0,0-14.25-27.95.94.94,0,0,0-1.61,1,122.22,122.22,0,0,1,8.43,20.4l1.71-.72-11.63-20.7a.93.93,0,0,0-1.61.94Z" transform="translate(-366.77 -243.1)"/>
    <path class="cls-2" d="M420.38,243.18c-11.43-.89-21.28,5.8-29.85,12.6s-16.35,14.82-20.66,24.87c-4.47,10.43-3.7,21.53-.26,32.15,3.33,10.27,8.42,20.52,17.2,27.18,9,6.83,20.51,9.54,31.55,10.84,11.27,1.33,22.66.23,32.29-6.18,17.1-11.35,26.33-34.87,23.71-54.93-1.71-13.1-9.8-22.4-19.94-30.2s-21.2-14-34.06-14.64c-2.16-.11-2.15,3.26,0,3.37,10.65.54,20.13,5.37,28.68,11.45s17.22,13.55,20.59,24c5.74,17.86-1.73,40.52-14.91,53.32C439.62,351.7,415,350.18,396.83,342c-9.78-4.43-16.43-12.17-20.8-21.83-4.52-10-7.73-21.62-5-32.54,2.54-10.17,9.44-18.6,17.11-25.46,8.73-7.81,19.86-16.58,32.23-15.62,2.16.17,2.15-3.2,0-3.36Z" transform="translate(-366.77 -243.1)"/>
    <path class="cls-2" d="M417,245.92c-10.55,18-21.89,37.86-18.72,59.53,1.35,9.26,5.77,17.71,10.55,25.63,4.61,7.66,10.09,14.89,18.37,18.75,1.09.5,2-1.11.95-1.61-8.52-4-13.86-11.53-18.5-19.41-4.89-8.31-9.13-17.08-9.9-26.84-1.58-20.15,9-38.38,18.87-55.1a.94.94,0,0,0-1.62-1Z" transform="translate(-366.77 -243.1)"/>
    <path class="cls-2" d="M417.81,245.51c23.26,29,28.84,69.84,14.44,104-.46,1.11,1.34,1.59,1.81.5,14.67-34.85,8.73-76.4-14.93-105.85-.75-.94-2.07.39-1.32,1.32Z" transform="translate(-366.77 -243.1)"/>
  </g>
</svg>
