<svg id="Layer_1" data-name="Layer 1" xmlns="http://www.w3.org/2000/svg" viewBox="0 0 98.96 105.31">
  <defs>
    <style>
      .cls-1 {
        fill: #fd5967;
      }

      .cls-2 {
        fill: #231f20;
      }
    </style>
  </defs>
  <title>boat</title>
  <g>
    <path class="cls-1" d="M415.38,280.65a7.79,7.79,0,0,0,6.94,3.8.93.93,0,0,0,.9-1.18q-1.47-4.23-3-8.46l-1.71.72a50.21,50.21,0,0,0,6.82,8.55c.62.63,1.91,0,1.56-.91q-2.46-6.44-4.94-12.87l-1.71.72a57.79,57.79,0,0,0,9.47,10.77.94.94,0,0,0,1.56-.91,77.14,77.14,0,0,0-6.47-16,.94.94,0,0,0-1.71.72,29,29,0,0,0,12.46,16.58.94.94,0,0,0,1.37-1.06,90,90,0,0,0-9.17-19.87c-.63-1-2.25-.09-1.62,1a111,111,0,0,0,14.32,18.7.94.94,0,0,0,1.56-.91,102.74,102.74,0,0,0-13-25.85l-1.61.94,19.91,26.3a.94.94,0,0,0,1.62-.94,191.23,191.23,0,0,0-17.88-29.7l-1.61.94,22.69,29.39c.73.94,2.35,0,1.62-.94l-22.7-29.39c-.72-.93-2.33,0-1.61.94a192,192,0,0,1,17.87,29.7l1.62-.94L429,254.17c-.71-.94-2.31-.06-1.61.94a101,101,0,0,1,12.83,25.41l1.57-.91a108.54,108.54,0,0,1-14-18.33l-1.62,1a87.16,87.16,0,0,1,9,19.42l1.37-1.06A26.9,26.9,0,0,1,425,265.13l-1.71.72a75.19,75.19,0,0,1,6.28,15.53l1.56-.91a55.73,55.73,0,0,1-9.17-10.4c-.56-.81-2.12-.33-1.71.72q2.48,6.45,4.94,12.88l1.56-.91a48.5,48.5,0,0,1-6.52-8.18c-.55-.85-2.08-.32-1.71.72,1,2.83,2,5.65,2.95,8.47l.9-1.19a5.43,5.43,0,0,1-5.32-2.87c-.66-1-2.28-.06-1.62.94Z" transform="translate(-371.69 -244.9)"/>
    <path class="cls-2" d="M371.72,308.81l5.94,37.09a1.69,1.69,0,0,0,1.62,1.24l68.34,2.74c3.26.13,7.71,1.06,10.66-.88,2.47-1.61,3.28-4.93,4.19-7.52a200.56,200.56,0,0,0,8.15-30.88,1.71,1.71,0,0,0-1.63-2.13,799.65,799.65,0,0,1-95-4.15c-2.15-.22-2.14,3.14,0,3.37a801.77,801.77,0,0,0,95,4.15l-1.62-2.13a200.22,200.22,0,0,1-6.67,26.55c-1.66,5.07-2,9.74-8.13,10.46-4.71.55-10.11-.41-14.86-.6l-58.43-2.35L380.9,345,375,307.92c-.34-2.13-3.58-1.23-3.24.89Z" transform="translate(-371.69 -244.9)"/>
    <path class="cls-2" d="M412.71,308.56A138.71,138.71,0,0,1,433,247.44l-2.64.34a417.51,417.51,0,0,0,27.55,31.44c.24-.94.49-1.88.74-2.82l-45.3,10.09c-2.11.47-1.22,3.71.9,3.24l45.29-10.08a1.7,1.7,0,0,0,.75-2.81,417.51,417.51,0,0,1-27.55-31.44,1.69,1.69,0,0,0-2.64.35,142.21,142.21,0,0,0-20.74,62.81c-.19,2.15,3.18,2.14,3.36,0Z" transform="translate(-371.69 -244.9)"/>
    <path class="cls-2" d="M375.53,318.19a607.5,607.5,0,0,1,87.79,7.49c1.17.19,1.68-1.61.49-1.8a611.36,611.36,0,0,0-88.28-7.56.94.94,0,0,0,0,1.87Z" transform="translate(-371.69 -244.9)"/>
    <path class="cls-2" d="M376.9,333.05a274.45,274.45,0,0,1,43.76.67c14.5,1.41,28.88,3.88,43.5,3.12,1.2-.06,1.21-1.93,0-1.87-14.61.76-29-1.7-43.5-3.12a273.26,273.26,0,0,0-43.76-.67c-1.2.08-1.21,1.95,0,1.87Z" transform="translate(-371.69 -244.9)"/>
  </g>
</svg>
