<svg id="Layer_1" data-name="Layer 1" xmlns="http://www.w3.org/2000/svg" viewBox="0 0 130.74 134.23">
  <defs>
    <style>
      .cls-1 {
        fill: #fd5967;
      }

      .cls-2 {
        fill: #231f20;
      }
    </style>
  </defs>
  <title>bunny</title>
  <g>
    <path class="cls-1" d="M371.5,266.61q.72,5.31,1.46,10.63c.12.92,1.61.85,1.8,0l2.55-11.77-1.84-.25q.33,5.92.64,11.84c.05,1,1.62,1.34,1.84.25q1.26-6.35,2.53-12.7l-1.83-.25c.27,3.68.55,7.37.83,11.05.07,1,1.66,1.36,1.83.25a37.63,37.63,0,0,1,2.95-10l-1.74-.47c.05,3,.11,5.95.17,8.92a.94.94,0,0,0,1.83.25,38.08,38.08,0,0,0,2.24-7.69H385a3.26,3.26,0,0,1,.35,2.28c-.1,1.2,1.77,1.19,1.87,0a5.54,5.54,0,0,0-.42-2.78c-.3-.75-1.62-1-1.8,0a38.17,38.17,0,0,1-2.24,7.7l1.84.24c-.06-3-.12-5.95-.17-8.92,0-.86-1.34-1.36-1.75-.47a39.81,39.81,0,0,0-3.13,10.46l1.84.25c-.28-3.68-.56-7.37-.83-11.05-.08-1-1.62-1.35-1.84-.25q-1.26,6.36-2.54,12.7l1.84.25q-.32-5.91-.64-11.84c0-1-1.6-1.33-1.83-.24L373,276.74h1.8q-.74-5.31-1.46-10.63c-.16-1.18-2-.68-1.8.5Z" transform="translate(-358.22 -233.17)"/>
    <path class="cls-1" d="M456.16,254.52c.59,2.48,1.19,5,1.78,7.44.29,1.2,2,.67,1.81-.49a15.84,15.84,0,0,1,1.23-9.18l-1.71-.23,2.31,13.27c.19,1.06,1.83.78,1.84-.25q.07-7.57.16-15.14l-1.84.25q1.68,8.64,3.35,17.28c.21,1.07,1.8.77,1.84-.25q.13-4.19.28-8.39c.09-2.77-.35-6.4,1.35-8.74l-1.74-.47,1.05,16c.08,1.19,1.89,1.22,1.87,0a56.9,56.9,0,0,1,1.43-13.45h-1.8a42,42,0,0,1,1.36,9.66.94.94,0,0,0,1.87,0,44.69,44.69,0,0,0-1.43-10.16.94.94,0,0,0-1.8,0,58.46,58.46,0,0,0-1.5,14h1.87l-1.05-16a1,1,0,0,0-1.75-.47c-1.53,2.12-1.43,4.57-1.51,7.1-.13,3.66-.25,7.31-.37,11l1.83-.25q-1.67-8.64-3.34-17.28c-.21-1.06-1.83-.78-1.84.25q-.07,7.57-.16,15.14l1.84-.25-2.31-13.26a1,1,0,0,0-1.71-.23A18.22,18.22,0,0,0,457.94,262l1.81-.49c-.6-2.48-1.19-5-1.79-7.45-.28-1.17-2.09-.67-1.8.5Z" transform="translate(-358.22 -233.17)"/>
    <path class="cls-1" d="M421,300.17l1.32-4.59a.93.93,0,0,0-1.8-.5l-1.32,4.59a.93.93,0,0,0,1.8.5Z" transform="translate(-358.22 -233.17)"/>
    <path class="cls-1" d="M429.81,299.72c-.56-1.54-1.13-3.07-1.69-4.6-.42-1.12-2.22-.64-1.81.49l1.7,4.61c.41,1.11,2.22.63,1.8-.5Z" transform="translate(-358.22 -233.17)"/>
    <path class="cls-1" d="M429.24,337.71A231.26,231.26,0,0,0,402,335.05q-7.27-.26-14.56,0c-2.05.06-6.16-.55-7.85,1.27-1.34,1.46-.55,3.84-.16,5.46a55.52,55.52,0,0,0,3.74,10.39c2.27,4.82,6.41,13.79,12.34,15.11,5.48,1.22,12.12-5.48,16.05-8.58,6.7-5.28,12.09-11.49,17.94-17.62,6.77-7.09,17.71-9.83,27-12.11,4.31-1.07,9.75-3.08,13.88-1.3,2.72,1.17,2.35.69,2.22,3.05,0,.89-.13,1.79-.22,2.69a96.54,96.54,0,0,1-1.45,9.55c-.54,2.64-1.19,5.27-2,7.86-.54,1.82-1,5.54-2.29,6.84-4.39,4.41-12.73-.51-17.19-2.73a77,77,0,0,1-23.31-18c-.8-.9-2.12.43-1.32,1.33a79.12,79.12,0,0,0,18,15.15c5.5,3.34,13.63,8.13,20.21,8.52s7.43-9.43,8.62-14.1a95.89,95.89,0,0,0,2.1-10.86c.38-2.84,1.88-8.18.08-10.84-1.08-1.6-2.48-1.66-4.27-1.56a72.82,72.82,0,0,0-12.75,2.35c-8,1.92-17.15,4.21-24.07,8.84-6.69,4.45-11.4,11.94-17.42,17.29a107.66,107.66,0,0,1-11,8.62c-1.44,1-3.17,2.49-4.85,3.09-5.47,2-8.32-2.85-10.63-6.31a55,55,0,0,1-7-14.78,13.56,13.56,0,0,1-.66-2.4c-.29-3,.52-3.68,3.29-4.26,2.41-.51,5.31-.19,7.76-.21a225.27,225.27,0,0,1,36.5,2.73c1.18.18,1.68-1.62.5-1.81Z" transform="translate(-358.22 -233.17)"/>
    <path class="cls-1" d="M428.68,340.87a41.86,41.86,0,0,1,22.92,2.46c1.11.45,1.6-1.36.49-1.8a43.5,43.5,0,0,0-23.91-2.46c-1.18.2-.68,2,.5,1.8Z" transform="translate(-358.22 -233.17)"/>
    <path class="cls-1" d="M423.6,337.76a154,154,0,0,0-28.2,12.16c-1,.59-.11,2.2,1,1.62a150.45,150.45,0,0,1,27.75-12c1.14-.37.65-2.17-.5-1.81Z" transform="translate(-358.22 -233.17)"/>
    <path class="cls-1" d="M420,256.64v4.19a.94.94,0,0,0,1.87,0v-4.19a.94.94,0,0,0-1.87,0Z" transform="translate(-358.22 -233.17)"/>
    <path class="cls-1" d="M411.7,262.69A8.68,8.68,0,0,0,412,267c.38,1.13,2.19.65,1.8-.5a6.84,6.84,0,0,1-.29-3.3c.2-1.17-1.61-1.68-1.8-.49Z" transform="translate(-358.22 -233.17)"/>
    <path class="cls-1" d="M429.54,272.69a7.78,7.78,0,0,0-.25,3.89c.21,1.18,2,.68,1.8-.5a5.84,5.84,0,0,1,.26-2.9c.38-1.14-1.43-1.63-1.81-.49Z" transform="translate(-358.22 -233.17)"/>
    <path class="cls-1" d="M415.82,279.27v2.93a.94.94,0,0,0,1.87,0v-2.93a.94.94,0,0,0-1.87,0Z" transform="translate(-358.22 -233.17)"/>
    <path class="cls-1" d="M384.85,287.9a19.59,19.59,0,0,1,.38,5.61c-.09,1.2,1.78,1.2,1.87,0a21.27,21.27,0,0,0-.45-6.11c-.26-1.18-2.06-.68-1.8.5Z" transform="translate(-358.22 -233.17)"/>
    <path class="cls-1" d="M399.06,299v3.77a.94.94,0,0,0,1.87,0V299a.94.94,0,0,0-1.87,0Z" transform="translate(-358.22 -233.17)"/>
    <path class="cls-1" d="M383.85,310.22a6.84,6.84,0,0,1,.92,4.24c-.12,1.19,1.75,1.19,1.87,0a8.62,8.62,0,0,0-1.17-5.18.94.94,0,0,0-1.62.94Z" transform="translate(-358.22 -233.17)"/>
    <path class="cls-1" d="M403.3,323.92a11.73,11.73,0,0,1,.36,4.37c-.12,1.19,1.75,1.19,1.87,0a13.06,13.06,0,0,0-.43-4.86.93.93,0,0,0-1.8.49Z" transform="translate(-358.22 -233.17)"/>
    <path class="cls-1" d="M418.73,326.88l1.32,5a.94.94,0,0,0,1.81-.5q-.67-2.5-1.33-5a.93.93,0,0,0-1.8.5Z" transform="translate(-358.22 -233.17)"/>
    <path class="cls-1" d="M443.89,319.49v3.35a.94.94,0,0,0,1.87,0v-3.35a.94.94,0,0,0-1.87,0Z" transform="translate(-358.22 -233.17)"/>
    <path class="cls-1" d="M459.81,293.93v2.94a.94.94,0,0,0,1.87,0v-2.94a.94.94,0,0,0-1.87,0Z" transform="translate(-358.22 -233.17)"/>
    <path class="cls-1" d="M452.27,301.47c.15,1.54.3,3.07.46,4.61.11,1.19,2,1.2,1.87,0-.16-1.54-.31-3.07-.46-4.61-.12-1.18-2-1.19-1.87,0Z" transform="translate(-358.22 -233.17)"/>
    <path class="cls-1" d="M438.86,257.48a8.4,8.4,0,0,0,1,4.66c.55,1.07,2.17.13,1.61-.94a6.66,6.66,0,0,1-.71-3.72c.1-1.2-1.77-1.19-1.87,0Z" transform="translate(-358.22 -233.17)"/>
    <path class="cls-1" d="M459,275.74l.85,3.35a.93.93,0,0,0,1.8-.5l-.84-3.35a.94.94,0,0,0-1.81.5Z" transform="translate(-358.22 -233.17)"/>
    <path class="cls-2" d="M424.05,246c-18.5,3.12-34.8,15.46-43.34,32.12s-9.66,38.3,5.94,51.11c16.28,13.36,42.39,12.39,60.68,3.94,17.86-8.26,30.5-26.73,27-46.8-4.15-24.08-26.7-38.32-49.76-39.84-2.16-.14-2.15,3.23,0,3.37,19.26,1.26,37.91,11.63,44.71,30.48,6.73,18.65-2.63,38-19.26,47.58-16.31,9.43-40.69,11.58-57.2,1.55C375.53,319,374.85,297.86,383,281a57.83,57.83,0,0,1,41.95-31.83c2.13-.36,1.23-3.6-.89-3.24Z" transform="translate(-358.22 -233.17)"/>
    <path class="cls-2" d="M396.88,259.93c-7.85-10.25-23.95-16.4-34.13-5.33-12.1,13.16,2.89,25.62,11.86,34.64a1.68,1.68,0,0,0,2.38-2.38c-7.09-7.13-20.32-16.66-13.32-27.93,7.41-11.92,23.37-6.35,30.3,2.7,1.3,1.7,4.22,0,2.91-1.7Z" transform="translate(-358.22 -233.17)"/>
    <path class="cls-2" d="M448.92,254.07c3.56-12.62,17.67-23.16,30.12-14.29,6.32,4.51,8.18,12.16,4.94,19.18-3.11,6.72-9.4,11-15.49,14.79-1.84,1.14-.15,4.05,1.7,2.91,7.6-4.7,15.36-10.42,18-19.41a18.16,18.16,0,0,0-6.4-19.56c-14.21-11.27-31.84.24-36.14,15.48a1.69,1.69,0,0,0,3.25.9Z" transform="translate(-358.22 -233.17)"/>
    <path class="cls-2" d="M416.94,291.17c3.28-1.52,6.88-3.24,10.61-2.88,3,.29,6,1.69,5.23,5.81a11.64,11.64,0,0,1-2.34,4.52c-2.72,3.34-7,3-10.25.74a11.44,11.44,0,0,1-3.47-3.72,8.28,8.28,0,0,1-1.13-3.72,5.27,5.27,0,0,1,4.19-1.52c1.19-.12,1.2-2,0-1.87-1.94.21-5.1.07-5.93,2.23s.72,5.13,1.86,6.77c2.94,4.22,9.32,7.34,14.1,4.27,3.48-2.24,7.18-9.24,3.82-12.83-4.66-5-12.58-1.76-17.63.58-1.09.51-.14,2.12.94,1.62Z" transform="translate(-358.22 -233.17)"/>
    <path class="cls-2" d="M423.76,301.63c.22,9.18-20.37,13.61-20.14,4.44a.94.94,0,0,0-1.87,0c-.3,12.2,24.15,7,23.88-4.44a.94.94,0,0,0-1.87,0Z" transform="translate(-358.22 -233.17)"/>
    <path class="cls-2" d="M425.44,303.49a11.7,11.7,0,0,0,19.58-.32c.68-1-.94-1.94-1.61-.94a9.81,9.81,0,0,1-16.35.32c-.7-1-2.33,0-1.62.94Z" transform="translate(-358.22 -233.17)"/>
    <path class="cls-2" d="M388.4,268c-4.24-3.68-13.49-8.76-17.9-2.48-4.28,6.09,4.87,12.38,9.37,14.72,1.07.56,2-1,.94-1.61-3.49-1.82-12.69-7.65-8.42-12.49,3.87-4.38,11.42.34,14.69,3.18.9.79,2.23-.53,1.32-1.32Z" transform="translate(-358.22 -233.17)"/>
    <path class="cls-2" d="M456.26,257.25c1.78-2.71,3.62-5.59,6.64-7.05a6.46,6.46,0,0,1,9.36,3.88c2.1,6.12-2.92,11.34-7.48,14.59-1,.7,0,2.32,1,1.62,6-4.31,12.35-12.38,6.78-19.69-6-7.84-14.19.12-17.87,5.71-.66,1,1,1.95,1.62.94Z" transform="translate(-358.22 -233.17)"/>
    <path class="cls-2" d="M418.28,310c.43,4.52,3.87,9.86,9.05,9.31,6-.63,7.35-7.38,7.24-12.27a.94.94,0,0,0-1.87,0c.08,3.51-.26,7.86-3.71,9.8-4.54,2.54-8.46-2.85-8.84-6.84-.12-1.19-2-1.2-1.87,0Z" transform="translate(-358.22 -233.17)"/>
    <path class="cls-2" d="M425.13,303.71v7.12a.94.94,0,0,0,1.87,0v-7.12a.94.94,0,0,0-1.87,0Z" transform="translate(-358.22 -233.17)"/>
    <path class="cls-2" d="M404.09,274.36c-4.94-.82-7,4.05-6.81,8.25.1,1.82.37,4,1.87,5.2a3.27,3.27,0,0,0,4.7-.37c2.54-2.73,3.73-9,1-12-3.28-3.54-6.68,1.12-7.21,4.29-.36,2.16-.19,11.7,4.23,9.33,3.3-1.77,4.71-8.77,3.42-12a3.88,3.88,0,0,0-4.09-2.64c-1.77.3-2.69,2-3.18,3.56-.72,2.27-1.36,9.77,3.11,8.82,3.5-.74,5.25-9.26,2.11-11.18-1.73-1.05-3.25.22-3.75,1.89a10,10,0,0,0,1.17,7.87,1,1,0,0,0,1.62,0,9.44,9.44,0,0,0,1.47-8.63.94.94,0,0,0-1.56-.42,5.09,5.09,0,0,0-.74,6.29,1,1,0,0,0,1.47.19,6.19,6.19,0,0,0,.88-6.88.94.94,0,0,0-1.47-.19,4.28,4.28,0,0,0-.76,5c.36.79,1.48.46,1.71-.22l.72-2.13c.39-1.14-1.42-1.63-1.8-.49l-.72,2.12,1.7-.22.48-2.77-1.47-.19a4.17,4.17,0,0,1-.59,4.61l1.47.19a3.23,3.23,0,0,1,.44-4l-1.56-.41a7.69,7.69,0,0,1-1.29,7.19h1.62A8.53,8.53,0,0,1,401,280.2a7.88,7.88,0,0,1,.28-2.21c1.33.26,1.84.91,1.55,2,.06.95-.55,3.71-1.33,4.32-1.76,1.37-2-.46-2.2-1.69a10.14,10.14,0,0,1,.51-4.13q.4-2.42,3.49-1.26a5.69,5.69,0,0,1,.53,2.89,12.41,12.41,0,0,1-.76,3.8,13.73,13.73,0,0,1-.92,2c-.19.83-.63,1-1.33.43-2.3-.6-1.67-5.92-1-7.71.77-2.16,3.19-3.24,4.38-.63a6.63,6.63,0,0,1,.19,3.37,8.85,8.85,0,0,1-1.1,3.58c-1.91,3-3.7,1.13-4-1.53-.35-2.84.24-8,4.37-7.28,1.18.2,1.69-1.6.5-1.8Z" transform="translate(-358.22 -233.17)"/>
    <path class="cls-2" d="M447.63,274c-1.14-2.48-4.41-1.87-5.67.15-1.78,2.87-1.6,8.19.22,11,1.44,2.19,4.65,3.51,7.06,2.12,2.72-1.56,3.23-6,2.8-8.75-.36-2.3-2.6-6.39-5.53-5s-3.61,6.86-3.22,9.68c.35,2.54,2.68,5.4,4.88,2.55a9.54,9.54,0,0,0,.65-9.7c-1.31-2.59-4.09-4.54-6.31-1.69-2,2.55-2.17,7.61.21,10s5.09-.58,5.65-3c.5-2.22-.18-7.36-3.09-7.82-5.37-.84-2.77,15.42,2.34,11.54,2.36-1.79,2.31-6.81.39-8.87-2.29-2.47-3.83,1-3.54,3.06s3.12,6.94,5.35,3.71c1.29-1.87.5-7.49-2.6-7.15s-2.93,6.9-1.26,8.55c3.44,3.4,4.25-4.24,4.27-5.89a.94.94,0,0,0-1.84-.25l-.66,1.84c-.42,1.13,1.39,1.62,1.8.5l.66-1.84-1.83-.25a8.68,8.68,0,0,1-.24,3c.09.87-.32,1.14-1.23.8l-.21-1.21c0-.37.06-3,.62-3.11.91-.18,1.49,2.08,1.3,2.73-1.12,4-3.29-3.9-1.82-3s.74,6.94-1.37,5.35c-1.19-.9-1.14-4.18-1-5.47s.6-2.69,1.56-.9a6.32,6.32,0,0,1,.74,3,5,5,0,0,1-.21,1.54c-.2,1.08-1.08,1.61-2.63,1.59-.6-.55-.91-2.51-.93-3.2a7.11,7.11,0,0,1,.71-3.49c.82-1.51,2.46-1,3.25.29a7.93,7.93,0,0,1,1,5.35c-.11.61-.37,2.09-.85,2.39l-1.72-.36a9.58,9.58,0,0,1-.25-2.2c0-1.45.41-4.75,1.71-5.76,2.13-1.66,3.37,1.95,3.53,3.52.29,3.07-1.34,8.73-5.41,5.92-1.8-1.25-2.15-3.52-2.13-5.56A16.42,16.42,0,0,1,443,277c.19-1.07,1.92-4.58,3.06-2.09.51,1.1,2.12.15,1.62-.94Z" transform="translate(-358.22 -233.17)"/>
  </g>
</svg>
