<svg id="Layer_1" data-name="Layer 1" xmlns="http://www.w3.org/2000/svg" viewBox="0 0 115.77 77.89">
  <defs>
    <style>
      .cls-1 {
        fill: #fd5967;
      }

      .cls-2 {
        fill: #231f20;
      }
    </style>
  </defs>
  <title>car</title>
  <g>
    <path class="cls-1" d="M368.67,280.63l-2.45,9.31a.94.94,0,0,0,1.71.72q2.86-4.61,5.75-9.21l-1.71-.72a59.67,59.67,0,0,1-4.62,13.83c-.51,1.07,1,2,1.61.95l8.85-16-1.71-.72a113.93,113.93,0,0,1-5.1,14.47.94.94,0,0,0,1.62.94l9.43-13-1.74-.47a49.65,49.65,0,0,1-3.46,12.72c-.41,1,1.2,1.62,1.71.72a66.5,66.5,0,0,1,8.06-11.3l-1.59-.66a19.68,19.68,0,0,1-1.85,7.65c-.39.88.75,2,1.47,1.14l7-8.9-1.57-.91c-.43,2.6-.87,5.2-1.3,7.8a.93.93,0,0,0,1.8.5,59.09,59.09,0,0,1,6.48-12.22l-1.71-.72-3.18,14.67c-.18.84.92,1.67,1.57.91l6.93-8.12-1.6-.66a34.42,34.42,0,0,1-2.45,9l1.8.49A103.23,103.23,0,0,0,404,269.6a1,1,0,0,0-1.6-.66l-3,3.88,1.56.91a12.56,12.56,0,0,1,1.29-4.43l-1.75-.48-.42,10.8a1,1,0,0,0,1.6.66l13.74-14.18L414,265a61.57,61.57,0,0,1-5.64,9.89l1.61.94A68.81,68.81,0,0,1,418,263.34l-1.56-.91a21.37,21.37,0,0,1-3.13,7.6c-.58.88.77,2,1.46,1.14a84,84,0,0,1,11-10.61l-1.56-.91a25.76,25.76,0,0,1-4.91,10.63l1.62.94a15.8,15.8,0,0,0,1.92-8.88,1,1,0,0,0-1.41-.81l-17.68,12c.43.43.85.86,1.28,1.28a22.15,22.15,0,0,1,5.9-8.17c2.27-1.91,3.31-2.37,6.38-2.21,4.17.22,2.14,0,4.17,2.19a3.91,3.91,0,0,0,2.41,1.51,4.5,4.5,0,0,0,1.63-.23l1.09-.54a2.61,2.61,0,0,1,3.23-.5l1.56.91a7.39,7.39,0,0,1,3-4.3L433,262.37,429.17,271c-.47,1.08,1,2,1.62.94a17.77,17.77,0,0,1,4.36-4.94l-1.59-.66a16.58,16.58,0,0,1-1,5.53.94.94,0,0,0,1.56.91l4.68-5.56-1.6-.66a22.94,22.94,0,0,1-.55,7.47c-.24,1,1.2,1.69,1.71.72.88-1.69,1.77-3.37,2.66-5.06H439.4a12.64,12.64,0,0,1,1.23,7.46c-.12,1,1.28,1.18,1.74.47l4.41-6.85-1.74-.47a136.85,136.85,0,0,1-.87,19.2c-.14,1.2,1.72,1.18,1.87,0q.72-5.89,1.46-11.78h-1.87l-1.35,25.64a.94.94,0,0,0,1.84.25l4.65-18.68-1.84-.25a166.81,166.81,0,0,1-4.5,25.19c-.31,1.2,1.35,1.57,1.8.49A101.2,101.2,0,0,0,452.84,287c.19-1.17-1.59-1.69-1.8-.5a220,220,0,0,0-3.18,28,1,1,0,0,0,1.75.47,66.92,66.92,0,0,0,7-18,.93.93,0,0,0-1.8-.5,151,151,0,0,0-4.54,24.79c-.1,1,1.29,1.21,1.74.47a96.29,96.29,0,0,0,8.51-18.05l-1.81-.5a95.65,95.65,0,0,0-4.09,22c-.07,1,1.26,1.17,1.74.47a53.28,53.28,0,0,0,7.07-14.25l-1.8-.49q-2,8.1-4.06,16.2c-.24,1,1.27,1.73,1.71.72a93.27,93.27,0,0,1,7.39-13.66l-1.71-.72-3.75,13.19a.94.94,0,0,0,1.71.72c2.35-3.76,4.5-7.61,6.49-11.58l-1.71-.72-3.66,13a.94.94,0,0,0,1.71.72q3.56-5.92,7.12-11.86l-1.71-.72a79.41,79.41,0,0,1-4.5,12.6c-.49,1.08,1.09,2,1.61.94q3.48-7.22,6.95-14.45l-1.71-.72-5.06-.27c-.66-.59-1.3-1.18-1.94-1.79a29.85,29.85,0,0,1-3.94-4.39,25.94,25.94,0,0,1-3.4-7.43c-1.4-4.69-1.87-9.58-3.1-14.32-1.79-6.94-5.33-13.56-12.32-16.26-.77-.3-1.46.72-1,1.38a43.31,43.31,0,0,1,3.08,40.18l1.47-.19c-2.41-3.12-5.44-6.85-9.79-6.81a6.44,6.44,0,0,0-6.21,4.2c-.42,1.05,1.14,1.51,1.71.72a42.64,42.64,0,0,1,8-8.51l-1.47-.19,2.62,4a1,1,0,0,0,1.28.34,7.11,7.11,0,0,0,3.54-4c.21-.51-.24-1-.66-1.15a9.26,9.26,0,0,0-12.61,6.78c-.13.65.42,1.41,1.15,1.15a37,37,0,0,0,7.6-3.68l-.95-1.62-12.39,8.82,1.27,1.28a49.48,49.48,0,0,0,6.86-13.07c.31-.91-.93-1.54-1.57-.91a71.53,71.53,0,0,0-9.92,12.35l1.71.72q2-5.83,4-11.66c.34-1-.91-1.43-1.56-.91a31.12,31.12,0,0,0-8,9.29c-.51.88.8,2,1.47,1.13a12.8,12.8,0,0,0,2.43-11.93.94.94,0,0,0-1.56-.42A29.89,29.89,0,0,0,417.26,309a.94.94,0,0,0,1.56.91,18.07,18.07,0,0,0,4.73-10.65c.09-.87-1.06-1.15-1.6-.66a53.76,53.76,0,0,0-9,10.31l1.71.72a66.37,66.37,0,0,0,3.12-12.49.94.94,0,0,0-1.56-.91,24.29,24.29,0,0,0-7.47,10.2l1.84.25A26.62,26.62,0,0,0,408,291.74a1,1,0,0,0-1.62,0A14,14,0,0,0,404,303.32c.25,1.18,2,.67,1.8-.5A43.84,43.84,0,0,0,398.72,286a.94.94,0,0,0-1.74.47A46.21,46.21,0,0,0,403.32,309a.94.94,0,0,0,1.74-.47,45.46,45.46,0,0,0-5.41-20c-.57-1.08-2.08-.13-1.61.95q4.62,10.53,9.25,21.08a.94.94,0,0,0,1.71-.23,32.28,32.28,0,0,0-2.24-18l-1.47,1.14,10.29,11.22,1.32-1.33-13.78-13.13L402,291.72l21.43,9.52c1.07.47,2-1,.94-1.62l-14.56-7.83-.72,1.7,18.22,6.81c.16-.6.33-1.2.5-1.8A258.7,258.7,0,0,1,400,286.6l-.72,1.71,19.64,6.88c3.24,1.13,7.74,1.76,9.47,4.75,1.6,2.78-.29,3.53-2,5.66-1.19,1.49-2.39,3-3.59,4.45a.94.94,0,0,0,.41,1.56,44.43,44.43,0,0,0,7.62.92c-.08-.61-.17-1.22-.25-1.84l-3.72.94a1,1,0,0,0-.55,1.38c2.65,4.22,8.2,4.19,11.84,1.15,2.71-2.26,4.2-5.63,5.69-8.72q3.63-7.54,7.24-15.1l-1.71-.22a78.7,78.7,0,0,1,3.5,14.53c.12.88,1.3.79,1.7.22a18.28,18.28,0,0,0,3.34-8.27l-1.84-.25a200,200,0,0,0,2,24.44l1.57-.91-9.9-8.76a.93.93,0,0,0-1.32,1.32,21.61,21.61,0,0,1,4.87,10.64l1.8-.5c3.61-2.74,5.71-2.75,6.33,0a5.82,5.82,0,0,1,.64,2.49.93.93,0,0,0,1.15.65,19.05,19.05,0,0,0,9.55-7.83l-1.71-.72-3.81,10.11,1.81.5c.7-4.86,7.79-12.52.75-16-1.51-.74-3.24-.7-4.84-1.07a11.44,11.44,0,0,1-7.4-5.15c-3.14-4.94-3.26-10.77-3.95-16.4-.94-7.71-3.7-14.28-10.51-18.5s-15.56-5.31-23.57-5.36c.16.58.31,1.16.47,1.74a35,35,0,0,1,9.62-3.14c1-.18.8-1.87-.25-1.83A48.29,48.29,0,0,0,391.37,283c-.52.75.53,1.84,1.28,1.28l9.2-6.87-1.38-.56c4.46,10.82-15.67,9-20.9,13a17.71,17.71,0,0,0-2.19,2.29q-2.16-3.75,3.08-4.63a10.17,10.17,0,0,1,4.84,1.88c2.9,1.87,5,4.41,8.39,5.55,4.19,1.41,9.77.55,12.52,4.8,1.75,2.71,1.62,6.19,3.79,8.72s5.88,3.52,8.89,4.55a100.38,100.38,0,0,0,13.74,3.54c.83.16,1.7-.91.91-1.56l-7-5.83c-.06.49-.13,1-.19,1.47a50.16,50.16,0,0,1,16.56-5c4.08-.43,5.57.63,7.88,4.26.44.68.59,1.5,1.27,2a3.12,3.12,0,0,0,4-.07c2.2-1.77,1.39-4.77.59-7l-1.8.49a35.55,35.55,0,0,1,2.28,16.23c-.1,1.2,1.77,1.19,1.87,0a36.41,36.41,0,0,0-2.35-16.72c-.42-1.11-2.21-.65-1.8.49,1.14,1.8.3,3-2.5,3.51a11.72,11.72,0,0,0-.51-1.4c-.59-.55-.72-1.54-1.38-2.15a7.74,7.74,0,0,0-5-1.7c-6.8-.31-14.1,2.54-20.09,5.46a.94.94,0,0,0-.19,1.47l7,5.82.91-1.56a101.47,101.47,0,0,1-13.74-3.54c-3.09-1.05-6.8-2-8.67-5-1.15-1.82-1.34-4.1-2.22-6-2.81-6.21-8.77-5.13-14.31-7.07-4.94-1.73-10.75-10.39-16.89-6.79-3.14,1.84-3.47,6.52-.22,8.3a1,1,0,0,0,1.28-.34c4-7.59,13.79-4.24,20.07-8.08,3.44-2.1,5.43-6,3.85-9.9-.21-.49-.84-1-1.38-.56l-9.2,6.88,1.28,1.28a46.28,46.28,0,0,1,36.44-20c-.08-.62-.16-1.23-.25-1.84a36.06,36.06,0,0,0-10.06,3.33.94.94,0,0,0,.47,1.74c7.68,0,16,1,22.63,5.11,8.81,5.47,9,14.43,10.33,23.73.81,5.67,2.86,12.22,8.22,15.21,3.1,1.72,11,.79,10.19,6.68-.44,3.26-3.17,6-3.66,9.36a.94.94,0,0,0,1.81.5l3.81-10.11c.39-1-1.16-1.58-1.71-.72-1.07,1.67-3.72,5.63-5.95,5.85-3.06.31-.42.68-2-1.1s-1.74-3.55-4.23-4.12a4.64,4.64,0,0,0-5.66,5.53c.27,1.19,2,.67,1.8-.5a23.27,23.27,0,0,0-5.35-11.46l-1.32,1.32,9.9,8.76a.94.94,0,0,0,1.56-.91,196,196,0,0,1-2-23.94c0-1-1.67-1.33-1.83-.25a17.68,17.68,0,0,1-3.15,7.83l1.71.22a78.09,78.09,0,0,0-3.5-14.53c-.24-.69-1.33-1-1.71-.22q-3.62,7.55-7.23,15.09a34.36,34.36,0,0,1-3.41,6.1c-2.43,3.16-7.88,6.28-10.9,1.47l-.56,1.38,3.72-.94a.94.94,0,0,0-.25-1.84,41.57,41.57,0,0,1-7.12-.85c.13.52.27,1,.41,1.56,2.49-3.09,11.48-10.51,5.47-14.27-3.71-2.31-8.87-3.26-13-4.69l-16.84-5.9a.94.94,0,0,0-.72,1.71A262.8,262.8,0,0,0,427.3,300.3c1.14.41,1.61-1.39.5-1.8l-18.22-6.81c-1-.37-1.65,1.21-.72,1.71l14.56,7.84.94-1.62-21.43-9.52c-.9-.4-2,.68-1.13,1.47l13.78,13.14a.94.94,0,0,0,1.32-1.33l-10.29-11.22c-.78-.85-1.85.24-1.47,1.14a29.9,29.9,0,0,1,2.06,16.58l1.71-.23q-4.64-10.53-9.26-21.08l-1.61.95a43.22,43.22,0,0,1,5.15,19l1.74-.47a44.15,44.15,0,0,1-6.08-21.6l-1.74.48A42.73,42.73,0,0,1,404,303.32l1.8-.5A12.2,12.2,0,0,1,408,292.69h-1.62a24.86,24.86,0,0,1,2.4,13.94c-.12,1.13,1.48,1.14,1.84.25a22.46,22.46,0,0,1,7-9.38l-1.56-.91a67,67,0,0,1-3.12,12.49c-.38,1.05,1.14,1.56,1.7.73a51.46,51.46,0,0,1,8.68-9.94l-1.59-.66a15.76,15.76,0,0,1-4.18,9.33l1.56.91a27.55,27.55,0,0,1,6.45-10.72l-1.57-.42A10.62,10.62,0,0,1,422,308.43l1.47,1.13a29.66,29.66,0,0,1,7.73-8.91l-1.57-.91-4,11.66c-.35,1,1.16,1.58,1.71.72a68.92,68.92,0,0,1,9.64-12l-1.57-.91a47.54,47.54,0,0,1-6.66,12.62c-.55.75.53,1.81,1.28,1.28l12.4-8.82c1-.69.08-2.27-.95-1.62a34.85,34.85,0,0,1-7.15,3.5c.38.39.77.77,1.15,1.15a7.42,7.42,0,0,1,6.22-6c.51-.07,4.75-.16,2.1.7-1.66.53-1.58-.41-2.68-2.07a1,1,0,0,0-1.47-.19,44.65,44.65,0,0,0-8.32,8.88l1.71.72c3-7.32,10.41.25,12.88,3.44a1,1,0,0,0,1.47-.19,45.2,45.2,0,0,0-3.09-42.07l-1,1.37C456.34,277,454,294.36,458.7,305c1.31,3,14.62,20.11,16.57,10,.19-1-1.22-1.74-1.71-.72q-3.46,7.22-6.94,14.45l1.61.94a82.79,82.79,0,0,0,4.7-13,.94.94,0,0,0-1.71-.72l-7.13,11.86,1.71.72,3.66-13c.28-1-1.22-1.68-1.71-.72-2,4-4.13,7.82-6.48,11.59l1.7.72q1.88-6.6,3.76-13.2a.94.94,0,0,0-1.71-.72,93.38,93.38,0,0,0-7.39,13.67l1.71.72,4.05-16.21a.93.93,0,0,0-1.8-.49,52.11,52.11,0,0,1-6.88,13.8l1.74.47a93,93,0,0,1,4-21.49c.36-1.16-1.41-1.62-1.81-.5a92.62,92.62,0,0,1-8.32,17.61l1.75.47A148.16,148.16,0,0,1,456.57,297l-1.8-.5A65.23,65.23,0,0,1,448,314.08l1.74.47A215.7,215.7,0,0,1,452.84,287l-1.8-.5a101.78,101.78,0,0,1-6.61,23.34l1.8.49a169.29,169.29,0,0,0,4.57-25.68c.11-1.05-1.59-1.25-1.84-.25q-2.31,9.34-4.64,18.68l1.83.25,1.35-25.64c.07-1.23-1.72-1.16-1.87,0q-.74,5.9-1.46,11.78H446a136.85,136.85,0,0,0,.87-19.2,1,1,0,0,0-1.75-.47l-4.41,6.85,1.75.47a14.13,14.13,0,0,0-1.48-8.4.94.94,0,0,0-1.62,0l-2.66,5,1.71.73a24.3,24.3,0,0,0,.62-8c-.06-.73-1-1.34-1.59-.66l-4.68,5.55,1.56.91a17.68,17.68,0,0,0,1.07-6,1,1,0,0,0-1.6-.66,18.84,18.84,0,0,0-4.66,5.32l1.62.94,3.77-8.61a.94.94,0,0,0-1.47-1.13,10.39,10.39,0,0,0-3.52,5.12.94.94,0,0,0,1.56.91c1.33-1.44.52-3.27-1.41-3.81-1.06-.3-1.54.16-2.46.37a10.44,10.44,0,0,0-1.62,1l-3.26-1.11c-.59-.49-.81-1.56-1.41-2.11-6.14-5.71-15.5,6.62-17.58,11.34-.34.76.42,1.86,1.28,1.28l17.67-12-1.4-.8a13.72,13.72,0,0,1-1.67,7.94.94.94,0,0,0,1.62.94A27.12,27.12,0,0,0,426,260.15a.94.94,0,0,0-1.56-.91,84,84,0,0,0-11,10.6l1.47,1.14a22.17,22.17,0,0,0,3.32-8.05c.17-.83-.92-1.7-1.56-.91a70,70,0,0,0-8.36,12.84.93.93,0,0,0,1.61.94,60.78,60.78,0,0,0,5.65-9.88c.41-.92-.68-1.95-1.47-1.14L400.35,279l1.6.66.42-10.8c0-.88-1.36-1.33-1.74-.47a19.24,19.24,0,0,0-1.47,4.88c-.13.8.92,1.74,1.56.91l3-3.88-1.6-.66a101.4,101.4,0,0,1-5.51,22.7c-.42,1.14,1.35,1.57,1.8.49a35.91,35.91,0,0,0,2.52-9.48,1,1,0,0,0-1.6-.66l-6.93,8.12,1.57.91L397.18,277a.94.94,0,0,0-1.71-.72A60.77,60.77,0,0,0,388.8,289l1.8.5q.64-3.9,1.31-7.8c.13-.8-.92-1.73-1.57-.91l-7,8.89,1.47,1.14a23.88,23.88,0,0,0,2.1-8.6,1,1,0,0,0-1.6-.66A68.53,68.53,0,0,0,377,293.18l1.71.72a52.11,52.11,0,0,0,3.52-13.21c.14-1-1.27-1.12-1.74-.47l-9.44,13,1.62.94a117.31,117.31,0,0,0,5.28-14.91.94.94,0,0,0-1.71-.72l-8.84,16,1.61.95a61.6,61.6,0,0,0,4.81-14.28.94.94,0,0,0-1.71-.72q-2.87,4.61-5.75,9.2l1.71.72,2.45-9.3a.93.93,0,0,0-1.8-.5Z" transform="translate(-362.83 -259)"/>
    <path class="cls-2" d="M367.2,289.15l5.19-12.6-2.07,1.17c4,1.18,8,2.37,12.07,3.52,2.45.7,5,1.61,7.53.84,5.1-1.55,8-8,12-11.25,11.2-9.26,28-11.26,40.22-2.8a32.65,32.65,0,0,1,12.6,17.28c1.85,6.18,0,12,1.11,18.15s5.76,6.53,11,7.87c1.93.49,5.24,1.18,6.71,2.48,2.15,1.9,1.3,3.69.42,5.87-1.59,4-3.27,7.9-4.9,11.85l2.07-1.17-10.58-2.46a30.13,30.13,0,0,1-4.82-1.12,7,7,0,0,1-4.67-5.54c-.81-3.81-1.21-6.76-4.58-9.33-6.5-4.93-15.07-1.05-17.41,6.25l2.07-1.17-31.47-11.62,1.18,2.07c.89-6.53-1.54-14.24-8.37-16.56-6.1-2.07-13.26,1.69-14.38,8.13l2.48-1a128.31,128.31,0,0,0-15.72-7.79c-2-.83-2.87,2.42-.9,3.24a122.14,122.14,0,0,1,14.92,7.46,1.7,1.7,0,0,0,2.47-1,7.63,7.63,0,0,1,10.6-5.56c4.65,2,6.29,7.54,5.65,12.2a1.75,1.75,0,0,0,1.18,2.07l31.46,11.62a1.7,1.7,0,0,0,2.07-1.17c2.08-6.47,10.68-8.32,14.34-2,1.71,3,.35,6.43,1.83,9.41,1.29,2.58,3.77,2.94,6.36,3.56,5.12,1.24,10.26,2.39,15.4,3.59a1.75,1.75,0,0,0,2.07-1.18c1.85-4.48,4.08-8.95,5.6-13.55.74-2.24,1.25-4.18-.3-6.21-4-5.25-16.9-2.85-18.44-9.46-.8-3.42.24-7.13.14-10.59a32.31,32.31,0,0,0-2-10.25A36.28,36.28,0,0,0,447,267.59c-9.82-8.48-23.43-10.4-35.51-6a39.2,39.2,0,0,0-15.15,9.84c-3.7,3.93-5,8.07-11.33,7.08-4.59-.71-9.32-2.72-13.79-4a1.73,1.73,0,0,0-2.07,1.17L364,288.26c-.83,2,2.43,2.87,3.24.89Z" transform="translate(-362.83 -259)"/>
    <path class="cls-2" d="M377.21,295.54c-5.13,8.91-.39,20.72,10.33,22,8.56,1,16.87-7,13.53-15.69-3-7.84-15.13-9-17.86-.16-2.89,9.36,11.46,12.92,12.85,3.22.31-2.12-2.94-3-3.24-.89a5.34,5.34,0,0,1-3.18,3.55c-4.39,1.32-3.36-4.61-2.56-6a6,6,0,0,1,7.6-2.32c4.94,2.46,4.63,9.24.93,12.57s-9.26,3-13.06.14c-4.67-3.55-5.26-9.8-2.43-14.71a1.69,1.69,0,0,0-2.91-1.7Z" transform="translate(-362.83 -259)"/>
    <path class="cls-2" d="M430.86,313.27c-5.64,5.8-4.35,15.34,1.6,20.48s16.05,4,18.91-4.06c2.35-6.66-2.86-16.5-10.92-14.27-7,1.93-6.71,12.49,1.07,12.4,2.16,0,2.17-3.4,0-3.37q-5.24-3.87-.18-5.79a5.46,5.46,0,0,1,5.07,1.63,7.84,7.84,0,0,1-6.74,13.27c-8-1.11-12.1-12.07-6.42-17.91,1.51-1.55-.87-3.93-2.39-2.38Z" transform="translate(-362.83 -259)"/>
    <path class="cls-2" d="M402.28,284c.42-4.78,10.1-9.49,14-11a21.13,21.13,0,0,1,13.32-.78c11.21,3.4,13,16.11,12.42,26.11l1.18-.9a146.36,146.36,0,0,1-20.07-4.32c-6.8-2-14.85-4.07-20.25-8.85-.9-.79-2.22.52-1.32,1.32,4.85,4.29,11.44,6.28,17.5,8.23a144,144,0,0,0,23.65,5.42,1,1,0,0,0,1.18-.9c.64-11.72-2.42-26.09-16-28.41a25.18,25.18,0,0,0-16.14,3.15c-3.94,2.13-10.9,5.91-11.34,10.89-.11,1.2,1.76,1.19,1.87,0Z" transform="translate(-362.83 -259)"/>
    <path class="cls-2" d="M430,270.49,420.29,295c-.44,1.11,1.37,1.6,1.81.49L431.79,271c.44-1.12-1.37-1.6-1.81-.49Z" transform="translate(-362.83 -259)"/>
  </g>
</svg>
