<svg id="Layer_1" data-name="Layer 1" xmlns="http://www.w3.org/2000/svg" viewBox="0 0 120.05 159.31">
  <defs>
    <style>
      .cls-1 {
        fill: #fd5967;
      }

      .cls-2 {
        fill: #231f20;
      }
    </style>
  </defs>
  <title>castle</title>
  <g>
    <path class="cls-1" d="M364.43,233.71l3.12,2.78a.94.94,0,0,0,1.59-.66,15.63,15.63,0,0,0-.19-4.27l-1.71.72,3.33,6.71c.43.88,1.71.4,1.74-.47.12-3,.15-6,.08-9.06l-1.84.25A39.51,39.51,0,0,0,376.23,241c.65.83,1.67-.13,1.56-.91q-.89-6.39-1.76-12.78l-1.81.49a77.4,77.4,0,0,0,6.62,16.1c.42.77,1.84.47,1.74-.47q-1.05-9.53-2.09-19.06l-1.83.25q2.64,8.5,5.29,17c.3,1,1.91.84,1.84-.25l-1.45-21.66-1.84.25c2.67,8.19,3.57,16.67,4.33,25.21.1,1.19,2,1.2,1.87,0-.78-8.71-1.67-17.35-4.39-25.71-.31-.95-1.91-.85-1.84.25l1.45,21.66,1.84-.25q-2.65-8.51-5.3-17c-.3-1-2-.85-1.84.24q1,9.54,2.09,19.06l1.74-.47A75.88,75.88,0,0,1,376,227.28c-.34-1.2-2-.66-1.81.49L376,240.55l1.56-.91c-2.45-3.14-3.85-6.71-5.2-10.43-.34-.94-1.86-.86-1.83.25.07,3,0,6-.08,9.06l1.74-.47-3.32-6.72c-.51-1-1.88-.25-1.71.72a10,10,0,0,1,.12,3.78l1.6-.66-3.12-2.78c-.9-.8-2.23.52-1.32,1.32Z" transform="translate(-360.71 -217.22)"/>
    <path class="cls-1" d="M376.77,292.51c.25,1.12.5,2.24.76,3.37s2.06.67,1.8-.5-.5-2.24-.76-3.37-2.06-.67-1.8.5Z" transform="translate(-360.71 -217.22)"/>
    <path class="cls-1" d="M393,298.72a6.22,6.22,0,0,1,1,2.89c.1,1.19,2,1.2,1.87,0a8.21,8.21,0,0,0-1.26-3.84c-.65-1-2.26-.07-1.61,1Z" transform="translate(-360.71 -217.22)"/>
    <path class="cls-1" d="M413.38,295.63l.42,3.73c.13,1.19,2,1.2,1.87,0l-.42-3.73c-.13-1.19-2-1.2-1.87,0Z" transform="translate(-360.71 -217.22)"/>
    <path class="cls-1" d="M407.36,328.54l.36,3a1,1,0,0,0,.94.93c.46,0,1-.43.93-.93l-.36-3a1,1,0,0,0-.93-.93.94.94,0,0,0-.94.93Z" transform="translate(-360.71 -217.22)"/>
    <path class="cls-1" d="M377.88,318.06v3.74a.94.94,0,0,0,1.87,0v-3.74a.94.94,0,0,0-1.87,0Z" transform="translate(-360.71 -217.22)"/>
    <path class="cls-1" d="M393.62,334.52c.13,1,.25,2,.38,3a1,1,0,0,0,.94.93.94.94,0,0,0,.93-.93c-.13-1-.25-2-.38-3a1,1,0,0,0-.93-.94,1,1,0,0,0-.94.94Z" transform="translate(-360.71 -217.22)"/>
    <path class="cls-1" d="M379,354l.42,3.74c.13,1.18,2,1.19,1.87,0l-.42-3.74c-.13-1.18-2-1.2-1.87,0Z" transform="translate(-360.71 -217.22)"/>
    <path class="cls-1" d="M401.48,360.7a11.21,11.21,0,0,0,.29,4.39.93.93,0,0,0,1.8-.5,9.81,9.81,0,0,1-.22-3.89.94.94,0,0,0-1.87,0Z" transform="translate(-360.71 -217.22)"/>
    <path class="cls-1" d="M433,333.63l.71,2.63a.93.93,0,0,0,1.8-.5c-.23-.87-.47-1.75-.7-2.63a.94.94,0,0,0-1.81.5Z" transform="translate(-360.71 -217.22)"/>
    <path class="cls-1" d="M450.14,344a7.16,7.16,0,0,0,.19,3.53c.36,1.15,2.17.66,1.8-.49a5.21,5.21,0,0,1-.19-2.54c.22-1.18-1.58-1.68-1.8-.5Z" transform="translate(-360.71 -217.22)"/>
    <path class="cls-1" d="M463.16,331.53v3a.94.94,0,0,0,1.87,0v-3a.94.94,0,0,0-1.87,0Z" transform="translate(-360.71 -217.22)"/>
    <path class="cls-1" d="M459.79,363.32v2.24a.94.94,0,0,0,1.87,0v-2.24a.94.94,0,0,0-1.87,0Z" transform="translate(-360.71 -217.22)"/>
    <path class="cls-1" d="M432.87,364.24a5.62,5.62,0,0,1,.82,3.58c-.11,1.19,1.76,1.19,1.87,0a7.35,7.35,0,0,0-1.07-4.53c-.63-1-2.25-.08-1.62.95Z" transform="translate(-360.71 -217.22)"/>
    <path class="cls-2" d="M367.22,367.74a708.56,708.56,0,0,0-1.78-102.4l-1.51,2a6.26,6.26,0,0,1,7.83,2.36c1.65,2.8-.24,6.12.06,9.11s2.14,5.43,5.26,5.82c10.18,1.3,9.95-10.81,8.12-17.31l-2,2.61L396,268.85l-2.06-2.05.56,9.51c.09,1.55-.22,3.7.66,5.05,1.52,2.31,5.51,2.63,7.9,2.14,8.38-1.73,9.62-11,8-18L409.53,268l13.23-2.27-2.61-2q1.58,55.36-.07,110.76c-.08,2.65,4,2.64,4.11,0q1.63-55.38.08-110.76a2.1,2.1,0,0,0-2.61-2l-13.22,2.28a2.08,2.08,0,0,0-1.44,2.53c.78,3.27,1.17,6.69-.72,9.68s-5.42,4.33-8.5,2l1,1.78L398,266.8a2.08,2.08,0,0,0-2.06-2.06l-12.74,1.05a2.08,2.08,0,0,0-2,2.61c.74,2.64,1.89,5.86,1,8.6-1.74,5.55-6.79,3.57-6.1-1.43.36-2.63.66-5-.6-7.45a10.19,10.19,0,0,0-12.74-4.76,2.13,2.13,0,0,0-1.51,2,707.14,707.14,0,0,1,1.79,102.4c-.15,2.64,4,2.63,4.11,0Z" transform="translate(-360.71 -217.22)"/>
    <path class="cls-2" d="M424.31,315.19,436.7,314l-2-2.61c-.91,5.31,1.08,14,8.45,11.49,2.55-.86,3.36-2.62,3.6-5.12.06-.61-.34-1.33,0-1.92.71-1.17,2.17-.73,3.64-.74.62,0,3.06-.39,3.51,0,.62.51.71,4.91.79,5.64a2.13,2.13,0,0,0,1.51,2c6.8,1.84,15.11-2.25,11.72-10.22-.6,1-1.19,2.06-1.78,3.09a34.81,34.81,0,0,1,11.77.79l-1.51-2a353.84,353.84,0,0,1-2.76,57.1c-.33,2.62,3.78,2.6,4.12,0a356.14,356.14,0,0,0,2.76-57.1,2.1,2.1,0,0,0-1.51-2,38.44,38.44,0,0,0-12.87-.94,2.1,2.1,0,0,0-1.78,3.09c1.78,4.18-4.75,4.81-7.07,4.18.5.66,1,1.32,1.51,2-.26-2.37.17-6.87-1.8-8.74s-6-1-8.36-1-5-.11-6.06,2.48c-.39,1,0,1.88-.19,2.82q-.56,4.68-3.38,1.59a8.5,8.5,0,0,1-.37-5.4c.2-1.18-.53-2.75-2-2.61l-12.39,1.25c-2.61.26-2.64,4.38,0,4.11Z" transform="translate(-360.71 -217.22)"/>
    <path class="cls-2" d="M391.43,266.43a422.74,422.74,0,0,0-2.64-48.25c-.07-.64-.76-1.24-1.4-.81l-26.24,17.78a1,1,0,0,0,.22,1.71l28.6,9.73c1.14.39,1.63-1.41.5-1.8l-28.6-9.73c.08.57.15,1.14.22,1.71L388.33,219l-1.41-.81a422.74,422.74,0,0,1,2.64,48.25.94.94,0,0,0,1.87,0Z" transform="translate(-360.71 -217.22)"/>
  </g>
</svg>
