<svg id="Layer_1" data-name="Layer 1" xmlns="http://www.w3.org/2000/svg" viewBox="0 0 186.1 154.95">
  <defs>
    <style>
      .cls-1 {
        fill: #fd5967;
      }

      .cls-2 {
        fill: #231f20;
      }
    </style>
  </defs>
  <title>cloud</title>
  <g>
    <path class="cls-1" d="M381.72,265.91c-4,.1-10.06,1.59-9,6.89.5,2.4,2.65,4.24,4.85,5.13a15.5,15.5,0,0,0,4.93.83c.93.06,2.46-.24,3.33.11,2.18.87,1.55,1.19.89,3.24C385,287.67,385,295.64,391.6,298c6.07,2.17,11.93-3.27,15.71-7.3l-1.56-.41c4,12.1,34.81,30.95,41.08,11.67l-1.56.42c7.21,6.49,16.27,12.66,26.48,10.42,8.06-1.78,13.76-9.55,11.3-17.74l-.9,1.18c7.48-.79,15.92-6.55,16.27-14.81.33-7.52-8.42-9.1-14.21-9.36l.8,1.41c3.66-6,8.18-16.83-.76-20.85-4.4-2-10.37-.95-14.92-.12a52.92,52.92,0,0,0-16.05,5.9l1.41.81c.09-7.74-1-18.14-10.41-19.73-4.63-.78-9.25,1.09-12.82,3.93a35.23,35.23,0,0,0-4.68,4.62c-2.67,3.07-2.57,2.81-5.57.71-6.53-4.57-16.06-8-22.08-.76-2.58,3.11-3.46,7.28-3.89,11.2-.08.71.2,3.42-.27,4-.68.81-3.66.63-4.49.74a50.56,50.56,0,0,0-9,2.05c-1.15.36-.66,2.17.49,1.8a50.74,50.74,0,0,1,13.89-2.36,1,1,0,0,0,.94-.93c.16-5.78.47-13.14,5.53-16.93,7-5.25,15.9,1,21.43,5.53a1,1,0,0,0,1.32,0c4.42-5.59,9.79-12.24,17.68-11.88,9.32.42,10.15,10.94,10.06,18a1,1,0,0,0,1.41.81,50,50,0,0,1,22.07-6.45c5.33-.24,11,.95,11.38,7.41.27,4.2-2.19,8.11-4.28,11.55a.94.94,0,0,0,.81,1.4c5.41.24,14.07,1.59,12,9.36-1.7,6.26-7.81,10.42-14,11.07a1,1,0,0,0-.9,1.18c2.78,9.26-5.73,16.08-14.34,15.81-8-.24-14.61-5.17-20.32-10.31a1,1,0,0,0-1.56.42c-5.51,16.92-34-1.3-37.48-11.68a.94.94,0,0,0-1.56-.41c-3.39,3.62-9.22,9.46-14.71,6.46-6.41-3.51-3.26-12.1-1.25-17.18a.94.94,0,0,0-.65-1.15c-2.79-.56-5.59-.33-8.38-.78a5.13,5.13,0,0,1-2.76-.68q-4.26-1.14-1.94-7.19c1.37-1.06,3.8-1,5.42-1.08a.94.94,0,0,0,0-1.87Z" transform="translate(-328.25 -220.41)"/>
    <path class="cls-1" d="M332.57,345.65a52.87,52.87,0,0,0,2.71,10.14c.42,1.12,2.23.63,1.8-.5a53,53,0,0,1-2.71-10.13c-.19-1.19-2-.69-1.8.49Z" transform="translate(-328.25 -220.41)"/>
    <path class="cls-1" d="M337.1,340l2.58,18.54c.17,1.19,2,.68,1.81-.5q-1.31-9.27-2.59-18.54c-.16-1.19-2-.68-1.8.5Z" transform="translate(-328.25 -220.41)"/>
    <path class="cls-1" d="M341.63,338.42a209.8,209.8,0,0,0,6.86,31.46c.34,1.15,2.15.66,1.8-.49a210.31,210.31,0,0,1-6.85-31.46c-.17-1.19-2-.69-1.81.49Z" transform="translate(-328.25 -220.41)"/>
    <path class="cls-1" d="M348.63,338.69A201.64,201.64,0,0,0,354.25,371a.93.93,0,0,0,1.8-.5,198.78,198.78,0,0,1-5.55-31.76c-.11-1.19-2-1.2-1.87,0Z" transform="translate(-328.25 -220.41)"/>
    <path class="cls-1" d="M353.7,337.57q2.39,17.93,6.14,35.62c.25,1.18,2.05.68,1.8-.5q-3.7-17.44-6.07-35.12c-.16-1.17-2-1.19-1.87,0Z" transform="translate(-328.25 -220.41)"/>
    <path class="cls-1" d="M359.1,327.68l5.73,41c.17,1.19,2,.68,1.8-.5l-5.73-41c-.16-1.18-2-.68-1.8.5Z" transform="translate(-328.25 -220.41)"/>
    <path class="cls-1" d="M365.51,333.64l3.42,27.48c.14,1.18,2,1.19,1.87,0l-3.42-27.48c-.15-1.18-2-1.19-1.87,0Z" transform="translate(-328.25 -220.41)"/>
    <path class="cls-1" d="M373,338.66q1.13,9.24,1.41,18.53c0,1.2,1.91,1.2,1.87,0q-.29-9.3-1.41-18.53c-.15-1.18-2-1.19-1.87,0Z" transform="translate(-328.25 -220.41)"/>
    <path class="cls-1" d="M377.37,343.17l1.2,10.64c.14,1.19,2,1.2,1.87,0l-1.2-10.64c-.13-1.19-2-1.2-1.87,0Z" transform="translate(-328.25 -220.41)"/>
    <path class="cls-2" d="M422.08,233.34c-17.44-12.94-42,1.35-39.23,22.93l2.06-2.06c-10.31-.25-24.82,1.15-26.76,13.85s10,20.7,21.43,21.11l-1.45-3.51c-6.52,7.45-6.1,19.89,2.21,26,8.11,5.92,20,2.84,25.16-5.33H402c5.15,8.74,12.74,16.77,22.88,19.36,8.89,2.26,18.7,0,24.84-7h-2.91c7.66,7.91,19,14.06,30.23,10.36a21.43,21.43,0,0,0,11.74-9.25,17,17,0,0,0,2.1-6c.65-4.39-.52-8.4,4.79-10.35,9.83-3.62,18.15-10.66,18.71-21.92a21,21,0,0,0-17.46-21.38l1.44,2.53c3.51-9,4.8-21.49-4-28-10.88-8.07-24.12-.16-33.33,6.44l3.09,1.78c1-10.78-7.8-20-18.07-22-11.91-2.24-23.23,4.77-30.94,13.23-1.79,1.95,1.12,4.87,2.91,2.91,6.27-6.88,14.89-12.88,24.62-12.41,9.5.46,18.27,8.38,17.37,18.24a2.07,2.07,0,0,0,3.09,1.78c7.6-5.45,18.51-13.1,28-7.26,8.27,5.1,6.25,16.6,3.3,24.18a2.05,2.05,0,0,0,1.44,2.53,16.94,16.94,0,0,1,13.64,21.7,20.74,20.74,0,0,1-9.64,11.58c-3.35,1.86-7.86,2.06-10.58,5-2.49,2.65-2.09,6-2.31,9.37a14.91,14.91,0,0,1-8.32,12.2c-10.3,5.47-21.59-.57-28.9-8.12a2.07,2.07,0,0,0-2.91,0c-5.52,6.29-14.28,8.08-22.14,5.6-8.51-2.69-14.72-9.63-19.12-17.09a2.08,2.08,0,0,0-3.55,0c-3.8,5.94-12.36,8.37-18.52,4.53-6.82-4.25-7.45-14.41-2.39-20.19a2.08,2.08,0,0,0-1.46-3.51c-9.42-.34-21.64-8.13-16.5-19.13,3.69-7.91,14.4-7.79,21.83-7.61a2.05,2.05,0,0,0,2-2.05,20.63,20.63,0,0,1,33-19.38c2.13,1.58,4.18-2,2.08-3.55Z" transform="translate(-328.25 -220.41)"/>
    <path class="cls-2" d="M365.61,362.6c-.19.83-.41,3.3-.65,4.08q-2.58,6-3.33,3a6.63,6.63,0,0,0-.39-1.05c-1.1-1.33-1.31-2.34-3.16-2.84-2.08-.56-3.17.81-5.05,1.12-6.69,1.11-7.33-5.35-7.49-10.2a2.08,2.08,0,0,0-1.51-2c-3.71-.51-10,2.83-11.5-2.1-.87-3,1-5.88,2.53-8.2a24.93,24.93,0,0,1,2.43-3.08c1.65-2.37,3.73-2.24,6.21.38-.27,2.12,2.89,2.67,3.84,1,2-3.46,4.09-7.28,7.63-9.41,4-2.4,12.37-1.38,9.71,5.32-.6,1.49,1.14,2.95,2.53,2.53,4.07-1.2,8.74-1.81,12.25,1.13s3.22,7,.47,10.28c-3.51,4.16-9.4,6.15-14.22,8.26-2.42,1.06-.33,4.61,2.07,3.56,7.11-3.11,18.56-7.45,18.51-16.93-.05-10.61-12.19-12.64-20.18-10.26l2.53,2.53c2.26-5.69-2.19-11.55-8.07-12-8.16-.6-13.18,6.68-16.79,12.89l3.84,1c.49-3.81-2.84-6.81-6.57-6.75-4.81.08-8.43,5-10.64,8.74s-3.54,8.71-.81,12.7a8,8,0,0,0,3.94,3.12c3.25,1.08,6-1.28,9.19-.84-.5-.67-1-1.33-1.51-2,.15,4.36.47,9.23,3.87,12.41a8.89,8.89,0,0,0,4.85,2.39c2.26.28,4.32-1.34,6.34-.61,3,1.09,3,5.59,7.59,4.22,5.12-1.54,4.56-7.24,5.51-11.4.58-2.58-3.39-3.68-4-1.1Z" transform="translate(-328.25 -220.41)"/>
  </g>
</svg>
