<svg id="Layer_1" data-name="Layer 1" xmlns="http://www.w3.org/2000/svg" viewBox="0 0 278.46 74.59">
  <defs>
    <style>
      .cls-1 {
        fill: #231f20;
      }
    </style>
  </defs>
  <title>curiosity</title>
  <g>
    <path class="cls-1" d="M291,309.84c-9.77-4-10.19,11.4-8.63,16.93.92,3.27,2.84,6.78,6.31,7.85a6.39,6.39,0,0,0,7.61-3c1-1.91-1.88-3.61-2.91-1.7-3.11,5.8-7.5-2.52-8.1-5.38s-1.43-14,4.82-11.43c2,.83,2.88-2.43.9-3.24Z" transform="translate(-281.69 -260.34)"/>
    <path class="cls-1" d="M307.4,309c.81,5.53,4.22,13.67,11.39,11.78,7-1.84,6.08-10.23,4.6-15.55a1.69,1.69,0,0,0-3.25.9c.92,3.31,2.71,10.46-2.42,11.41s-6.55-5.86-7.08-9.43c-.31-2.14-3.56-1.23-3.24.89Z" transform="translate(-281.69 -260.34)"/>
    <path class="cls-1" d="M344.31,299.75a180.25,180.25,0,0,1,3.48,19.44c.27,2.12,3.63,2.15,3.37,0a188.85,188.85,0,0,0-3.61-20.33c-.49-2.11-3.74-1.22-3.24.89Z" transform="translate(-281.69 -260.34)"/>
    <path class="cls-1" d="M345.63,299.57a4.07,4.07,0,0,1,6.27.63c1.52,2.46-.34,5.87-2.78,6.88-2,.81-1.11,4.07.9,3.24,4.43-1.82,7.47-7.31,4.79-11.82-2.35-3.95-8.46-4.75-11.56-1.31-1.45,1.6.92,4,2.38,2.38Z" transform="translate(-281.69 -260.34)"/>
    <path class="cls-1" d="M352.25,307.72a21.34,21.34,0,0,0,4.29,5.86c1.55,1.51,3.94-.87,2.38-2.38a18.49,18.49,0,0,1-3.76-5.18c-1-1.94-3.86-.24-2.91,1.7Z" transform="translate(-281.69 -260.34)"/>
    <path class="cls-1" d="M376.47,291.86q1.38,6.58,2.77,13.18c.44,2.12,3.69,1.22,3.24-.9L379.72,291c-.44-2.12-3.69-1.23-3.25.89Z" transform="translate(-281.69 -260.34)"/>
    <path class="cls-1" d="M412.71,284c-10-2.25-12.83,13.1-5.87,18.16,3.22,2.34,7,.71,8.57-2.7,1.84-4.12,1.58-10.08-.85-13.87-1.17-1.82-4.08-.14-2.91,1.7a12,12,0,0,1,1.4,7.74c-.22,2.16-1,5.84-4,4.48-4.66-2.17-3.47-13.65,2.74-12.26,2.11.47,3-2.77.9-3.25Z" transform="translate(-281.69 -260.34)"/>
    <path class="cls-1" d="M443.45,278.05a7.36,7.36,0,0,0-6.61,7.9,7.48,7.48,0,0,0,2.91,5.3c.9.74,2.13,1.1,3,1.85q3.47,1.33-.23,5.75a18.33,18.33,0,0,1-3.69-.68c-2.1-.54-3,2.71-.9,3.24,4,1,11.11,1.35,11.45-4.56.13-2.23-1.29-4.07-2.94-5.39-1.23-1-2.82-1.45-4-2.44-3.49-2.82-2.28-7.14,2-7.72,2.13-.29,1.22-3.54-.9-3.25Z" transform="translate(-281.69 -260.34)"/>
    <path class="cls-1" d="M474.28,276.72q1.44,7.15,2.87,14.3c.43,2.13,3.67,1.23,3.25-.89l-2.87-14.3c-.43-2.12-3.67-1.22-3.25.89Z" transform="translate(-281.69 -260.34)"/>
    <path class="cls-1" d="M512.37,269.54a127,127,0,0,0,13.78-2.7c2.1-.53,1.21-3.78-.89-3.25a124.4,124.4,0,0,1-13.79,2.7c-2.13.3-1.22,3.55.9,3.25Z" transform="translate(-281.69 -260.34)"/>
    <path class="cls-1" d="M515.92,266.84a87.56,87.56,0,0,1,2.69,19.6c0,2.16,3.41,2.17,3.36,0a91.52,91.52,0,0,0-2.8-20.5c-.54-2.09-3.78-1.21-3.25.9Z" transform="translate(-281.69 -260.34)"/>
    <path class="cls-1" d="M543.21,263.26a77.8,77.8,0,0,0,8.42,11.52c1.43,1.63,3.8-.76,2.38-2.38a72.77,72.77,0,0,1-7.89-10.83c-1.11-1.86-4-.17-2.91,1.69Z" transform="translate(-281.69 -260.34)"/>
    <path class="cls-1" d="M556.8,261.49q-4.38,12.08-8.75,24.15c-.74,2,2.51,2.92,3.24.9q4.38-12.07,8.75-24.15c.74-2-2.51-2.92-3.24-.9Z" transform="translate(-281.69 -260.34)"/>
  </g>
</svg>
