<svg id="Layer_1" data-name="Layer 1" xmlns="http://www.w3.org/2000/svg" viewBox="0 0 82.42 70.84">
  <defs>
    <style>
      .cls-1 {
        fill: #fd5967;
      }

      .cls-2 {
        fill: #231f20;
      }
    </style>
  </defs>
  <title>dice</title>
  <g>
    <path class="cls-1" d="M452.94,293.4a1.55,1.55,0,0,0-2.42.38c-.6,1,.08,2.05.82,2.75a.94.94,0,0,0,1.47-.19,3.29,3.29,0,0,0-1.15-4.24,1,1,0,0,0-1.28.33c-1,1.56,1.12,4.05,2.56,2.47,1.11-1.21.12-3.68-1.66-3.26a1.89,1.89,0,0,0-.46,3.41,1.64,1.64,0,0,0,2.29-.79,1.56,1.56,0,0,0-1.33-2.08c-2.24-.15-2.18,3.38,0,3.52,1.2.08,1.19-1.79,0-1.87.1,0,.31.24.19,0,0,0-.62-.45-.37-.45s.12,0,.22.12.05-.1,0-.1c-.32,0-.21,0-.23.18s0,0,0,0,.49-.09.46-.07-.06-.17-.05-.18l-1.28.33a1.38,1.38,0,0,1,.48,1.69l1.47-.19c-.08-.08-.35-.46-.44-.48s-.05-.11-.08,0-.27.22-.52,0c.84.87,2.16-.46,1.32-1.32Z" transform="translate(-379.73 -262.06)"/>
    <path class="cls-1" d="M408,306.63a2.41,2.41,0,0,0-3.86,2.27c.46,2,3.18,2.22,4.4.84,1.6-1.8-.37-4.59-2.54-4.41a3,3,0,0,0-2.13,4.67,2.94,2.94,0,0,0,4.84-.46c.88-1.91-1-4.43-3.13-3.85a2.79,2.79,0,0,0-1.19,4.53,2.71,2.71,0,0,0,4.37-1.83,2.18,2.18,0,0,0-2.25-2.31,1.69,1.69,0,0,0-1.28,2.69,1.78,1.78,0,0,0,2.7,0,1.73,1.73,0,0,0-1.58-2.63c-1.2.07-1.21,1.94,0,1.87.08,0,.07-.2.07-.2.13-.17,0-.18.25-.27-.12.05-.15-.06,0,.23a1.73,1.73,0,0,1,.12.25.63.63,0,0,1,.13.3c0,.44-.76.85-1.13.64-.78-.42.27-2.26,1.11-1s-1.39,1.79-1.66.66a1.2,1.2,0,0,1,.91-1.39c.55-.06,1.37.66,1.06,1.24-.16.31-1,.54-1.19.14s.44-.83.68-.62c.9.79,2.22-.52,1.32-1.32Z" transform="translate(-379.73 -262.06)"/>
    <path class="cls-1" d="M427.2,303.06a2.89,2.89,0,0,0-2.89,4,2.84,2.84,0,0,0,4.8.67,2.89,2.89,0,0,0-1.75-4.64c-2.05-.4-4.3,1.64-3.69,3.76a2.15,2.15,0,0,0,2.62,1.38,3.87,3.87,0,0,0,2.38-2.41,1,1,0,0,0-.14-1.13c-.92-1.17-2.74-1.74-3.82-.43a1.72,1.72,0,0,0,1.1,2.83A1.77,1.77,0,0,0,428,305a2.07,2.07,0,0,0-3.09-1.22,1,1,0,0,0-.19,1.47,1.4,1.4,0,0,0,2.12-.05,1.11,1.11,0,0,0-.72-1.86,1.38,1.38,0,0,0-1.41,1.61c.19.94,1.21,1.21,2,1.19a.94.94,0,0,0,0-1.87c-.27,0-1.94-.06-1.19.77l-.24-.91.73-.2c-.06.49-.13,1-.19,1.47.19-.14.23.1.35.05,0,0,0-.2,0-.22s0,0-.13,0,0,.08,0,.12,0,0,.24,0a1.39,1.39,0,0,1,.86.63c-.05-.38-.09-.75-.14-1.13a3.48,3.48,0,0,1-.9,1.39c-.46.31-.85.16-.65-.42a1.29,1.29,0,0,1,2.28-.39,1,1,0,0,1-1.37,1.31c-1-.66-.24-1.88.78-1.8,1.2.1,1.2-1.77,0-1.87Z" transform="translate(-379.73 -262.06)"/>
    <path class="cls-1" d="M403.55,274.42a2.45,2.45,0,1,0,4.53,1.76.91.91,0,0,0-.24-.91,3.29,3.29,0,0,0-5.22,1.59,1,1,0,0,0,.65,1.15,3.83,3.83,0,0,0,4.3-2.1,1,1,0,0,0-.15-1.13,3.18,3.18,0,0,0-2.87-1.06,2.32,2.32,0,0,0-1.79,2.09c-.06,2,3.14,2.56,3.53.54.23-1.18-1.58-1.68-1.8-.5,0,.09.25-.14.07-.08s.12.09.07.13,0-.19.12-.24c.49-.31,1,.1,1.35.44L406,275a2,2,0,0,1-2.18,1.23l.65,1.15a1.41,1.41,0,0,1,2.1-.75l-.24-.91c-.25.83-1.45.42-1.11-.33.49-1.09-1.12-2-1.62-.94Z" transform="translate(-379.73 -262.06)"/>
    <path class="cls-1" d="M420.33,273.62a2.68,2.68,0,0,0-4.06.43.94.94,0,0,0,.15,1.13,4.72,4.72,0,0,0,6.7.19,1,1,0,0,0,.15-1.13,4.12,4.12,0,0,0-6.51-.49,1,1,0,0,0,0,1.32,3.54,3.54,0,0,0,5.53-.61c.59-1-.36-2-1.36-2.26a2.66,2.66,0,0,0-2.91,1.08.94.94,0,0,0,.15,1.13,1.42,1.42,0,0,0,2.41-.69c.21-1.18-1.59-1.68-1.8-.5l.71-.13.15,1.13a.75.75,0,0,1,1.14,0v-.95a1.63,1.63,0,0,1-2.69.45v1.32a2.23,2.23,0,0,1,3.56.11l.15-1.13a2.84,2.84,0,0,1-4.06-.19c.05.38.1.76.14,1.13a.77.77,0,0,1,1.12-.05c.89.82,2.21-.5,1.33-1.32Z" transform="translate(-379.73 -262.06)"/>
    <path class="cls-1" d="M436.74,272a2.17,2.17,0,0,0-2.64-.42,2.05,2.05,0,0,0-1,2.51,2.35,2.35,0,0,0,2.6,1.6,2.6,2.6,0,0,0,2.05-2.26c.25-2.23-2.89-3.88-4.25-1.81a2.3,2.3,0,0,0,.08,2.67,1.9,1.9,0,0,0,2.54.31c.85-.55,1.54-2.19.42-2.87a1.85,1.85,0,0,0-2.68,1.53.92.92,0,0,0,.47.81,2.31,2.31,0,0,0,1.67.24c1.18-.23.68-2-.5-1.8a.23.23,0,0,1-.23-.06l.46.81c-.08.15-.08.19,0,.12.27-.05.11-.2-.49-.47,0,0-.06.19-.13.14s0,.08-.11,0,0-.38.11-.45.52,0,.66.21c.43.53-.33,1.47-.81.87-.31-.39.2-.65.46-.33.76.93,2.08-.4,1.32-1.33Z" transform="translate(-379.73 -262.06)"/>
    <path class="cls-2" d="M383.45,290.23a183.67,183.67,0,0,1,11.31-15,43.5,43.5,0,0,1,5.25-5.84c3.13-2.54,7.26-2.33,11.06-2.64a389.64,389.64,0,0,1,39.41-1.1l-1.62-2.13q-1.67,4.22-3.35,8.43c-1.34,3.37-2.66,9.14-6.11,10.66-2.66,1.18-6.46.63-9.32.73-3.54.12-7.07.32-10.59.58a274.15,274.15,0,0,0-38.56,5.71c-2.11.46-1.22,3.71.9,3.24A267.36,267.36,0,0,1,431,286.66c4.61-.14,10.26.54,13.34-3.68,3.73-5.1,5.41-12.74,7.73-18.58a1.7,1.7,0,0,0-1.63-2.13c-15.07-.33-30.86-.58-45.81,1.69-5.52.83-8.21,4.09-11.72,8.21a185.94,185.94,0,0,0-12.4,16.36c-1.22,1.79,1.69,3.48,2.9,1.7Z" transform="translate(-379.73 -262.06)"/>
    <path class="cls-2" d="M450,264.79q3,14.46,6,28.9c1,4.73,3.83,11.8,1,16.27-2.49,4-7.49,7.48-10.8,10.79l2.87,1.19a304.1,304.1,0,0,0-4.92-40.24c-.41-2.13-3.65-1.23-3.25.89a295.86,295.86,0,0,1,4.8,39.35,1.71,1.71,0,0,0,2.88,1.19c4-4,8.49-7.82,12.15-12.14,2.76-3.25.69-7.69-.09-11.45q-3.71-17.82-7.42-35.64c-.44-2.12-3.69-1.23-3.24.89Z" transform="translate(-379.73 -262.06)"/>
    <path class="cls-2" d="M384.42,291.4q3.48,20.16,7.25,40.26a1.69,1.69,0,0,0,1.62,1.24c19-.26,38.25-.84,55.88-8.74,2-.88.27-3.78-1.7-2.91-17,7.64-35.84,8-54.18,8.28l1.62,1.24q-3.77-20.11-7.24-40.27c-.37-2.13-3.61-1.22-3.25.9Z" transform="translate(-379.73 -262.06)"/>
  </g>
</svg>
