<svg id="Layer_1" data-name="Layer 1" xmlns="http://www.w3.org/2000/svg" viewBox="0 0 146.02 95.83">
  <defs>
    <style>
      .cls-1 {
        fill: #fd5967;
      }

      .cls-2 {
        fill: #231f20;
      }
    </style>
  </defs>
  <title>rocket</title>
  <g>
    <path class="cls-1" d="M351.56,285.36l1.26,3.72c.32.94,1.93.86,1.84-.25a116.52,116.52,0,0,0-2-13.41l-1.8.49q1.51,6.66,3,13.33c.23,1,1.94.81,1.84-.25l-1.92-20.42-1.74.47c2.75,5.93,4.06,12.26,5.3,18.64.21,1.07,1.8.77,1.84-.25a59.47,59.47,0,0,0-1.06-13.32c-.23-1.2-2-.67-1.8.49a101.43,101.43,0,0,0,3.34,14.31c.25.8,1.67,1,1.8,0,.19-1.37.08-6.26,1-7.32,2.16-2.47,5.4,3.15,6.3,4.41.69,1,2.32,0,1.61-.95-1.5-2.1-4.2-6.87-7.18-6.74-3.72.17-3.21,7.73-3.53,10.11h1.8a101.75,101.75,0,0,1-3.34-14.31l-1.8.49a57.52,57.52,0,0,1,1,12.83l1.83-.25c-1.27-6.55-2.67-13-5.49-19.08a.94.94,0,0,0-1.74.47L353.87,289l1.84-.25-3-13.32c-.27-1.18-2.05-.68-1.8.49a115,115,0,0,1,1.91,12.92l1.83-.25-1.26-3.72c-.39-1.13-2.19-.64-1.8.5Z" transform="translate(-348.12 -249.08)"/>
    <path class="cls-1" d="M402.56,282a30.23,30.23,0,0,0,2.18,4c.39.6,1.6.64,1.71-.22.37-2.7.73-5.41,1.1-8.11h-1.8c.42,2.23.85,4.45,1.28,6.68.16.87,1.68.92,1.8,0a46.8,46.8,0,0,1,3.6-12.79l-1.74-.47a89.14,89.14,0,0,1,.37,13.17c0,1.21,1.8,1.2,1.87,0A135.26,135.26,0,0,1,414.48,270h-1.81a86.34,86.34,0,0,1,1.62,13.22c.06,1.2,1.93,1.2,1.87,0a90.37,90.37,0,0,0-1.68-13.72,1,1,0,0,0-1.81,0,141.86,141.86,0,0,0-1.61,14.69h1.87a89.14,89.14,0,0,0-.37-13.17c-.1-.79-1.32-1.43-1.74-.47A47.7,47.7,0,0,0,407,283.82h1.8c-.43-2.23-.85-4.46-1.28-6.69-.17-.87-1.68-.92-1.8,0-.37,2.7-.74,5.41-1.1,8.11l1.71-.22a30.3,30.3,0,0,1-2.19-4c-.5-1.09-2.11-.14-1.61.94Z" transform="translate(-348.12 -249.08)"/>
    <path class="cls-1" d="M453.31,280.76l3.18,6a1,1,0,0,0,1.71-.23,35.09,35.09,0,0,0,.6-9.15h-1.88c.41,3.77.92,7.51,1.54,11.25.18,1.08,1.8.76,1.84-.25.18-4.19.46-8.29,2-12.24h-1.81A80.61,80.61,0,0,1,462,289.3a.94.94,0,0,0,1.84.25c1.4-4.77-.44-10,1.62-14.58l-1.47.19c1.47,1.31.81,5.69.85,7.51.06,2.52.05,5,0,7.56,0,1.2,1.8,1.19,1.87,0a84.16,84.16,0,0,1,1.84-13.79l-1.83-.25a83.7,83.7,0,0,1-.36,14.16c-.14,1.2,1.73,1.19,1.87,0a83.7,83.7,0,0,0,.36-14.16c-.06-1-1.6-1.33-1.84-.25a87.16,87.16,0,0,0-1.91,14.29h1.87c.07-3.57.05-7.14-.11-10.71-.08-1.91.26-4.3-1.29-5.69a1,1,0,0,0-1.47.19c-2.17,4.85-.34,10.06-1.81,15l1.84.25a83.06,83.06,0,0,0-1.55-13.62c-.2-1-1.51-.78-1.81,0-1.59,4.1-1.87,8.37-2.05,12.73l1.84-.25q-.9-5.36-1.47-10.75c-.13-1.17-2-1.21-1.88,0a32.68,32.68,0,0,1-.52,8.66l1.71-.23q-1.59-3-3.19-6c-.56-1.06-2.17-.12-1.61.95Z" transform="translate(-348.12 -249.08)"/>
    <path class="cls-1" d="M465.83,258.21c0,1.22-.5,4.13,1.11,4.77s3.75-1.47,4.89-2.13l-1.38-.56a10.56,10.56,0,0,1,.26,3.39.94.94,0,0,0,1.4.81c.65-.33,1.75-1.31,2.38-.6.24.28-.35,2.48-.4,2.8a1,1,0,0,0,1.37,1.06,37.7,37.7,0,0,0,3.76-2l-1.4-.81-.21,5.35a.94.94,0,0,0,1.18.9,7.94,7.94,0,0,0,3.58-1.85c.92-.79-.41-2.1-1.32-1.33a4.92,4.92,0,0,1-2.76,1.38l1.19.9.21-5.35a1,1,0,0,0-1.41-.81,37.79,37.79,0,0,1-3.76,2l1.37,1.05c.26-1.84,1.19-4.19-.08-5.76a.9.9,0,0,0-.91-.24,15.63,15.63,0,0,0-3.73,1.69l1.41.8a13.3,13.3,0,0,0-.32-3.88,1,1,0,0,0-1.38-.56c-.63.36-2.11,1.63-2.83,1.63-.59.49-.69.22-.33-.8,0-.62,0-1.24,0-1.86a.94.94,0,0,0-1.87,0Z" transform="translate(-348.12 -249.08)"/>
    <path class="cls-1" d="M472.19,250c0,1.5,0,3,.05,4.48a.94.94,0,0,0,.93.94,9.33,9.33,0,0,0,4.12-1.27l-1.41-.8a15.64,15.64,0,0,0,.5,4.09,1,1,0,0,0,1.38.55l3.88-1.8-1.41-.81c.18,1.95.26,3.89.26,5.85a.93.93,0,0,0,.93.93,12.57,12.57,0,0,0,5.65-1.54l-1.28-.33c.89,1.17-.46,3.12,1.25,3.9s5.13-1.74,6.62-2.45c1.09-.51.14-2.13-.94-1.61-1.36.65-3.81,2.35-4.76,1.23-.27-.32-.15-1.49-.55-2a1,1,0,0,0-1.28-.33,8.32,8.32,0,0,1-4.71,1.28l.94.94c0-2-.08-3.9-.26-5.85a1,1,0,0,0-1.4-.81l-3.89,1.81,1.38.56a9.15,9.15,0,0,1-.44-3.59.94.94,0,0,0-1.4-.81l-3.18,1,.94.93c0-1.49,0-3-.05-4.48a.94.94,0,0,0-1.87,0Z" transform="translate(-348.12 -249.08)"/>
    <path class="cls-2" d="M368.53,342.46q-7.65-26.41-15.31-52.82l-1.17,2.07,10.55-2.09c4.58-.9,5.44-.07,6.95,4.56,2.07,6.31,2.78,13,4.51,19.45a136.91,136.91,0,0,0,6.21,17.91c.44,1,1.84,3.2,1.89,4.37.12,3.13-2.16,3.19-4.32,3.77a60.56,60.56,0,0,1-11.43,1.86c-2.15.16-2.16,3.52,0,3.37a64.34,64.34,0,0,0,13.15-2.22c2.37-.67,5.21-1.26,6.07-3.9,1-3.14-1.77-7.27-2.89-10a134.17,134.17,0,0,1-5-14.34c-2.36-8.31-2.53-18.77-7-26.28-1.12-1.86-2.25-2.66-4.43-2.64-4.85,0-10.38,2-15.16,2.94a1.69,1.69,0,0,0-1.17,2.07q7.65,26.4,15.31,52.81c.6,2.08,3.85,1.19,3.24-.89Z" transform="translate(-348.12 -249.08)"/>
    <path class="cls-2" d="M351.72,289.19a74.73,74.73,0,0,1,1.53-22.12l-2.81.75A64,64,0,0,1,368.72,290c1,1.93,3.87.23,2.91-1.7a66.32,66.32,0,0,0-18.81-22.89,1.7,1.7,0,0,0-2.81.74,77.69,77.69,0,0,0-1.66,23c.17,2.15,3.53,2.16,3.37,0Z" transform="translate(-348.12 -249.08)"/>
    <path class="cls-2" d="M399,286.26q-1.95,9.38-3.91,18.73c-.92,4.39-3.56,10.8-2.91,15.24.55,3.74,5.67,4.33,8.62,5.14,3.23.88,9.28,3.37,12.24.66,3.12-2.86,3.09-10.31,3.79-14.17q1.67-9.25,2.92-18.59c.47-3.47.67-6.12-3-7.36-5.21-1.79-11.84-1.8-17.28-2.19-2.16-.16-2.15,3.2,0,3.36,4.07.3,8.14.71,12.18,1.33,2.18.33,4.21,0,5,2.7.35,1.19-.79,5.75-1,7.3q-.87,5.82-1.9,11.6c-.34,1.92-.69,3.85-1.06,5.77-.18,1-.52,5-1.15,5.76-2.73,3.1-10.26,1.25-13.47-.51-2.94-1.61-2.29-2.9-1.69-5.78l1.17-5.62q2.36-11.24,4.7-22.47c.44-2.12-2.81-3-3.25-.9Z" transform="translate(-348.12 -249.08)"/>
    <path class="cls-2" d="M400.73,287l15-16.78-2.81-.74a110.2,110.2,0,0,0,4.15,18.39c.66,2,3.91,1.18,3.25-.9a111.34,111.34,0,0,1-4.16-18.38,1.69,1.69,0,0,0-2.81-.75l-15,16.78c-1.44,1.61.93,4,2.38,2.38Z" transform="translate(-348.12 -249.08)"/>
    <path class="cls-2" d="M440.58,312.52q-5.85,9.89-11.1,20.11a1.7,1.7,0,0,0,1,2.47A93.93,93.93,0,0,0,445,338.19c2.37.31,6.24,1.46,8.48.09,2.06-1.27,2-4.35,2.42-6.46.8-4.51,1.42-9.06,1.92-13.61a1.69,1.69,0,0,0-2.13-1.63l-10.35,3.87,2.13,1.63c.14-2.73,2.12-10.16-1.26-11.67-3.64-1.62-4.59,3.43-6.34,5s.78,3.84,2.38,2.38c.47-.42,2-2.64,2.06-2.64.33,0-.18,6.4-.2,6.91a1.7,1.7,0,0,0,2.13,1.62l10.35-3.87-2.13-1.62c-.37,3.31-.8,6.62-1.33,9.91-.42,2.59-.18,6.78-3.05,7.21-5.56.85-13.39-1.92-18.71-3.47l1,2.47q5.26-10.21,11.11-20.11a1.69,1.69,0,0,0-2.91-1.7Z" transform="translate(-348.12 -249.08)"/>
    <path class="cls-2" d="M451,282.18l-13.76,12c-1.23,1.06.07,3.43,1.63,2.81l8.46-3.35L445.23,292c-.39,3.35-2.45,14.46,3.49,14.57,2.52.05,4.88-2.69,6.61-4.15l11.7-9.8a1.7,1.7,0,0,0-.34-2.65l-16.54-9.24c-1.89-1.06-3.59,1.85-1.7,2.91L465,292.86c-.11-.88-.23-1.76-.34-2.64-3.87,3.24-7.63,6.8-11.7,9.8a10.66,10.66,0,0,1-4.5,2.69,34.25,34.25,0,0,1-.26-3.92,50.1,50.1,0,0,1,.41-6.81,1.69,1.69,0,0,0-2.13-1.62L438,293.7c.54.94,1.09,1.88,1.64,2.82l13.76-12c1.64-1.42-.75-3.8-2.38-2.38Z" transform="translate(-348.12 -249.08)"/>
    <path class="cls-2" d="M450.38,283.2c2.44-1.39,4.92-2.69,7.46-3.88q2.34-1.1,4.74-2.05c.67-.27,3.22-1.58,3.94-1.47,1.87.3,1,2,.87,3.42l-.43,4.53c-.29,3-.57,6-.86,9.06-.2,2.16,3.16,2.14,3.37,0q.67-7.17,1.36-14.34c.21-2.21.77-5.11-1.85-6.09s-6.3,1.22-8.59,2.17a103,103,0,0,0-11.7,5.74c-1.89,1.07-.19,4,1.69,2.91Z" transform="translate(-348.12 -249.08)"/>
    <path class="cls-2" d="M356.41,306.5l15.72-4.05a.93.93,0,0,0-.5-1.8l-15.72,4.05a.93.93,0,0,0,.5,1.8Z" transform="translate(-348.12 -249.08)"/>
    <path class="cls-2" d="M363.07,323.88a62.75,62.75,0,0,0,13.51-6.38c1-.64.08-2.26-.95-1.62a60.59,60.59,0,0,1-13.06,6.2c-1.13.38-.65,2.18.5,1.8Z" transform="translate(-348.12 -249.08)"/>
    <path class="cls-2" d="M399.56,297.34l8,.88c2,.22,7.4,0,9,1.39.89.81,2.21-.51,1.32-1.32-1.78-1.62-4.66-1.33-6.93-1.58l-11.39-1.24c-1.2-.13-1.19,1.74,0,1.87Z" transform="translate(-348.12 -249.08)"/>
    <path class="cls-2" d="M396.21,311.35l21.29,2.49c1.2.14,1.19-1.74,0-1.87l-21.29-2.49c-1.19-.14-1.18,1.73,0,1.87Z" transform="translate(-348.12 -249.08)"/>
    <path class="cls-2" d="M446.47,290.58a68.15,68.15,0,0,0,10.59,9.56c1,.71,1.91-.91.94-1.61a65.53,65.53,0,0,1-10.2-9.28c-.81-.89-2.13.43-1.33,1.33Z" transform="translate(-348.12 -249.08)"/>
    <path class="cls-2" d="M438.19,322l17.65,6.93c1.12.44,1.61-1.37.5-1.81l-17.65-6.92c-1.12-.44-1.61,1.37-.5,1.8Z" transform="translate(-348.12 -249.08)"/>
    <path class="cls-2" d="M358.65,310.22a86.16,86.16,0,0,1,13.77-3.54c1.18-.2.68-2-.5-1.8a85.77,85.77,0,0,0-13.76,3.54c-1.13.39-.65,2.2.49,1.8Z" transform="translate(-348.12 -249.08)"/>
    <path class="cls-2" d="M359.15,316.58a67.88,67.88,0,0,1,15.49-5.92.93.93,0,0,0-.5-1.8A70,70,0,0,0,358.2,315c-1.06.57-.12,2.18.95,1.62Z" transform="translate(-348.12 -249.08)"/>
    <path class="cls-2" d="M360.74,319.83a109.53,109.53,0,0,0,13.47-4.91c1.1-.48.14-2.09-.95-1.61a107.48,107.48,0,0,1-13,4.72.93.93,0,0,0,.49,1.8Z" transform="translate(-348.12 -249.08)"/>
    <path class="cls-2" d="M399.6,300.93l18.32,2.66c1.17.17,1.68-1.63.49-1.8l-18.32-2.66c-1.17-.17-1.68,1.63-.49,1.8Z" transform="translate(-348.12 -249.08)"/>
    <path class="cls-2" d="M396.84,304.85q10.59.82,21.1,2.31c1.18.16,1.69-1.64.5-1.81q-10.77-1.52-21.6-2.37c-1.2-.09-1.2,1.78,0,1.87Z" transform="translate(-348.12 -249.08)"/>
    <path class="cls-2" d="M398,309.16l19.45.2a.94.94,0,0,0,0-1.87l-19.45-.2a.94.94,0,0,0,0,1.87Z" transform="translate(-348.12 -249.08)"/>
    <path class="cls-2" d="M446.18,295.63a29.32,29.32,0,0,0,9,6.66c1.08.52,2-1.1.95-1.62a28,28,0,0,1-8.59-6.36c-.81-.89-2.13.43-1.32,1.32Z" transform="translate(-348.12 -249.08)"/>
    <path class="cls-2" d="M439.85,319.72a12.35,12.35,0,0,1,4.76,1c1.09.49,2.05-1.13.95-1.61a14.61,14.61,0,0,0-5.71-1.27.94.94,0,0,0,0,1.87Z" transform="translate(-348.12 -249.08)"/>
    <path class="cls-2" d="M449.48,322.22a22.2,22.2,0,0,0,8.07,3.1c1.18.2,1.69-1.6.5-1.8a21,21,0,0,1-7.63-2.91c-1-.64-2,1-.94,1.61Z" transform="translate(-348.12 -249.08)"/>
  </g>
</svg>
