<svg id="Layer_1" data-name="Layer 1" xmlns="http://www.w3.org/2000/svg" viewBox="0 0 118.84 152.85">
  <defs>
    <style>
      .cls-1 {
        fill: #fd5967;
      }

      .cls-2 {
        fill: #231f20;
      }
    </style>
  </defs>
  <title>hand</title>
  <g>
    <path class="cls-1" d="M412.11,328.88c-1.23-5.57-4.16-10.31-6.23-15.57-1.24-3.16-2.84-7.51-1.65-10.88q.09-4.76,6.71-.8l.9,1.61c1.32,1.7,2.19,4.62,2.92,6.5a1,1,0,0,0,1.37.56c2.78-1.88,3.71-4.48,5.67-7.08q3.45-6.2,8.55.57a14.63,14.63,0,0,1,.37,4.22,18,18,0,0,1-2.2,7.36c-4.37,8.31-12.85,10.83-19.15,17a.94.94,0,0,0,1.33,1.32c5-4.91,11.67-7.27,16.25-12.73,3.38-4,5.85-9.11,5.65-14.47-.13-3.57-1.53-8.43-5.83-8.65-5.95-.29-7.66,8.16-11.58,10.8l1.37.56c-1.45-3.74-8-19-13.29-10.19-5.47,9.17,5.14,21.77,7,30.33.26,1.18,2.07.68,1.8-.5Z" transform="translate(-361.23 -221.6)"/>
    <path class="cls-1" d="M405.88,299.77a6.55,6.55,0,0,1-1.59,5.9c-.62.78.16,2.06,1.14,1.47a38.39,38.39,0,0,0,4.19-2.94l-1.56-.91-3.89,9.3c-.38.91.95,1.51,1.57.91l6.06-5.88-1.57-.91a71.53,71.53,0,0,1-4.55,10.48c-.47.89.76,2,1.47,1.14l9-10.79-1.56-.91a70.09,70.09,0,0,1-6.08,17.68c-.45.89.78,2,1.47,1.14l17.61-22.75-1.47-1.13a225.33,225.33,0,0,1-13,25.88l1.62.95a105,105,0,0,1,15-20.16l-1.47-1.14-8,15.25a1,1,0,0,0,1.06,1.37,18.09,18.09,0,0,0,7.94-3.37c1-.7,0-2.32-.94-1.61a17.47,17.47,0,0,1-7.5,3.18l1.06,1.37,8-15.24c.48-.91-.71-1.94-1.47-1.13a107.93,107.93,0,0,0-15.26,20.53.94.94,0,0,0,1.62.95,225.47,225.47,0,0,0,13-25.89c.37-.86-.76-2.05-1.47-1.13l-17.62,22.74,1.47,1.14a71.89,71.89,0,0,0,6.27-18.13c.17-.83-.91-1.68-1.56-.91l-9,10.78,1.47,1.14A76.25,76.25,0,0,0,412,307.2c.31-.91-.93-1.52-1.57-.9l-6.06,5.88,1.57.91,3.88-9.3c.41-1-.94-1.41-1.56-.91a24.49,24.49,0,0,1-3.82,2.64l1.14,1.47a8.79,8.79,0,0,0,2.13-7.22c-.15-1.18-2-1.19-1.87,0Z" transform="translate(-361.23 -221.6)"/>
    <path class="cls-2" d="M386.78,345.16a145.26,145.26,0,0,1-18.26-40.36c-1.35-4.89-5.18-14.4-2.7-19.29,3.88-7.69,15.68,11.73,17.29,14.94.91,1.81,3.92,1,3.83-1A240.09,240.09,0,0,1,389.7,249c.43-2.62.37-8.84,2.41-10.64,4-3.52,6.39,8.62,6.9,10.46a132.62,132.62,0,0,1,4.3,24.38c.22,2.6,4.1,2.69,4.11,0a116.35,116.35,0,0,1,2.23-22.65c1.41-6.91,3.08-15.07,6.61-21.26,3.74-6.55,5.93.22,7,4.09,1,3.58,1.85,7.2,2.62,10.83a201.33,201.33,0,0,1,3.5,23.31c.18,1.87,2.81,3,3.84,1a148,148,0,0,1,7.62-13c1.31-2,2.65-3.93,4.07-5.82.82-1.1,1.76-2.83,3-3.51,2-1.1,3.62.21,4.5,2.09,1.1,2.34.84,6.62,1.09,9.25s.44,5.24.59,7.87c.32,5.92.36,11.84.2,17.76-.06,2.22,2.71,2.56,3.83,1,3-4,7.71-10.38,12.49-12.4,7.16-3,5.39,10.93,4.65,14.88-2,11-7.74,21-13.37,30.53-9.77,16.57-20.87,36.13-13.54,55.78.92,2.46,4.9,1.39,4-1.09-10.05-27,15.26-50.84,24.1-74.29A53.1,53.1,0,0,0,480,280.63c.1-3.75.29-10.37-2.91-13.11-7-6-19.27,10.24-22.56,14.67l3.83,1a210.85,210.85,0,0,0-.79-25.63c-.42-4.46.17-13.93-4.77-16.34-4.25-2.08-8.06,2-10.43,5a138.16,138.16,0,0,0-12.75,20.22l3.84,1a210.19,210.19,0,0,0-5.11-30.74c-1.14-4.62-2.52-17.59-10.26-14.82-7,2.52-9.14,14.39-10.78,20.5a119.92,119.92,0,0,0-4,30.74h4.11a137.37,137.37,0,0,0-6.28-31.54c-1.57-4.74-6.28-13.12-11.74-6.62-2.63,3.13-2.87,8.12-3.51,11.93-.92,5.47-1.66,11-2.21,16.49a246.3,246.3,0,0,0-.85,35.93l3.83-1a58.48,58.48,0,0,0-7.78-11.84c-2.46-2.88-5.88-7.25-10-7.69-6.35-.68-8.05,7.06-7.63,11.89.82,9.53,4.19,19.43,7.58,28.32a151.43,151.43,0,0,0,14.36,28.19c1.43,2.21,5,.15,3.55-2.08Z" transform="translate(-361.23 -221.6)"/>
  </g>
</svg>
