<svg id="Layer_1" data-name="Layer 1" xmlns="http://www.w3.org/2000/svg" viewBox="0 0 232.93 74.41">
  <defs>
    <style>
      .cls-1 {
        fill: #fd5967;
      }

      .cls-2 {
        fill: #231f20;
      }
    </style>
  </defs>
  <title>heart</title>
  <g>
    <path class="cls-1" d="M336.92,313.06a11,11,0,0,1-6.61-3.19c-.26-.27-1.15-1-1.15-1.39,0-1,1.3-.94,1.86-.68a8.91,8.91,0,0,1,3,2.38.94.94,0,0,0,1.56-.41,6.84,6.84,0,0,0,.17-2.47,7.09,7.09,0,0,1-.16-1.59q-.4-1.21.63-.54c.69,0,.94.36.73,1.08.66,2.47-.15,5.95-.69,8.34l1.15-.65a14,14,0,0,1-7.71-5.52c-.43.42-.86.85-1.28,1.28l6.87,3.6a.94.94,0,0,0,1.37-1.05,22.45,22.45,0,0,1-.47-5h-1.87a17.38,17.38,0,0,0,1.15,6c.42,1.12,2.23.64,1.8-.49a16.32,16.32,0,0,1-1.08-5.52.94.94,0,0,0-1.87,0,24.38,24.38,0,0,0,.54,5.52l1.37-1.05-6.87-3.61c-.77-.4-1.85.46-1.28,1.28a16.09,16.09,0,0,0,8.84,6.38.94.94,0,0,0,1.15-.65,31,31,0,0,0,.8-8c-.06-1.44.1-4.1-1.5-4.89a2.5,2.5,0,0,0-2.92.93c-1.56,1.91-.08,4-.67,6.12l1.56-.41c-1.32-1.54-3.24-3.13-5.35-3.31-1.33-.1-2.87.46-3,2-.17,1.82,2,3.75,3.25,4.73a13.11,13.11,0,0,0,6.72,2.67c1.19.14,1.18-1.73,0-1.87Z" transform="translate(-303.88 -260.23)"/>
    <path class="cls-1" d="M506.44,293.8c-1.11-1.14-2.19-2.29-3.22-3.49-.26-.31-1.55-1.51-1.49-1.83.8-1,1.33-1.08,1.58-.37a6.81,6.81,0,0,1,.46.94c.48,1,1.86.24,1.71-.72a5.81,5.81,0,0,1,2.25-5.66l-1.28-.34a11.14,11.14,0,0,1,.62,8.08c-.31,1-.27,1.59-1.31,1.45-.86-.11-1-.63-1.51-1.27l-2.49-3.39-1.47,1.13a33.62,33.62,0,0,0,4.81,3.94.94.94,0,0,0,1.28-.33,11.12,11.12,0,0,0,1.16-7.89c-.25-1.18-2.05-.68-1.81.49a9,9,0,0,1-1,6.45l1.28-.33a32.23,32.23,0,0,1-4.42-3.65c-.73-.72-2.12.25-1.47,1.13,1.32,1.8,2.66,4.59,4.45,5.94a2.09,2.09,0,0,0,3-.49c2.7-3.24,2.06-8.69.43-12.2a.94.94,0,0,0-1.28-.34,7.82,7.82,0,0,0-3.1,7.78l1.7-.73c-.85-1.84-3.78-4.87-5.62-2.09-1.94,2.95,3.69,7.4,5.36,9.11.84.87,2.16-.46,1.32-1.32Z" transform="translate(-303.88 -260.23)"/>
    <path class="cls-2" d="M312.85,297.69l-.3-.53a1.68,1.68,0,0,0-1.45-.83c-6.22.16-7.23,12.4-7.22,16.86,0,6,1.74,16.76,8.09,19.52,6,2.62,8.69-4.18,8.57-9-.22-9.31-3.86-18.73-8.58-26.63-.33.82-.67,1.64-1,2.47l39.62-5.6-2.07-1.17c1.54,4.78,2.9,9.6,4,14.5.78,3.43,2.44,7.8-.59,10.88-1.48,1.5-4.85,2.08-6.87,2.91q-13.55,5.53-27.4,10.2c-2.05.69-1.17,3.94.89,3.24q9.82-3.32,19.51-7.05c5.17-2,11.46-3.66,16.12-6.73,3.27-2.15,3.29-5.26,2.74-8.82a132.35,132.35,0,0,0-5.16-20,1.75,1.75,0,0,0-2.07-1.17l-39.63,5.59a1.7,1.7,0,0,0-1,2.47,58.49,58.49,0,0,1,6,13.31c1.1,3.69,3.63,10.71,1.93,14.42q0,2.36-3,1-2.43,1.23-3.16-.55c-.74-.7-1.22-2.44-1.56-3.32a29.11,29.11,0,0,1-1.88-8,28.3,28.3,0,0,1,.29-7.06c.31-1.92,3.1-7.74,2.3-9.17,1.06,1.89,4,.2,2.91-1.7Z" transform="translate(-303.88 -260.23)"/>
    <path class="cls-2" d="M356,305.05c7.27-7.71,18.82-6.05,28.36-5.17,5.38.49,15.16.44,14.22-7.54-.57-4.93-6.67-6.9-9-2.08-3.14,6.42,3.71,13.48,9,15.91a18,18,0,0,0,20.33-4.11c3.5-3.71,6.7-13-.23-15.19-5-1.57-9.4,3.47-6,7.78,5.21,6.59,15.09,2.68,22.05,3.75a12.2,12.2,0,0,1,8.52,5.47,13.13,13.13,0,0,1,1.49,3.2,10.51,10.51,0,0,1,.49,3.48l-3.84-.74c-2.54-3.51,3.7-8.89,6.09-10.1,3.23-1.63,7-1.77,10.52-1.76,9.34,0,20,1.24,26-7.63,1.21-1.8-1.71-3.49-2.91-1.69-9.12,13.64-30.86-.85-40.87,12.93-2.56,3.54-3.59,9-.06,12.25,2.74,2.54,7.18,2.5,8.29-1.57,1.35-4.95-1.95-10.8-5.62-13.85-4.72-3.92-10.42-3.66-16.21-3.33-2.94.16-9.43.87-11.14-2.31-1.22-2.27,2.59-6.63,4,.5.2,1-.52,2.57-.92,3.43a13.17,13.17,0,0,1-5.58,5.79,14.12,14.12,0,0,1-12.85.65,14.9,14.9,0,0,1-5.2-3.76c-1.06-1.22-4-5.44-2.47-7.27.88-1,4.35-1.09,2.76,2-.93,1.81-3.94,2.66-5.8,2.73a44,44,0,0,1-5.72-.39,109.55,109.55,0,0,0-11.6-.66c-6.92.11-13.55,1.71-18.43,6.89-1.49,1.57.89,4,2.38,2.38Z" transform="translate(-303.88 -260.23)"/>
    <path class="cls-2" d="M524.77,263.6A28.78,28.78,0,0,0,518,281.13c-.12,5.08,1.1,12,6.11,14.59,4.67,2.44,9.58-.78,11.38-5.22,2.51-6.16,1-14.23-1.45-20.15-1.65-4-4.54-10.7-9.87-10.08-3.63.42-7.35,3.07-10.58,4.61l-13.34,6.38c-4.14,2-8.3,3.94-12.44,5.95-2.49,1.2-5.27,2.49-6.44,5.18-1,2.25-.44,4.82-.1,7.14.56,4,.8,9.11,2.65,12.71,2.93,5.71,13.41,5.23,18.68,4.53,9.57-1.29,18.13-6,26.45-10.59,1.9-1.05.2-3.95-1.69-2.9-5.52,3.06-11.07,6.17-17.07,8.21s-15.21,4.07-21.11.86c-3.11-1.69-3.33-5.85-3.93-9.16-.73-4-2.13-8.76,1.58-11.71,2.42-1.93,6.11-3,8.9-4.34l8.89-4.25,8.89-4.25c2.59-1.24,6.07-3.78,8.89-4.25,3.24-.54,4.7.23,6.32,2.87a29.23,29.23,0,0,1,2.39,4.74,31,31,0,0,1,2.08,9.15c.2,2.88.33,6.84-1.41,9.33-5.25,7.48-9.65-1.42-10.21-5.72A24.74,24.74,0,0,1,527.15,266c1.35-1.67-1-4.06-2.38-2.38Z" transform="translate(-303.88 -260.23)"/>
  </g>
</svg>
