<svg id="Layer_1" data-name="Layer 1" xmlns="http://www.w3.org/2000/svg" viewBox="0 0 266.59 28.52">
  <defs>
    <style>
      .cls-1 {
        fill: #231f20;
      }
    </style>
  </defs>
  <title>imagination</title>
  <g>
    <path class="cls-1" d="M287.34,285.3a114.73,114.73,0,0,0,.45,18.72c.23,2.13,3.6,2.16,3.37,0a114.73,114.73,0,0,1-.45-18.72c.12-2.16-3.25-2.16-3.37,0Z" transform="translate(-287.15 -283.68)"/>
    <path class="cls-1" d="M311,302.47a33.77,33.77,0,0,1,.88-13.53l-2.81.74,6.63,6.56a1.7,1.7,0,0,0,2.64-.34l6.55-9.15-3.08-.41a135.27,135.27,0,0,1,2.09,16.16c.15,2.15,3.52,2.16,3.37,0a143.77,143.77,0,0,0-2.21-17.05c-.3-1.56-2.31-1.47-3.08-.4l-6.55,9.15,2.65-.34-6.63-6.56a1.7,1.7,0,0,0-2.82.74,36.43,36.43,0,0,0-1,14.43c.28,2.12,3.65,2.15,3.37,0Z" transform="translate(-287.15 -283.68)"/>
    <path class="cls-1" d="M345.26,306.7a64.54,64.54,0,0,1,6.49-17.35l-3.08-.4q3.22,8.93,6.46,17.83c.73,2,4,1.15,3.24-.89l-6.45-17.83a1.71,1.71,0,0,0-3.08-.4A68,68,0,0,0,342,305.8c-.46,2.11,2.78,3,3.25.9Z" transform="translate(-287.15 -283.68)"/>
    <path class="cls-1" d="M343.56,299.69h9a1.68,1.68,0,0,0,0-3.36h-9a1.68,1.68,0,0,0,0,3.36Z" transform="translate(-287.15 -283.68)"/>
    <path class="cls-1" d="M381.19,288.59c-4.94.83-9.59,4.34-10.49,9.5a10.22,10.22,0,0,0,5.63,10.9,8.61,8.61,0,0,0,11-4.43c.81-1.77,1.14-4.46-.11-6.15s-3.85-.45-5-1.65c-1.52-1.55-3.9.83-2.38,2.38s4.94.57,4.75,3.28c-.25,3.49-5.3,4.6-7.73,3.05a7,7,0,0,1-2.56-7.9c1.2-3.37,4.48-5.17,7.81-5.74,2.13-.36,1.23-3.6-.9-3.24Z" transform="translate(-287.15 -283.68)"/>
    <path class="cls-1" d="M397.23,294.27v11.22a1.68,1.68,0,0,0,3.36,0V294.27a1.68,1.68,0,0,0-3.36,0Z" transform="translate(-287.15 -283.68)"/>
    <path class="cls-1" d="M420.79,310q.06-6,.11-12l-2.53,1.45A68.88,68.88,0,0,1,429,306.9a1.71,1.71,0,0,0,2.88-1.19q.09-6.09.2-12.19c0-2.16-3.33-2.16-3.37,0q-.1,6.11-.2,12.19l2.87-1.19a73.74,73.74,0,0,0-11.3-8,1.69,1.69,0,0,0-2.53,1.45l-.12,12c0,2.17,3.35,2.17,3.37,0Z" transform="translate(-287.15 -283.68)"/>
    <path class="cls-1" d="M445.63,308.23l5.13-19.45-3.08.4a55.29,55.29,0,0,1,7.09,17.49c.47,2.12,3.71,1.22,3.25-.89a58.2,58.2,0,0,0-7.43-18.3,1.71,1.71,0,0,0-3.08.41q-2.56,9.72-5.12,19.44c-.56,2.1,2.69,3,3.24.9Z" transform="translate(-287.15 -283.68)"/>
    <path class="cls-1" d="M444.54,302.69h9.72a1.69,1.69,0,0,0,0-3.37h-9.72a1.69,1.69,0,0,0,0,3.37Z" transform="translate(-287.15 -283.68)"/>
    <path class="cls-1" d="M467.72,294.43a79.06,79.06,0,0,0,11.72-2.09c2.1-.54,1.21-3.78-.89-3.24a73.89,73.89,0,0,1-10.83,2c-2.13.22-2.15,3.59,0,3.36Z" transform="translate(-287.15 -283.68)"/>
    <path class="cls-1" d="M474.64,290.89Q473,299.47,471.38,308c-.4,2.12,2.85,3,3.25.9q1.64-8.58,3.26-17.15c.4-2.12-2.84-3-3.25-.9Z" transform="translate(-287.15 -283.68)"/>
    <path class="cls-1" d="M495.53,290.14,492.2,305c-.47,2.11,2.77,3,3.25.89q1.67-7.44,3.32-14.88c.48-2.11-2.77-3-3.24-.9Z" transform="translate(-287.15 -283.68)"/>
    <path class="cls-1" d="M518.58,294.91c-5.73-5.48-17.07,0-12.65,8.06,1.77,3.21,5.7,5,9.08,3.1,3.65-2,4.59-6.56,5.09-10.34.28-2.14-3.08-2.11-3.37,0s-.73,4.63-2.12,6.35c-1.61,2-4.09,1.69-5.49-.34-3.18-4.61,3.86-7.53,7.08-4.45,1.57,1.5,3.95-.88,2.38-2.38Z" transform="translate(-287.15 -283.68)"/>
    <path class="cls-1" d="M532.6,305.86c.46-2.12.94-4.25,1.48-6.36.08-.33.59-3.09.84-3.15.52-.12,1.67,2.42,1.92,2.84q3.72,6.1,7.43,12.2a1.71,1.71,0,0,0,3.08-.4q3.66-9.89,6.33-20.06c.55-2.1-2.7-3-3.24-.9q-2.69,10.2-6.34,20.06l3.08-.4-7-11.48c-1.09-1.79-2.27-4.68-4.55-5.29-5.2-1.4-5.63,9-6.29,12.05-.45,2.11,2.79,3,3.25.89Z" transform="translate(-287.15 -283.68)"/>
  </g>
</svg>
