<svg id="Layer_1" data-name="Layer 1" xmlns="http://www.w3.org/2000/svg" viewBox="0 0 204.34 70.54">
  <defs>
    <style>
      .cls-1 {
        fill: #231f20;
      }
    </style>
  </defs>
  <title>joyful</title>
  <g>
    <path class="cls-1" d="M326.43,265.59q9.39,2,18.94,3.12c2.15.25,2.14-3.12,0-3.36q-9.11-1.05-18.05-3c-2.11-.46-3,2.78-.89,3.24Z" transform="translate(-318.45 -262.3)"/>
    <path class="cls-1" d="M333.8,265.61c-.58,4.06-.42,8.45-2.09,12.25-.88,2-2.41,4.22-4.66,4.77s-5.2-.88-5.24-3.5c0-2.16-3.4-2.17-3.36,0,.08,5.34,6,8.38,10.67,6.29,7.27-3.21,7-12.33,7.92-18.92.3-2.12-2.94-3-3.24-.89Z" transform="translate(-318.45 -262.3)"/>
    <path class="cls-1" d="M376.5,281.94c-1.88-3.81-6.69-4.37-10-2.07a10.26,10.26,0,0,0-4.25,10.07,6.34,6.34,0,0,0,7.57,5.28c5-1.05,6.88-6,7.82-10.38.45-2.11-2.79-3-3.24-.9-.5,2.34-1.05,5-2.89,6.73s-5.09,1.87-5.89-1c-1.15-4.17,5.24-11.53,8-6,1,1.94,3.86.24,2.91-1.7Z" transform="translate(-318.45 -262.3)"/>
    <path class="cls-1" d="M400.75,284.26a37,37,0,0,0,5.34,12.27c1.2,1.79,4.12.11,2.91-1.69a34.35,34.35,0,0,1-5-11.47c-.49-2.11-3.74-1.22-3.25.89Z" transform="translate(-318.45 -262.3)"/>
    <path class="cls-1" d="M413.41,285.87a114.58,114.58,0,0,1-13.7,20.21c-1.4,1.65,1,4,2.38,2.38a118.23,118.23,0,0,0,14.22-20.89c1-1.91-1.88-3.61-2.9-1.7Z" transform="translate(-318.45 -262.3)"/>
    <path class="cls-1" d="M440.52,313.09l1.08-12.5c.16-1.77-.34-5.42,1.88-6.17,1.46-.49,4.71,1.44,5.91,2,1.93,1,3.64-1.93,1.7-2.91-2.74-1.38-10-5-12-.82-1,2.09-.7,5.59-.89,7.86l-1.08,12.5c-.19,2.16,3.18,2.15,3.36,0Z" transform="translate(-318.45 -262.3)"/>
    <path class="cls-1" d="M439,307l9.77,1.18c2.14.26,2.12-3.1,0-3.36L439,303.67c-2.14-.26-2.12,3.1,0,3.36Z" transform="translate(-318.45 -262.3)"/>
    <path class="cls-1" d="M477.6,302.35c-2,4.71-5.41,16.75,1.55,19.34,7.3,2.7,11.68-10.71,13.23-15.46.67-2.06-2.58-3-3.25-.89a47.89,47.89,0,0,1-3,7.19c-1.12,2.16-3.16,6.87-5.95,5.45-4.09-2.09-.68-11.58.62-14.73.83-2-2.43-2.88-3.24-.9Z" transform="translate(-318.45 -262.3)"/>
    <path class="cls-1" d="M515.53,313.77l-5.23,13.39a1.72,1.72,0,0,0,1.17,2.07l9.28,3.5c2,.77,2.9-2.49.89-3.25L512.37,326l1.17,2.07q2.63-6.71,5.23-13.4c.79-2-2.46-2.89-3.24-.89Z" transform="translate(-318.45 -262.3)"/>
  </g>
</svg>
