<svg id="Layer_1" data-name="Layer 1" xmlns="http://www.w3.org/2000/svg" viewBox="0 0 78.34 154.53">
  <defs>
    <style>
      .cls-1 {
        fill: #fd5967;
      }

      .cls-2 {
        fill: #231f20;
      }
    </style>
  </defs>
  <title>lolipop</title>
  <g>
    <path class="cls-1" d="M422.63,252.18c5.73-1.73,12.23,1.72,12.33,8.19.1,7-6.55,10.19-12.7,9.4-8.58-1.11-15.74-8.35-17.44-16.74-1.81-9,3.11-18.33,10.84-22.93s17.45-3.65,24.79,1.18c8.45,5.56,11.41,15.58,12.34,25.15.74,7.68.54,16-2.7,23.12-7.33,16.12-31.8,14.65-44.64,6.2-17.07-11.23-15.94-42.77,1.43-53.24l-.95-1.62c-9.78,6.06-21.37,15.48-23.27,27.6s9.17,19.13,18.21,24.31c10,5.72,24.78,13.24,36.59,10.1,11.12-3,17.77-15.2,19.34-25.84a37.35,37.35,0,0,0-9.72-31c-6.61-7-18.12-13.8-28-10-9.16,3.5-18.54,14.43-19.54,24.3s6.43,19.31,16,21.52a24.45,24.45,0,0,0,16.49-2.27c3.92-2,9-6.06,8.47-11.1s-7.73-7.08-11.85-7.9c-5-1-9.93.18-12.75,4.64-.41.65.28,1.68,1,1.38,5.07-2,11.11-3.65,16-.33,2.35,1.59,4.36,4.62,3.83,7.59-.68,3.81-4,5.59-7.5,6.5-4.12,1.08-9.13,1.55-13.24.18-5.79-1.93-8.13-7.8-8.9-13.35C406,248,408,237.76,416.72,233a23.85,23.85,0,0,1,23.7.57c14.8,9.27,21.07,37.15,5.08,48.24-13.41,9.32-38,11.29-50.29-.74-7.16-7-9.59-18.2-6.45-27.64,3.29-9.91,12-17,21.94-19.5l-.72-1.7c-11.35,7.18-21.59,18.55-20.66,32.9.82,12.85,11.26,21.66,22.26,26.62,10.59,4.78,25.53,8.89,35.59.81S459.53,268.8,457,257c-3.26-14.94-15-26.5-29.63-30.52a.93.93,0,0,0-.49,1.8c15.33,4.22,27.11,17.07,29,33s-6.17,35-24.71,33.8c-13.3-.85-29.87-7.9-36.78-19.85-9.37-16.2,3.08-32.89,16.61-41.46a.94.94,0,0,0-.72-1.71c-21,5.35-33.09,31-17.79,48.7,7.5,8.66,19.54,11,30.47,10,10.25-.92,23-4,29.29-12.95,12.08-17.19-.33-47.67-21.71-49.51-9.21-.8-19.13,3.33-23.15,12-3.85,8.32-3.71,22.51,3.51,29.15,6.19,5.7,24,5.55,27.51-3.54,1.59-4.14-.68-8.8-4.12-11.26-5.25-3.75-12.17-2.13-17.68.06l1.06,1.38c3.46-5.47,11.89-4.86,16.84-1.67,1.49,1,4.16,4.1,4,6.2-.09,1.26-1.79,3.22-2.72,4.13a20.54,20.54,0,0,1-7.05,4.24c-8.82,3.28-19.09.82-24.36-7.27C398.53,252.91,402.38,243,409,236a36.16,36.16,0,0,1,9-7.41c5.81-3.05,12.3-1.45,17.85,1.39a35.84,35.84,0,0,1,16.42,45.9c-4.24,9.84-12.49,17-23.7,15.51-9.36-1.28-18.71-5.5-26.84-10.17-9.16-5.25-20-12.3-16.84-24.46,2.73-10.53,13.11-18.76,21.91-24.21a.94.94,0,0,0-.95-1.62c-17.6,10.62-19.83,41.86-3.73,54.8,8.48,6.82,21.09,8.85,31.67,7.51,10.3-1.3,17.06-8,19.68-17.91,5.1-19.25-1.07-48.08-24.79-50-21.13-1.7-34.73,24.52-19.32,40,6.23,6.24,20,10.54,25.71,1.22,5.58-9.07-3.38-19-13-16.12a.94.94,0,0,0,.5,1.81Z" transform="translate(-382.45 -220.65)"/>
    <path class="cls-1" d="M403.35,254.68a144.59,144.59,0,0,1-5.25,20.9l1.8.49,3.36-11c.31-1-1.28-1.7-1.7-.72q-4.08,9.43-8.15,18.85l1.71.73a125.22,125.22,0,0,1,5.95-15.42l-1.74-.48a42.84,42.84,0,0,1-.51,7.32l-.38,1.86a6.59,6.59,0,0,0-.23,4.34c.43-1.13-1.38-1.62-1.8-.5l-.16.41a1,1,0,0,0,.43,1.06l.45.3a.89.89,0,0,0,.94,0c3.43-2.44,3.14-11.06,3.13-14.79,0-.87-1.34-1.34-1.75-.47a130.35,130.35,0,0,0-6.13,15.87c-.31,1,1.28,1.7,1.71.72l8.14-18.85-1.71-.72-3.36,11c-.35,1.15,1.43,1.63,1.8.49a145.81,145.81,0,0,0,5.26-20.89c.2-1.18-1.6-1.68-1.81-.5Z" transform="translate(-382.45 -220.65)"/>
    <path class="cls-1" d="M417.19,268.34a112.61,112.61,0,0,1-1.49,18.15c-.19,1.17,1.58,1.69,1.8.49a48.39,48.39,0,0,0,.78-10.88.94.94,0,0,0-1.87,0l.21,12.19a.94.94,0,0,0,1.84.25,56,56,0,0,0,1.48-13h-1.87q.92,7.29,1.82,14.56c.15,1.18,2,1.19,1.87,0q-.9-7.27-1.82-14.56c-.14-1.15-1.87-1.24-1.87,0a53,53,0,0,1-1.42,12.54l1.84.24-.21-12.19h-1.87a45.86,45.86,0,0,1-.71,10.39l1.8.49a115.21,115.21,0,0,0,1.56-18.64.94.94,0,0,0-1.87,0Z" transform="translate(-382.45 -220.65)"/>
    <path class="cls-1" d="M430.82,271a29.93,29.93,0,0,0,6.25,12.1,1,1,0,0,0,1.6-.66,19.45,19.45,0,0,0-6-13,.94.94,0,0,0-1.47,1.13,82.29,82.29,0,0,0,10.36,17c.67.85,2-.24,1.47-1.13A169,169,0,0,0,433.81,272a.94.94,0,0,0-1.62.94,22.39,22.39,0,0,0,7.19,8.12c1,.69,1.92-.93.94-1.61a20.49,20.49,0,0,1-6.51-7.45l-1.62.94a167.21,167.21,0,0,1,9.18,14.42l1.47-1.13a80,80,0,0,1-10.06-16.65l-1.47,1.13a17.53,17.53,0,0,1,5.49,11.68l1.6-.67a27.85,27.85,0,0,1-5.78-11.27.93.93,0,0,0-1.8.5Z" transform="translate(-382.45 -220.65)"/>
    <path class="cls-1" d="M439.65,258.53a25.25,25.25,0,0,0,13,.26.94.94,0,0,0-.25-1.83l-10.85,0a.94.94,0,0,0,0,1.87,59.32,59.32,0,0,0,12.56-.73c1.14-.19.7-1.72-.24-1.84a25.53,25.53,0,0,0-11.51,1.12,1,1,0,0,0-.23,1.71,16,16,0,0,0,14.66.51c1.1-.5.15-2.11-.94-1.62a14,14,0,0,1-12.77-.51c-.08.57-.15,1.14-.22,1.71a24.48,24.48,0,0,1,11-1c-.09-.61-.17-1.22-.25-1.83a57.36,57.36,0,0,1-12.07.66v1.87l10.85,0c-.09-.62-.17-1.23-.25-1.84a23.26,23.26,0,0,1-12-.27.94.94,0,0,0-.5,1.81Z" transform="translate(-382.45 -220.65)"/>
    <path class="cls-1" d="M435.4,248.37q2.6-8.93,5.21-17.85l-1.84-.25a24.15,24.15,0,0,1-2.3,12.16l1.75.47a35.72,35.72,0,0,1,1.65-11.2l-1.84-.25a16.34,16.34,0,0,1-2,7.24c-.58,1.06,1,2,1.61.94a18.61,18.61,0,0,0,2.27-8.18c.06-1.08-1.53-1.22-1.83-.24a37.38,37.38,0,0,0-1.72,11.69c0,.87,1.33,1.34,1.74.47a26.11,26.11,0,0,0,2.55-13.1.94.94,0,0,0-1.84-.24q-2.6,8.91-5.2,17.84a.93.93,0,0,0,1.8.5Z" transform="translate(-382.45 -220.65)"/>
    <path class="cls-1" d="M426.43,243.92q-3.75-6.6-7.51-13.2a.94.94,0,0,0-1.71.72,36.23,36.23,0,0,0,4.13,11.06c.6,1.06,2.14.13,1.61-.94L416,227.44c-.53-1.08-2.14-.13-1.61.95l6.93,14.11,1.61-.94A34.88,34.88,0,0,1,419,230.94l-1.71.72q3.75,6.6,7.51,13.21a.94.94,0,0,0,1.61-1Z" transform="translate(-382.45 -220.65)"/>
    <path class="cls-1" d="M424.7,252.8c-2-1.89-4.43-.76-6.39.72-4,3-7.76,6.35-11.63,9.51l1.33,1.32,10-12-1.47-1.14a90.62,90.62,0,0,0-7.33,12.94c-.5,1.09,1.11,2,1.62.95a89.67,89.67,0,0,1,7.33-12.94c.59-.87-.79-1.95-1.47-1.13l-10,12a.94.94,0,0,0,1.33,1.32c2-1.67,13-12.47,15.37-10.22.87.82,2.2-.5,1.32-1.33Z" transform="translate(-382.45 -220.65)"/>
    <path class="cls-1" d="M421.81,253.11a120.9,120.9,0,0,1,8,16.76c.43,1.1,2.23.64,1.81-.5l-5.75-15.45a.93.93,0,0,0-1.8.5,87.7,87.7,0,0,0,4.38,15.25l1.81-.49c-.26-.61-.51-1.22-.76-1.83-.46-1.1-2.27-.62-1.8.49l.75,1.83c.46,1.09,2.25.64,1.81-.49a87,87,0,0,1-4.39-15.26l-1.8.5q2.88,7.72,5.74,15.45l1.81-.5a122.68,122.68,0,0,0-8.21-17.2.93.93,0,0,0-1.61.94Z" transform="translate(-382.45 -220.65)"/>
    <path class="cls-2" d="M429.23,229.64c-12-4.66-26.22-2.18-35.37,7.08a35.49,35.49,0,0,0-8.67,33.73c3.77,13.69,17.68,21.37,30.64,24.69,13.19,3.38,26.58.08,35.71-10.25,8.81-10,11.24-23.75,7.67-36.43-3.39-12-12.62-25.15-25.71-27.47-12.28-2.18-23.95,6.41-29.4,16.91-6.12,11.79-4.26,24.79,6.95,32.61,10.44,7.29,29.15,7,32.56-8,3.17-13.94-13.52-21.81-23.64-13.32-1.66,1.39.73,3.76,2.38,2.38,5.49-4.61,13.7-3.49,17.09,3.11,2.95,5.72-.23,12.24-5.39,15.33-10.27,6.14-24.79-1.53-29-11.77-4.3-10.45,2.6-23.05,11-29.32,9.52-7.1,20.92-5.91,29.33,2.34,15.13,14.81,16.81,41.39-.4,55.29-9.17,7.4-20.78,8-31.68,4.35-10.37-3.45-21.28-9.51-24.67-20.58a32.07,32.07,0,0,1,7.1-30.69c8.34-8.88,21.46-11.06,32.6-6.72,2,.78,2.89-2.47.89-3.25Z" transform="translate(-382.45 -220.65)"/>
    <path class="cls-2" d="M430.75,295.25a759.21,759.21,0,0,0,11.53,78.69,1.71,1.71,0,0,0,1.63,1.23c5,.17,8.33-4,8.42-8.81.07-3.47-1.26-6.81-2.19-10.09-1.14-4-2.07-8-2.94-12-1.78-8.28-3.42-16.59-5.12-24.88-1.88-9.21-3.89-18.36-3.68-27.81.05-2.17-3.32-2.17-3.37,0-.29,13.09,3.26,26.05,5.87,38.79,1.33,6.49,2.58,13,4.09,19.45,1,4.42,8.49,22.36-1.08,22l1.62,1.24a750,750,0,0,1-11.41-77.79c-.2-2.14-3.57-2.16-3.37,0Z" transform="translate(-382.45 -220.65)"/>
    <path class="cls-2" d="M433.16,294.05c-4.22.45-8.43.92-12.64,1.44-2.49.31-5.62.2-7.95,1.31-3.85,1.83-2.31,5.38-.33,8.1,1.75,2.42,5.94,7.71,9.56,6.39,2.36-.86,3.77-4.4,5.24-6.09a32.48,32.48,0,0,1,17.32-10.4c1.82-.41,4.06-1.27,5.51.38a16,16,0,0,1,1.35,5.62c-.5,2.49-4,.31-5.68-.51-1.5-.72-3-1.49-4.47-2.21a46.86,46.86,0,0,0-8.13-3.2c-4.49-1.17-11.23-1.83-15,1.58-3.61,3.25-.9,7.77,1.55,10.75a1.69,1.69,0,0,0,2.81-.75c.21-1.23.25-5.29,1.52-5.4.19,0,1,1.07,1.34,1.17a3.2,3.2,0,0,0,3.3-.4c.59-.4.74-1.07,1.21-1.54.29-.53.59-1.06.89-1.59a4.81,4.81,0,0,1,3.9,0c2.7-.11,7.92-4,9.86-.35a1.7,1.7,0,0,0,2.9,0l3.16-4.16h-2.91l3.59,7.17c1,1.94,3.87.24,2.9-1.7q-1.79-3.58-3.58-7.17c-.62-1.25-2.21-.92-2.91,0l-3.15,4.16h2.9a6.47,6.47,0,0,0-7.76-3.48c-1.06.33-1.85,1.29-2.86,1.62-2.84.93-2.32-.29-4.36-.29-1.54,0-2.32,0-3.51,1.1-.92.84-1.36,3-2.59,2.93-.61,0-1.51-1.79-2.61-1.88-4.12-.33-4.07,6.46-4.48,8.9l2.82-.74c-2-2.46-2.36-6.21,1.26-7.09a16.37,16.37,0,0,1,5.88-.18A34.54,34.54,0,0,1,439.37,301c3.37,1.58,8.21,5.37,12.15,4.94,3-.32,3.55-2.62,3.14-5.22-.49-3.08-.9-8.92-4.66-9.84s-9,1.19-12.35,2.59a36,36,0,0,0-11.49,7.73c-1.63,1.64-2.79,4-4.44,5.49s-2.51.75-4.09-.72c-.85-.8-3.89-3.56-3.85-4.83.1-2.91,16.6-3.42,19.38-3.71,2.13-.23,2.15-3.59,0-3.37Z" transform="translate(-382.45 -220.65)"/>
  </g>
</svg>
