<svg id="Layer_1" data-name="Layer 1" xmlns="http://www.w3.org/2000/svg" viewBox="0 0 105.22 100.58">
  <defs>
    <style>
      .cls-1 {
        fill: #fd5967;
      }

      .cls-2 {
        fill: #231f20;
      }
    </style>
  </defs>
  <title>notebook</title>
  <g>
    <path class="cls-1" d="M422.84,266.57c-6.88,1.07-13,7.87-13.19,15-.17,6.48,5.71,11,12,10,6.69-1.08,11.37-7.56,10.84-14.22-.22-2.8-4.33-13.15-8.5-9-.86.84.46,2.17,1.32,1.32,2-1.95,5,5.86,5.18,6.76a11.48,11.48,0,0,1-1,7.11c-2.08,4.16-6.58,7.05-11.3,6.14-13.24-2.56-4.1-19.84,5.17-21.28,1.18-.18.68-2-.5-1.8Z" transform="translate(-369.14 -246.02)"/>
    <path class="cls-1" d="M418.51,291.3c1,7.25-.17,13.48-1.13,20.6-.57,4.26,4.95,8.45,7.42,11.45.77.93,2.08-.4,1.32-1.33a64.93,64.93,0,0,1-5-6c-2.39-3.75-1.06-7-.58-10.84a54.3,54.3,0,0,0-.25-14.35c-.17-1.18-2-.68-1.81.5Z" transform="translate(-369.14 -246.02)"/>
    <path class="cls-1" d="M417.09,313.36,413,319.42a16.56,16.56,0,0,0-2.77,5.25c-.29,1.17,1.52,1.67,1.81.5.51-2.08,1.87-3.77,3.05-5.52l3.63-5.35c.68-1-.94-1.93-1.61-.94Z" transform="translate(-369.14 -246.02)"/>
    <path class="cls-1" d="M421.22,304.24q5.23-4.73,10.08-9.87c.82-.87-.5-2.2-1.32-1.32q-4.85,5.15-10.09,9.87c-.89.81.43,2.13,1.33,1.32Z" transform="translate(-369.14 -246.02)"/>
    <path class="cls-1" d="M420.47,303.47l-14.82-11.58c-.93-.74-2.27.58-1.32,1.32l14.82,11.58c.94.73,2.27-.58,1.32-1.32Z" transform="translate(-369.14 -246.02)"/>
    <path class="cls-2" d="M379.55,258.27q-2.06,30.74-4.12,61.46c-.33,4.84-1,9.78-1,14.63,0,2.45.27,4.59,2.62,5.86,4.45,2.37,12.09,1.89,17,2.27,14.74,1.16,29.55,1.54,44.27,3,4.91.48,11.56,3.23,14.18-2.27,3.87-8.09,6.05-17.48,8.07-26.18,4.85-20.88,6.72-42.3,8.56-63.61a1.68,1.68,0,0,0-1.24-1.62c-28.14-5.93-57.75-5.23-86.37-5.78a1.72,1.72,0,0,0-1.68,1.68c-.28,3.52-.56,7.05-.83,10.57-.17,2.16,3.19,2.15,3.36,0,.28-3.52.56-7,.83-10.57l-1.68,1.68c28.31.55,57.65-.2,85.48,5.66l-1.24-1.62c-1.47,17.11-3,34.25-6,51.16a220.9,220.9,0,0,1-5.63,23.82c-1,3.48-1.85,8.09-3.76,11.17-2.58,4.17-5.61,3.23-9.6,2.79-12.74-1.4-25.58-1.83-38.36-2.65-5.88-.37-11.77-.77-17.63-1.46a22.06,22.06,0,0,1-3.83-.51c-2.72-.87-2.88-2.62-3-5.33-.13-4.49.62-9.18.92-13.66q2-30.24,4.06-60.48c.15-2.16-3.22-2.15-3.37,0Z" transform="translate(-369.14 -246.02)"/>
    <path class="cls-2" d="M380,250.68c-2.23.93-4.68,2-5.78,4.34a5.73,5.73,0,0,0,1.12,6.27c3.5,3.81,11.46,3.39,15.45.59,1.76-1.24.08-4.16-1.69-2.91-2.2,1.54-5.93,2-8.57,1.43-1.42-.29-3.48-1.33-3.47-3.06s2.44-2.83,3.83-3.42c2-.82,1.11-4.08-.89-3.24Z" transform="translate(-369.14 -246.02)"/>
    <path class="cls-2" d="M379.05,266.57c-4.54-1.58-7.84,3.56-5.81,7.5,2.75,5.34,10.25,4.87,15.18,3.71,2.11-.5,1.22-3.74-.89-3.25a16.81,16.81,0,0,1-7.75.35,5.81,5.81,0,0,1-3-1.58c-1.18-1.36-1-4.32,1.41-3.49,2,.71,2.93-2.54.89-3.24Z" transform="translate(-369.14 -246.02)"/>
    <path class="cls-2" d="M379.92,281.84c-4.31-.28-9.05,2.9-7.79,7.73a5.27,5.27,0,0,0,4.26,3.83,85.13,85.13,0,0,0,8.59,1c2.15.23,2.14-3.14,0-3.36l-4.61-.49c-1.27-.13-3.42.05-4.44-.84a2.42,2.42,0,0,1,.05-3.28c1-1.12,2.59-1.26,3.94-1.17,2.17.14,2.16-3.23,0-3.37Z" transform="translate(-369.14 -246.02)"/>
    <path class="cls-2" d="M376.89,297.87c-4.06-1.7-7.69,3-6.28,6.75,1.88,5,7.71,5.12,12.17,4.53,2.11-.28,2.14-3.65,0-3.36-2.33.3-5.11.8-7.26-.43-.89-.51-2-1.52-1.93-2.65a1.74,1.74,0,0,1,2.41-1.6c2,.84,2.86-2.42.89-3.24Z" transform="translate(-369.14 -246.02)"/>
    <path class="cls-2" d="M377.26,314c-2.92-3.37-8.72-.62-7.34,3.85,1.52,4.92,8.89,4.54,12.82,4.22,2.14-.17,2.16-3.54,0-3.36a26.84,26.84,0,0,1-5.45.1,8.42,8.42,0,0,1-2.82-.79,3.23,3.23,0,0,1-1.21-.93c.37-1.46.91-1.7,1.62-.71,1.42,1.64,3.79-.75,2.38-2.38Z" transform="translate(-369.14 -246.02)"/>
    <path class="cls-2" d="M375,324.37c-4.13-1.73-7.23,3.26-5.26,6.75,2.83,5,10.09,3.31,14.71,2.92,2.15-.18,2.17-3.55,0-3.37s-4.29.43-6.44.53a8.51,8.51,0,0,1-3.37-.3,3,3,0,0,1-1.56-.88q-1.6-2.81,1-2.41c2,.84,2.87-2.42.9-3.24Z" transform="translate(-369.14 -246.02)"/>
    <path class="cls-2" d="M467.09,256.66c1.9.65,4,.76,4.68,2.94.34,1.08-.59,4.62-.74,5.76-.53,4.07-1.1,8.15-1.69,12.21q-1.59,11-3.45,22-1.78,10.49-3.8,20.95-1.09,5.7-2.28,11.39c-.34,1.68-1.5,13.95-6.63,9.47-.91-.79-2.23.53-1.32,1.32,3.27,2.86,6.39,2.62,7.89-1.66,3-8.57,3.93-18.7,5.58-27.63q5.12-27.74,8.54-55.73a.93.93,0,0,0-.68-.9l-5.61-1.93c-1.14-.39-1.63,1.42-.49,1.81Z" transform="translate(-369.14 -246.02)"/>
    <path class="cls-2" d="M470.49,257.08c.68,2.45,1.35,4.91,2,7.37l1.71-.72c-1.4-1.93-2.8-3.87-4.21-5.8a.94.94,0,0,0-1.71.72l1.38,5.82,1.71-.72-2.86-4.07a.94.94,0,0,0-1.74.47,23.44,23.44,0,0,0,1.82,8.73l1.57-.91c-.45-.92-.9-1.84-1.34-2.76a.94.94,0,0,0-1.84.25,30.83,30.83,0,0,0,1.23,8.2.93.93,0,0,0,1.8-.49l-.66-3.61-1.81.5c.48,2.19.95,4.37,1.43,6.56l1.8-.5a5.85,5.85,0,0,0-2.53-3.24.94.94,0,0,0-1.41.8,23.15,23.15,0,0,0,1.59,6.81l1.71-.72a7.7,7.7,0,0,0-3-2.54.94.94,0,0,0-1.4.8,17.62,17.62,0,0,0,.86,8.49l1.71-.72c-.95-1.5-.74-1.32-2.29-2.17-.47-.25-1.29-.06-1.38.56a11.58,11.58,0,0,0,1.59,8.15c.53.88,2.06.31,1.71-.72a5,5,0,0,0-1.75-2.92,1,1,0,0,0-1.6.67,26.93,26.93,0,0,0,.51,8.35l1.8-.49a3.64,3.64,0,0,0-1.45-2.56,1,1,0,0,0-1.6.66c.07,3.08.27,6.12.63,9.18l1.84-.25L465,300.88c-.37-.9-1.88-.91-1.84.24.1,2.95.2,5.89.29,8.84l1.84-.25a6.55,6.55,0,0,0-2-3.84,1,1,0,0,0-1.6.66c-.24,4.26-.33,8.49-.27,12.75l1.74-.47-1.49-2.17a1,1,0,0,0-1.75.47l-1.05,12.15,1.74-.47c-.79-1.83-1.59-3.65-2.38-5.47-.38-.87-1.77-.41-1.74.47l.42,12.59,1.74-.47-2.43-4.34a.94.94,0,0,0-1.74.47l.63,11.44,1.75-.47a22.4,22.4,0,0,0-2.59-4.44.94.94,0,0,0-1.74.47c0,1.62,0,3.23-.05,4.84a.94.94,0,0,0,1.87,0c0-1.61,0-3.22.05-4.84l-1.74.48a22.28,22.28,0,0,1,2.58,4.43c.38.85,1.79.42,1.74-.47L456.32,332l-1.74.48,2.43,4.33a.94.94,0,0,0,1.74-.47l-.42-12.59-1.75.47c.8,1.83,1.59,3.65,2.39,5.47.4.94,1.67.34,1.74-.47l1.05-12.15-1.74.47,1.5,2.17a.94.94,0,0,0,1.74-.47c-.06-4.26,0-8.49.27-12.75l-1.59.67,1.53,3c.19,1,1.87.79,1.83-.25-.09-2.95-.19-5.89-.29-8.84l-1.83.25,1.4,3.39c.36.87,2,.9,1.84-.25-.36-3.06-.56-6.1-.63-9.18l-1.6.67,1,1.72a.93.93,0,0,0,1.8-.49,25.64,25.64,0,0,1-.44-7.86l-1.6.66c.43.69.85,1.39,1.27,2.08l1.71-.72a8.34,8.34,0,0,1-1.39-6.7l-1.38.56,1.62,1.49c.55.86,2.07.33,1.71-.72a16.73,16.73,0,0,1-.79-8l-1.41.81,2.28,1.88c.57.76,2.14.35,1.71-.73a20.19,20.19,0,0,1-1.53-6.31l-1.41.81,1.68,2.13a.93.93,0,0,0,1.8-.5c-.47-2.18-.95-4.37-1.42-6.56-.26-1.18-2-.67-1.81.5s.44,2.4.67,3.6l1.8-.49a29.61,29.61,0,0,1-1.16-7.71l-1.84.25a7.65,7.65,0,0,0,1.83,3.59c.58.69,1.91-.05,1.56-.91a22.38,22.38,0,0,1-1.76-8.24l-1.75.47,2.86,4.08a.94.94,0,0,0,1.71-.72c-.46-2-.91-3.89-1.37-5.83l-1.71.72c1.4,1.93,2.8,3.87,4.21,5.8a.93.93,0,0,0,1.7-.72q-1-3.68-2-7.37a.93.93,0,0,0-1.8.5Z" transform="translate(-369.14 -246.02)"/>
  </g>
</svg>
