<svg id="Layer_1" data-name="Layer 1" xmlns="http://www.w3.org/2000/svg" viewBox="0 0 109.03 116.17">
  <defs>
    <style>
      .cls-1 {
        fill: #fd5967;
      }

      .cls-2 {
        fill: #231f20;
      }
    </style>
  </defs>
  <title>paint</title>
  <g>
    <path class="cls-1" d="M381.08,315.43l-2.17,6.64,1.84.25a5.71,5.71,0,0,1,2.73-4.73l-1.41-.8a54.28,54.28,0,0,1-.3,7.21c-.09.83,1.07,1.2,1.6.66a20.32,20.32,0,0,0,4.38-6.74l-1.81-.49q-.85,3-1.72,5.94a.94.94,0,0,0,1.57.91l3.13-2.77-1.47-.19,1.26,2.09a.93.93,0,0,0,1.61-.94c-.42-.7-.83-1.4-1.25-2.09a1,1,0,0,0-1.47-.19L384.46,323l1.57.91q.86-3,1.72-5.95c.34-1.18-1.37-1.58-1.81-.49a18.08,18.08,0,0,1-3.89,5.91l1.59.66a54.28,54.28,0,0,0,.3-7.21,1,1,0,0,0-1.41-.81,7.65,7.65,0,0,0-3.65,6.34c-.05,1.09,1.52,1.22,1.83.25l2.17-6.65c.38-1.14-1.43-1.63-1.8-.49Z" transform="translate(-368.35 -238.86)"/>
    <path class="cls-1" d="M396,302.44l1.08-.83-1.37-1.05-.54,3.63c-.18,1.15,1.5,1.69,1.8.5a13.35,13.35,0,0,1,2.15-4.67l-1.71-.72a23.61,23.61,0,0,0-.68,6.32.94.94,0,0,0,1.59.66,20.17,20.17,0,0,0,4.65-8.76l-1.8-.5c-.36,1.78-.73,3.55-1.1,5.33-.2,1,1.24,1.74,1.71.72a15.42,15.42,0,0,1,3.61-5l-1.56-.91c-.81,2.27-1.63,4.54-2.44,6.8-.38,1.09,1.13,1.49,1.71.72l4-5.17h-1.62a12.38,12.38,0,0,1,1,3.52c.16,1.19,2,.69,1.81-.49a14.41,14.41,0,0,0-1.17-4c-.33-.72-1.24-.49-1.62,0l-4,5.17,1.71.72,2.43-6.8c.33-.93-.92-1.5-1.56-.91a16.62,16.62,0,0,0-3.9,5.35l1.71.72c.36-1.78.73-3.56,1.09-5.33.25-1.17-1.51-1.68-1.8-.5A18.22,18.22,0,0,1,397,305l1.6.66a22.07,22.07,0,0,1,.61-5.83.94.94,0,0,0-1.71-.72,14.77,14.77,0,0,0-2.33,5.12l1.8.5.54-3.64c.1-.68-.64-1.61-1.37-1.05-.37.27-.73.55-1.09.83-.94.72,0,2.34.95,1.61Z" transform="translate(-368.35 -238.86)"/>
    <path class="cls-1" d="M407.1,331.68a30,30,0,0,0-2.86,7.05.93.93,0,0,0,1.8.5,29.13,29.13,0,0,1,3.84-7.33l-1.71-.72q-.71,4.35-1.42,8.69a.93.93,0,0,0,1.8.5,34.23,34.23,0,0,1,5.52-10.74l-1.71-.72q-1.29,6.45-3.19,12.74c-.3,1,1.27,1.7,1.71.72a58.65,58.65,0,0,1,6.26-10.9l-1.71-.72a59.35,59.35,0,0,1-2.48,9.71c-.4,1.13,1.41,1.62,1.8.49a16.8,16.8,0,0,1,5.6-7.84l-1.59-.66a32.19,32.19,0,0,1-2.68,10.39c-.39.9.69,2,1.47,1.14q5.43-5.93,10.87-11.83l-1.56-.41a7.46,7.46,0,0,1-1.51,7.58c-.77.92.55,2.25,1.32,1.32a9.47,9.47,0,0,0,2-9.4.94.94,0,0,0-1.56-.41l-10.87,11.82,1.47,1.14a35.68,35.68,0,0,0,2.93-11.34c.08-.9-1-1.11-1.6-.66a18.42,18.42,0,0,0-6.08,8.67l1.8.49a58.84,58.84,0,0,0,2.48-9.71.94.94,0,0,0-1.71-.72,60.14,60.14,0,0,0-6.26,10.9l1.71.72q1.9-6.28,3.19-12.73a.94.94,0,0,0-1.71-.72,36.06,36.06,0,0,0-5.7,11.18l1.8.5c.48-2.9.95-5.79,1.43-8.69a.94.94,0,0,0-1.71-.72,30.53,30.53,0,0,0-4,7.77l1.8.5a28.63,28.63,0,0,1,2.67-6.6c.59-1.06-1-2-1.61-.95Z" transform="translate(-368.35 -238.86)"/>
    <path class="cls-1" d="M428.24,292.15a5.89,5.89,0,0,0-.51,3.18.94.94,0,0,0,1.74.47,1.82,1.82,0,0,1,1-1l-1.38-.56c.21.95.42,1.9.62,2.86a1,1,0,0,0,1.57.41q2.43-1.93,4.75-4l-1.6-.66c-.1,1-.21,2.07-.32,3.1a1,1,0,0,0,1.75.47l.75.22c-.13,1.19,1.74,1.18,1.87,0a2.22,2.22,0,0,0-4.24-1.16l1.74.47c.11-1,.22-2.07.32-3.1.09-.87-1.05-1.15-1.59-.66q-2.33,2.07-4.75,4l1.56.41c-.21-.95-.42-1.91-.62-2.86a1,1,0,0,0-1.38-.56,4.12,4.12,0,0,0-1.69,1.67l1.74.47a4,4,0,0,1,.26-2.24c.46-1.09-1.15-2-1.62-.94Z" transform="translate(-368.35 -238.86)"/>
    <path class="cls-1" d="M454.22,307.39a4.08,4.08,0,0,0-.55,3.28,1,1,0,0,0,1.71.22c1-1.74,2-3.49,3-5.23l-1.75-.47a20.9,20.9,0,0,1-.75,6.29c-.28,1,1.22,1.68,1.71.72a41.86,41.86,0,0,1,3.91-6.27l-1.71-.73L458.3,312c-.21,1,1.19,1.7,1.71.72a20.52,20.52,0,0,1,4-5.39l-1.56-.91-.66,4.61a.94.94,0,0,0,1.56.91l3.07-2.88-1.47-.18a2.67,2.67,0,0,1-.18,2.9.93.93,0,0,0,1.61.94,4.85,4.85,0,0,0,.19-4.79,1,1,0,0,0-1.47-.19l-3.07,2.87,1.56.91.66-4.61a.94.94,0,0,0-1.56-.9,22,22,0,0,0-4.34,5.76l1.71.72,1.47-6.83a.94.94,0,0,0-1.71-.72,41.86,41.86,0,0,0-3.91,6.27l1.71.72a22.47,22.47,0,0,0,.82-6.78.94.94,0,0,0-1.74-.48l-3,5.24,1.71.22.37-1.84c.63-1-1-2-1.62-.94Z" transform="translate(-368.35 -238.86)"/>
    <path class="cls-2" d="M457.06,330.52c-3.33-4-10.08-3.24-11.23,2.32-.65,3.11,1,4.37,2.64,6.61,5.66,7.8-10.57,9.24-14.27,9.95-19.66,3.77-46.08,4.59-58.1-15-11.47-18.69,3.19-37.14,20.32-45.13,16.38-7.63,36.28-7.78,53.35-2.41,10.59,3.33,21,10.13,23.68,21.61,2.63,11.3-6.83,24.35-19.18,19.83-2-.75-2.92,2.5-.9,3.24,8,2.93,16.93-1,21.27-8.15,4.73-7.77,2.85-17.83-2.06-25-11.27-16.54-36.74-20-55.13-18.08s-38.93,11-46.74,29c-8.86,20.34,8.71,39.39,27.64,44.07,13.39,3.31,27.23,1.34,40.52-1.41,4.7-1,11.38-1.34,14.17-5.92a6.2,6.2,0,0,0,.81-5.07,5.21,5.21,0,0,0-1.17-2.12,4.83,4.83,0,0,0-1.29-1.26q-3.81-2.26,3.29-4.62c1.39,1.67,3.76-.72,2.38-2.38Z" transform="translate(-368.35 -238.86)"/>
    <path class="cls-2" d="M438.2,290.71c-3.34-.31-8-.37-11.11,1.25a2.87,2.87,0,0,0-.76,4.77c2.42,2.4,14.46,2.14,12.27-3.13-.46-1.1-2.27-.62-1.8.5.83,2-3.9,2.22-4.74,2.24-1.32,0-7-.79-3.23-3,1.18-.68,3.46-.75,4.73-.84a26.63,26.63,0,0,1,4.64.08c1.2.11,1.19-1.76,0-1.87Z" transform="translate(-368.35 -238.86)"/>
    <path class="cls-2" d="M403.78,296.49c-3-2.18-8.45,1.23-9.56,4.3-1.67,4.61,3.6,7.54,7.49,7,3.66-.46,9.78-3.34,9.44-7.85-.43-5.57-7.29-4.32-10.66-2.93-1.09.46-.61,2.27.5,1.81,2.12-.88,5.7-2.46,7.6-.26,2.79,3.24-2.94,6.18-5.11,6.89-2.51.82-8.65.76-7.61-3.83.47-2.06,5.05-4.94,7-3.55,1,.71,1.9-.92.94-1.62Z" transform="translate(-368.35 -238.86)"/>
    <path class="cls-2" d="M389.68,314.69a8.3,8.3,0,0,0-9.19,2.79c-2.23,3-1.09,6.68,2.54,7.8a8.24,8.24,0,0,0,8.78-2.8c1.87-2.48,1.45-7-2.45-6.78-1.2.07-1.21,1.94,0,1.87,3.18-.19,1.42,3.36.56,4.26a6.12,6.12,0,0,1-1.86,1.32c-1.7.78-4.15.94-5.69-.25-2.49-1.91-.55-4.81,1.53-6a6.52,6.52,0,0,1,5.29-.45c1.15.36,1.64-1.44.49-1.8Z" transform="translate(-368.35 -238.86)"/>
    <path class="cls-2" d="M419,328.38c-5-2.1-12.58.32-14.91,5.47-2.45,5.42,3.14,9.84,8,10.24,5.45.44,14.19-1.51,15.78-7.63,1.93-7.43-7-8.55-12.13-8-1.18.12-1.2,2,0,1.87a20.54,20.54,0,0,1,4.7-.16,6.29,6.29,0,0,1,4.48,1.66q.28,2.79.56,5.58c-1,3-6.31,4.08-9.09,4.54a15.12,15.12,0,0,1-5.53.09,5,5,0,0,1-3.61-2.08q-2.43-1.41-.71-4.15c.52-3.06,1-3.78,3.66-5.1,2.46-1.24,5.15-1.85,7.82-.71,1.1.46,2.05-1.15,1-1.62Z" transform="translate(-368.35 -238.86)"/>
    <path class="cls-2" d="M462.31,304.74a10.11,10.11,0,0,0-9,5.33c-2.17,4.22,2.22,5.31,5.74,5.35s7.76-2.15,8.14-6.15A5.1,5.1,0,0,0,461,303.8c-1.18.27-.68,2.07.49,1.81,3.92-.89,4.54,4,2.43,6.15-1.93,2-4.88,2-7.41,1.48-1.49-.34-2.38-.93-1.49-2.53a8,8,0,0,1,1.59-2,8.26,8.26,0,0,1,5.68-2.12.94.94,0,0,0,0-1.87Z" transform="translate(-368.35 -238.86)"/>
    <path class="cls-2" d="M453.13,297.78q4.68-13.61,9.64-27.12c3.32-9,6.15-18.91,10.49-27.5,1.3-2.59-1.27,3.92-1.5,4.54l-2,5.44q-2.73,7.28-5.44,14.53l-4.77,12.71q-1.35,3.63-2.72,7.26c-.41,1.08-3.56,7.57-3.2,8.23-1-1.9-3.94-.2-2.91,1.7,1.34,2.49,4.19,2.24,5.78.05,1.44-2,2.05-5,2.9-7.27l4.08-10.9q3.92-10.43,7.82-20.87l3.75-10c.72-1.92,2.86-5.32,2.26-7.4a3.43,3.43,0,0,0-5.33-1.67c-1.63,1.1-2.21,3.4-2.89,5.12q-2.1,5.36-4.14,10.74-7.86,20.63-15,41.51c-.71,2.05,2.54,2.93,3.25.89Z" transform="translate(-368.35 -238.86)"/>
    <path class="cls-2" d="M452.52,296.77c-10-3.69-11.27,12.05-19.71,12.61a.94.94,0,0,0-.47,1.74,14.88,14.88,0,0,0,23.08-14.48c-.16-1.17-2-1.19-1.87,0,1.54,11.52-10.47,19.27-20.27,12.87-.16.58-.31,1.16-.47,1.74a10,10,0,0,0,7.19-3.89c3.12-3.67,5.88-11.05,12-8.79,1.13.42,1.62-1.39.5-1.8Z" transform="translate(-368.35 -238.86)"/>
  </g>
</svg>
