<svg id="Layer_1" data-name="Layer 1" xmlns="http://www.w3.org/2000/svg" viewBox="0 0 85.21 79.41">
  <defs>
    <style>
      .cls-1 {
        fill: #fd5967;
      }

      .cls-2 {
        fill: #231f20;
      }
    </style>
  </defs>
  <title>puzzle</title>
  <g>
    <path class="cls-1" d="M389.63,278.75l3.06-1.19a1,1,0,0,0,.65-1.15.93.93,0,0,0-1.15-.65L389.13,277a1,1,0,0,0-.65,1.15.94.94,0,0,0,1.15.65Z" transform="translate(-377.79 -257.91)"/>
    <path class="cls-1" d="M407.94,275.15l3.61-1.08a.93.93,0,0,0-.5-1.8l-3.61,1.07a.94.94,0,0,0,.5,1.81Z" transform="translate(-377.79 -257.91)"/>
    <path class="cls-1" d="M409.06,286a7.67,7.67,0,0,1,3.48-1.11c1.19-.09,1.2-2,0-1.87a9.74,9.74,0,0,0-4.42,1.37.93.93,0,0,0,.94,1.61Z" transform="translate(-377.79 -257.91)"/>
    <path class="cls-1" d="M426.26,274.8a4.28,4.28,0,0,0,2.79-1.2c.87-.84-.45-2.16-1.32-1.33a2.25,2.25,0,0,1-1.47.66c-1.19.08-1.2,1.95,0,1.87Z" transform="translate(-377.79 -257.91)"/>
    <path class="cls-1" d="M424.7,290.05l3-.95c1.15-.36.66-2.17-.49-1.8l-3,.95c-1.14.36-.66,2.16.5,1.8Z" transform="translate(-377.79 -257.91)"/>
    <path class="cls-1" d="M415.59,304.39l4-.31c1.19-.09,1.2-2,0-1.87l-4,.31c-1.19.09-1.2,2,0,1.87Z" transform="translate(-377.79 -257.91)"/>
    <path class="cls-1" d="M446.27,290.56l2.74-1.22a1,1,0,0,0,.34-1.28,1,1,0,0,0-1.28-.33L445.32,289a.94.94,0,0,0-.33,1.28,1,1,0,0,0,1.28.33Z" transform="translate(-377.79 -257.91)"/>
    <path class="cls-1" d="M434.06,301.81l2.74-1.22a.94.94,0,0,0-.94-1.62l-2.75,1.22a.94.94,0,0,0-.33,1.28,1,1,0,0,0,1.28.34Z" transform="translate(-377.79 -257.91)"/>
    <path class="cls-1" d="M434.8,316.56a4.48,4.48,0,0,0,2.91-.74c1-.67.06-2.29-.95-1.62a2.84,2.84,0,0,1-2,.49.94.94,0,1,0,0,1.87Z" transform="translate(-377.79 -257.91)"/>
    <path class="cls-1" d="M403.05,315.66a3.65,3.65,0,0,1,2.24-.1.93.93,0,0,0,.5-1.8,5.39,5.39,0,0,0-3.23.1c-1.13.4-.64,2.21.49,1.8Z" transform="translate(-377.79 -257.91)"/>
    <path class="cls-1" d="M404.6,328a24.76,24.76,0,0,0,4.74-1.54c1.1-.48.15-2.09-.94-1.61a24.1,24.1,0,0,1-4.3,1.35c-1.17.25-.68,2.06.5,1.8Z" transform="translate(-377.79 -257.91)"/>
    <path class="cls-2" d="M379.45,277.27q1.49,8.88,3,17.75a2.09,2.09,0,0,0,2.53,1.43c4.86-.91,11.68-4.68,16.48-2.14,4.19,2.21,3.9,6.95.63,10-2.48,2.35-6,3.35-9.18,4.37a2.09,2.09,0,0,0-1.51,2,115.11,115.11,0,0,0,5.09,25.12,2.11,2.11,0,0,0,2,1.51c6.32-.36,16.68-1.07,21.46-5.75,1.71-1.68,1.85-3.54,1.45-5.82-.43-2.45-1.85-6.63,2.27-6.63s4.69,5.13,4.12,8.11a2.09,2.09,0,0,0,2,2.6,51.8,51.8,0,0,0,23.59-5.2,2.08,2.08,0,0,0,.74-2.81,69.64,69.64,0,0,1-6-14.29l-2,2.61c9.88-1.09,18.79-9.06,16.55-19.73A14.17,14.17,0,0,0,453.86,280a25.08,25.08,0,0,0-7.43-1.52c-1.57-.12-3.66.27-5.15-.15-2.58-.72-2.87-2.78-3.64-5-1.24-3.63-2.32-7.38-3.76-10.95-.76-1.9-1.48-3.36-3.52-4.1-2.53-.91-5.35.42-7.8,1.06-3,.78-6,1.4-9.08,2-12.38,2.38-24.87,4.3-35,12.4-2.07,1.65.86,4.55,2.91,2.91,7.77-6.22,17.49-8.38,27.05-10.2,4.58-.87,9.18-1.65,13.71-2.75a27.74,27.74,0,0,1,3.71-1,2.22,2.22,0,0,1,2.39.28,2,2,0,0,1,2.28,2.32c1.32,2.38,1.95,5.66,2.82,8.21,1,3,1.59,7.13,4.84,8.5,3.51,1.49,8.28.24,12,1.17,5.72,1.42,9.34,6.14,8.5,12.11-.88,6.27-6.67,10.14-12.62,10.79a2.1,2.1,0,0,0-2,2.61,73.72,73.72,0,0,0,6.38,15.27c.24-.94.49-1.88.74-2.82a47.26,47.26,0,0,1-21.52,4.64l2,2.6c1.32-7-3.9-17.29-12.25-12.14-3.08,1.9-3.5,4.89-2.79,8.18.6,2.75,1.92,3.15-2.15,5.49a23.46,23.46,0,0,1-4.86,1.6,53.29,53.29,0,0,1-11.22,1.75l2,1.51a109.31,109.31,0,0,1-4.94-24c-.51.66-1,1.32-1.51,2,7.22-2.31,18.7-8.29,13.94-17.88-4.63-9.31-16.86-3.66-24.06-2.31l2.53,1.43-3-17.74c-.43-2.61-4.4-1.5-4,1.09Z" transform="translate(-377.79 -257.91)"/>
  </g>
</svg>
