<svg id="Layer_1" data-name="Layer 1" xmlns="http://www.w3.org/2000/svg" viewBox="0 0 66.08 128.5">
  <defs>
    <style>
      .cls-1 {
        fill: #fd5967;
      }

      .cls-2 {
        fill: #231f20;
      }
    </style>
  </defs>
  <title>question mark</title>
  <g>
    <path class="cls-1" d="M391.57,248.63q.27,5.1.52,10.2a1.29,1.29,0,0,0,2.52.34,155.51,155.51,0,0,1,7.66-19.25l-2.34-1a79,79,0,0,1-4.29,14.84l2.47.68a65.26,65.26,0,0,1,7.11-14l-2.34-1a55.4,55.4,0,0,1-3,10.25c-.58,1.46,1.55,2,2.34,1l10.44-13.92-2.34-1-3.54,10.82a1.29,1.29,0,0,0,2.34,1,38.9,38.9,0,0,1,9.33-11.13l-2.18-.91-.81,7.62a1.29,1.29,0,0,0,1.93,1.11l7.12-5.1-1.93-1.11a22,22,0,0,1-1.7,6.15c-.52,1.22,1.31,2.1,2.14,1.24a29.72,29.72,0,0,1,7.73-5.72l-1.88-1.44c-.87,2.59-1.73,5.18-2.6,7.78-.44,1.34,1.24,1.95,2.15,1.24l4.86-3.82-2.19-.9a15.56,15.56,0,0,1-2.78,7.21l2.34,1q1.23-5.2,2.45-10.41a1.3,1.3,0,0,0-1.89-1.45,105,105,0,0,0-13.93,7.51c.58.59,1.16,1.17,1.75,1.75a23,23,0,0,1,10.66-11.19l-1.88-1.44q-2.18,5.82-4.36,11.63a1.29,1.29,0,0,0,1.88,1.45l11.76-8c-.64-.37-1.28-.74-1.93-1.1A36,36,0,0,1,433.68,252c-.44,1.45,1.55,2.14,2.34,1l5.45-8-2.38-.65a47.51,47.51,0,0,1-5.26,18.3l2.39.64q.09-7.81.19-15.65l-2.52.34a183.76,183.76,0,0,1,2.78,28.19c0,1.38,2.27,1.82,2.51.34q1.49-8.87,3-17.71l-2.52-.35L441.18,292a1.29,1.29,0,0,0,2.52.34,81.41,81.41,0,0,0,4.2-34.1,1.28,1.28,0,0,0-2.56,0q0,13.95.05,27.89a1.28,1.28,0,0,0,2.51.34,59,59,0,0,0,2.84-18h-2.56a27,27,0,0,1-.55,8l2.34-.3q-5.43-9.61-10.25-19.54c-.69-1.42-2.54-.33-2.34,1a113.89,113.89,0,0,1-.52,37.39,1.29,1.29,0,0,0,2.34,1,90.22,90.22,0,0,0,7.34-14.39c.62-1.54-1.84-2.17-2.47-.68A106.2,106.2,0,0,1,433.55,300l2.34,1a48.51,48.51,0,0,0,1.44-12.53c0-1.16-1.86-1.88-2.38-.64a100.1,100.1,0,0,0-7.18,26.64l2.52-.35a89.38,89.38,0,0,1-1.78-17.42c0-1.7-2.36-1.59-2.56,0a71,71,0,0,0,3.15,31.57c.44,1.32,2.57,1.17,2.52-.34q-.51-14.1-1-28.21a1.28,1.28,0,0,0-2.56,0,80.17,80.17,0,0,0,4.13,29.16,1.29,1.29,0,0,0,2.52-.34q.36-15.18.71-30.37h-2.56q1.25,12.94,2.5,25.89l2.52-.34a188.34,188.34,0,0,1-2.63-29.6l-2.51.34L436.64,309a1.28,1.28,0,0,0,2.47-.68l-3.93-14.52a1.29,1.29,0,0,0-2.52.34,192.25,192.25,0,0,0,2.72,30.29c.23,1.4,2.65,1.09,2.51-.35q-1.25-12.94-2.5-25.89a1.28,1.28,0,0,0-2.56,0q-.36,15.19-.71,30.37l2.51-.34a78.24,78.24,0,0,1-4-28.48H428q.51,14.1,1,28.21l2.51-.34a69.47,69.47,0,0,1-3.06-30.89H426a93.38,93.38,0,0,0,1.87,18.11c.31,1.54,2.35,1,2.52-.34a95.25,95.25,0,0,1,6.82-25.35l-2.39-.65a46,46,0,0,1-1.35,11.85,1.28,1.28,0,0,0,2.34,1,109.46,109.46,0,0,0,10.78-19.77l-2.47-.68A85.81,85.81,0,0,1,437,294.61l2.35,1a117.54,117.54,0,0,0,.52-38.76l-2.34,1q4.82,9.93,10.25,19.54a1.29,1.29,0,0,0,2.34-.31,29.13,29.13,0,0,0,.64-8.64,1.28,1.28,0,0,0-2.56,0,56.71,56.71,0,0,1-2.75,17.35l2.52.34q0-14-.05-27.89h-2.56a79.69,79.69,0,0,1-4.11,33.42l2.51.34q-.78-16.77-1.55-33.56c-.07-1.36-2.27-1.83-2.52-.34q-1.49,8.87-3,17.72l2.52.34a188.89,188.89,0,0,0-2.87-28.87c-.25-1.45-2.49-1.06-2.51.34q-.09,7.83-.19,15.65a1.29,1.29,0,0,0,2.39.65,50.88,50.88,0,0,0,5.6-19.59c.11-1.37-1.74-1.6-2.39-.64l-5.45,8,2.34,1a37.93,37.93,0,0,0,1.6-13,1.29,1.29,0,0,0-1.92-1.11l-11.76,8L426,248l4.36-11.63c.42-1.12-1-1.92-1.88-1.45A25.09,25.09,0,0,0,416.85,247c-.5,1.07.57,2.51,1.75,1.75a106.25,106.25,0,0,1,13.94-7.51l-1.88-1.44q-1.23,5.21-2.45,10.41a1.28,1.28,0,0,0,2.34,1,18,18,0,0,0,3.13-8.5c.15-1.25-1.44-1.5-2.19-.91l-4.86,3.82,2.14,1.25c.87-2.6,1.73-5.19,2.6-7.78.37-1.12-.95-1.93-1.89-1.45a31.13,31.13,0,0,0-8.24,6.12l2.14,1.25a25.81,25.81,0,0,0,1.8-6.83,1.29,1.29,0,0,0-1.93-1.1l-7.12,5.09,1.92,1.11.81-7.62c.13-1.22-1.43-1.53-2.19-.9a40.68,40.68,0,0,0-9.73,11.64l2.34,1,3.54-10.82c.48-1.48-1.54-2.06-2.34-1L400,249.46l2.34,1a55.18,55.18,0,0,0,3-10.25,1.29,1.29,0,0,0-2.34-1,68,68,0,0,0-7.37,14.56c-.57,1.56,1.87,2.18,2.47.68a79,79,0,0,0,4.29-14.84c.24-1.33-1.67-2.39-2.34-1a158,158,0,0,0-7.92,19.86l2.52.34q-.27-5.1-.52-10.2c-.09-1.64-2.65-1.65-2.57,0Z" transform="translate(-387.43 -233.27)"/>
    <path class="cls-1" d="M446.31,347.14a6.13,6.13,0,0,0-9.63-.53c-2.65,3.08-1.88,7.76,1,10.37,2.34,2.13,7.73,4.09,9.32.13,1.41-3.5.64-9.22-2.52-11.55a6.51,6.51,0,0,0-9.82,2.43,6.05,6.05,0,0,0,4.76,8.51c3.84.5,7-3.05,4.76-6.66-1.95-3.17-6.9-3.26-8.08.59a3.59,3.59,0,0,0,6.16,3.45,3,3,0,0,0-.27-4.33c-1.64-1.24-3.39,0-3.53,1.8a1.3,1.3,0,0,0,1.93,1.11,4.92,4.92,0,0,0,2.46-3.09c.48-1.58-2-2.25-2.47-.68a2.05,2.05,0,0,1-1.28,1.56l1.92,1.1c-.09,1.2-2.82,2.16-2.53,0,.26-1.93,2.67-1.51,3.48-.22,1.93,3.07-3.69,3.6-5,.95a3.78,3.78,0,0,1,3.14-5.28c2.39-.19,4.07,1.57,4.59,3.76.29,1.24.72,4.41-.06,5.57-1.25,1.86-4.6-.31-5.62-1.41a5,5,0,0,1-.71-6.06,3.53,3.53,0,0,1,5.76-.24c1,1.33,3.18.05,2.22-1.29Z" transform="translate(-387.43 -233.27)"/>
    <path class="cls-2" d="M391.82,253.41c4.42-11.25,17.41-16.29,28.77-16,15,.3,22.89,10.92,26.59,24.31,1.87,6.76,3.11,14.08,1.15,21a20.32,20.32,0,0,1-4.91,8.71c-1.87,1.9-4.43,2.94-6.27,4.86-3.19,3.31-2.43,7.38-1.34,11.47,1.8,6.82,3.67,13.63,5.51,20.44l2-2.6a51.78,51.78,0,0,0-15.46,2.7l2.53,1.43a133.45,133.45,0,0,1-3-22.61c-.16-3.88-.55-8,1.33-11.57,1.31-2.45,3.21-4.53,4.56-7,5-8.95,6.12-20.25,1.1-29.44-4.25-7.78-12.85-13.54-21.93-12.73a20.53,20.53,0,0,0-18,14.83l3.44-.91a44.4,44.4,0,0,1-6.57-8.13c-1.4-2.23-5-.17-3.55,2.08a48.59,48.59,0,0,0,7.21,9,2.08,2.08,0,0,0,3.44-.91c2.45-9.12,12.66-14.05,21.47-10.86,9.58,3.48,14.55,13.84,13.56,23.58A31.61,31.61,0,0,1,428,289.23c-2.26,3.39-4.21,6.06-4.69,10.19-1.2,10.12,1,21.46,3.08,31.33a2.07,2.07,0,0,0,2.53,1.43,48.47,48.47,0,0,1,14.37-2.55,2.08,2.08,0,0,0,2-2.6l-3.36-12.45c-1-3.55-3.39-8.85-3.07-12.56s6.26-6.3,8.47-8.85a23.42,23.42,0,0,0,3.69-5.92c5.33-12.17,1.4-28.57-5.11-39.62-6.75-11.45-18.94-15.74-31.78-14-11.32,1.54-22,7.72-26.28,18.66-1,2.47,3,3.54,4,1.1Z" transform="translate(-387.43 -233.27)"/>
    <path class="cls-2" d="M444.65,349.18c3.36,4.83-2.81,11.63-7.43,6.79-2-2.09-2.29-5.24.12-7.1a5.6,5.6,0,0,1,6.93-.06c2,1.74,4.91-1.16,2.91-2.91a9.79,9.79,0,0,0-12.56-.12c-4,3.21-4,8.84-.76,12.6s8.85,4.7,12.66,1.22c3.4-3.11,4.36-8.65,1.68-12.5-1.5-2.16-5.07-.1-3.55,2.08Z" transform="translate(-387.43 -233.27)"/>
  </g>
</svg>
