<svg id="Layer_1" data-name="Layer 1" xmlns="http://www.w3.org/2000/svg" viewBox="0 0 114.25 118.4">
  <defs>
    <style>
      .cls-1 {
        fill: #fd5967;
      }

      .cls-2 {
        fill: #231f20;
      }
    </style>
  </defs>
  <title>rocket</title>
  <g>
    <path class="cls-1" d="M430.48,273.12c-6.65-.19-11.9,7-9.57,13.28.41,1.12,2.22.63,1.8-.5-1.9-5.13,2.26-11.07,7.77-10.91a.94.94,0,0,0,0-1.87Z" transform="translate(-361.39 -240.54)"/>
    <path class="cls-1" d="M424.4,293.34a10.14,10.14,0,0,1,5.35,2.82.93.93,0,0,0,1.32-1.32,11.87,11.87,0,0,0-6.18-3.3c-1.17-.23-1.68,1.57-.49,1.8Z" transform="translate(-361.39 -240.54)"/>
    <path class="cls-1" d="M377.6,306.8l.38-.38-1.32-1.33-9,11.09c-.75.93.56,2.26,1.32,1.33l9-11.09c.74-.92-.47-2.21-1.32-1.33l-.38.39c-.84.87.48,2.19,1.32,1.32Z" transform="translate(-361.39 -240.54)"/>
    <path class="cls-1" d="M380.07,311.43a59.68,59.68,0,0,0-9,9.57c-.73,1,.9,1.89,1.61.94a58,58,0,0,1,8.74-9.19c.92-.78-.41-2.1-1.33-1.32Z" transform="translate(-361.39 -240.54)"/>
    <path class="cls-1" d="M384.32,313.52A108.4,108.4,0,0,0,372,326.91c-.73.94.59,2.27,1.32,1.32a108.4,108.4,0,0,1,12.31-13.39c.89-.81-.44-2.13-1.32-1.32Z" transform="translate(-361.39 -240.54)"/>
    <path class="cls-1" d="M389.66,318.86,379.49,329a.93.93,0,0,0,1.32,1.32L391,320.19a.94.94,0,0,0-1.33-1.33Z" transform="translate(-361.39 -240.54)"/>
    <path class="cls-1" d="M392.91,322.11l-10,11.43c-.79.9.52,2.23,1.32,1.32l10-11.43c.79-.9-.52-2.23-1.32-1.32Z" transform="translate(-361.39 -240.54)"/>
    <path class="cls-1" d="M400.45,326.45a61.81,61.81,0,0,0-9.76,12.15c-.63,1,1,2,1.62.95a59.06,59.06,0,0,1,9.47-11.78c.86-.84-.46-2.16-1.33-1.32Z" transform="translate(-361.39 -240.54)"/>
    <path class="cls-1" d="M405.27,333.39a59.81,59.81,0,0,0-6.56,10.07c-.55,1.06,1.06,2,1.61.94a58.79,58.79,0,0,1,6.27-9.69c.75-.93-.57-2.26-1.32-1.32Z" transform="translate(-361.39 -240.54)"/>
    <path class="cls-1" d="M413.22,337.08l-4.13,4.09a42.29,42.29,0,0,0-4,4c-1,1.28-.58,3.8,1.5,3.08,1.13-.39.64-2.2-.5-1.81,1.59-.55,3.1-2.73,4.28-3.9l4.14-4.1a.94.94,0,0,0-1.33-1.32Z" transform="translate(-361.39 -240.54)"/>
    <path class="cls-1" d="M417,340.82l-11.25,11.24a.94.94,0,0,0,1.33,1.32l11.24-11.24a.93.93,0,0,0-1.32-1.32Z" transform="translate(-361.39 -240.54)"/>
    <path class="cls-2" d="M378.65,299.88c8.73-15.68,19.71-30.45,34.37-41.07a80.45,80.45,0,0,1,24.1-12,69.16,69.16,0,0,1,13.36-2.65c3.9-.36,9.42-1.07,13.19.14s3.86,11.18,4.23,14.68a93.54,93.54,0,0,1,.43,15.06,66.29,66.29,0,0,1-7.83,27.72,107.31,107.31,0,0,1-15.24,20.95c-2.72,3-5.55,5.93-8.43,8.79-1.34,1.34-2.7,2.66-4.06,4s-3.51,4.2-5.25,5c-5.53,2.57-12.42-5.19-16.4-8.4s-7.77-6.43-11.53-9.78a319.84,319.84,0,0,1-22.75-22.5c-1.47-1.6-3.85.78-2.38,2.38a316.3,316.3,0,0,0,37.76,35c4.08,3.2,10.55,10.81,16.12,7s10.68-10,15.43-14.94c10.1-10.55,19.43-22.36,24.29-36.3,5.69-16.29,4-33.73.52-50.29a1.64,1.64,0,0,0-1.18-1.18c-40.73-6.58-73.26,23.66-91.65,56.73-1.06,1.9,1.85,3.6,2.9,1.7Z" transform="translate(-361.39 -240.54)"/>
    <path class="cls-2" d="M372,300.84a104.57,104.57,0,0,0-10.55,20,1.72,1.72,0,0,0,1.17,2.07,53.51,53.51,0,0,0,7.07,2.3c3,.71,6.56.22,7.7,4.07.73,2.45-.3,4.76,1.47,7,1.45,1.85,3.68,2.5,5.92,2.81,2.81.39,6.21-.64,8.36,2.17,1.25,1.63,1.92,4.62,2.71,6.56,1.51,3.7,3.05,12.53,8.75,11,3.4-.92,6.76-4.22,9.49-6.33a132.12,132.12,0,0,0,10.1-8.66c1.58-1.49-.8-3.86-2.38-2.38A128,128,0,0,1,411,350.65a30.82,30.82,0,0,1-4.49,3.21,3.84,3.84,0,0,1-4,1.07c-.57-1.3-1.12-2.6-1.65-3.91-1.75-4.25-3.31-12.8-8.18-14.73-2.41-1-5.1,0-7.57-.63-5.87-1.41-3.23-5.61-4.79-9.3-.85-2-2.46-2.88-4.49-3.46-4.1-1.18-8.2-1.7-12.23-3.28l1.17,2.07a100.59,100.59,0,0,1,10.22-19.15c1.22-1.8-1.7-3.48-2.91-1.7Z" transform="translate(-361.39 -240.54)"/>
    <path class="cls-2" d="M433.7,242.13a89.72,89.72,0,0,0-67.13,25.69,1.7,1.7,0,0,0,1.19,2.87l24.77,2.85c2.15.25,2.13-3.12,0-3.37l-24.77-2.84c.39,1,.79,1.91,1.19,2.87a86.35,86.35,0,0,1,64.75-24.71c2.17.11,2.16-3.26,0-3.36Z" transform="translate(-361.39 -240.54)"/>
    <path class="cls-2" d="M467.76,277.86a63.64,63.64,0,0,1-11.65,65.85l2.64.34A51.37,51.37,0,0,0,444,324.38c-1.66-1.36-4.05,1-2.38,2.38a49.42,49.42,0,0,1,14.26,19,1.69,1.69,0,0,0,2.64.35A66.92,66.92,0,0,0,471,277c-.79-2-4.05-1.12-3.24.89Z" transform="translate(-361.39 -240.54)"/>
    <path class="cls-2" d="M448.62,274.48c-5.72-8.7-19-9.69-27.39-4.36-8.78,5.58-10.35,18.07-3.93,26,6.7,8.3,18.71,9.47,27.42,3.68,4-2.65,7.46-6.8,8.23-11.64,1-6.23-3.33-11-6.53-15.87-.66-1-2.28-.06-1.61.95,2.19,3.31,5.24,6.65,6.16,10.63,1.32,5.79-2.62,11.24-7.19,14.31-7.49,5-17.76,4.5-24.09-2.16-6.6-6.93-5.89-19,2.48-24.31,7.47-4.72,19.67-4.17,24.83,3.69.66,1,2.28.06,1.62-.95Z" transform="translate(-361.39 -240.54)"/>
    <path class="cls-2" d="M391.8,250.34l-1.07,1.07a.94.94,0,0,0,1.33,1.32l1.07-1.07a.94.94,0,0,0-1.33-1.32Z" transform="translate(-361.39 -240.54)"/>
    <path class="cls-2" d="M393.32,252.91,378.16,266.7c-.89.82.44,2.13,1.33,1.33l15.15-13.8c.89-.81-.44-2.13-1.32-1.32Z" transform="translate(-361.39 -240.54)"/>
    <path class="cls-2" d="M398.23,249.26l-17.67,17.67a.93.93,0,0,0,1.32,1.32l17.67-17.66a.94.94,0,0,0-1.32-1.33Z" transform="translate(-361.39 -240.54)"/>
    <path class="cls-2" d="M403.61,248.22,384.87,268c-.83.87.49,2.19,1.32,1.32q9.38-9.9,18.74-19.81c.83-.87-.49-2.19-1.32-1.32Z" transform="translate(-361.39 -240.54)"/>
    <path class="cls-2" d="M407.28,249.76,389.07,269c-.83.87.49,2.2,1.32,1.32l18.22-19.26c.82-.88-.5-2.2-1.33-1.32Z" transform="translate(-361.39 -240.54)"/>
    <path class="cls-2" d="M415.36,248.19a72,72,0,0,1-11.05,10c-1,.7,0,2.33.94,1.61a73.58,73.58,0,0,0,11.43-10.31c.81-.9-.51-2.22-1.32-1.33Z" transform="translate(-361.39 -240.54)"/>
    <path class="cls-2" d="M472.63,291.54a36.58,36.58,0,0,0-8.2,11.43c-.5,1.09,1.11,2,1.61.95A35.3,35.3,0,0,1,474,292.86c.88-.82-.44-2.14-1.32-1.32Z" transform="translate(-361.39 -240.54)"/>
    <path class="cls-2" d="M473.18,300.66l-19.81,19.81a.94.94,0,0,0,1.33,1.32L474.51,302a.94.94,0,0,0-1.33-1.32Z" transform="translate(-361.39 -240.54)"/>
    <path class="cls-2" d="M471.69,308.81l-20.37,19.25c-.87.83.45,2.15,1.33,1.33L473,310.14c.88-.83-.44-2.15-1.32-1.33Z" transform="translate(-361.39 -240.54)"/>
    <path class="cls-2" d="M465.69,319.94,452.3,333.32a.94.94,0,0,0,1.33,1.32L467,321.26a.93.93,0,0,0-1.32-1.32Z" transform="translate(-361.39 -240.54)"/>
    <path class="cls-2" d="M463.55,329.58q-3.72,4.31-7.45,8.6c-.78.91.53,2.24,1.32,1.32q3.74-4.29,7.46-8.6c.78-.9-.54-2.23-1.33-1.32Z" transform="translate(-361.39 -240.54)"/>
  </g>
</svg>
