<svg id="Layer_1" data-name="Layer 1" xmlns="http://www.w3.org/2000/svg" viewBox="0 0 137.38 102.36">
  <defs>
    <style>
      .cls-1 {
        fill: #fd5967;
      }

      .cls-2 {
        fill: #231f20;
      }
    </style>
  </defs>
  <title>saturn</title>
  <g>
    <path class="cls-1" d="M414.46,261.68l4.25-.67c1.19-.19.68-2-.5-1.81l-4.25.67c-1.18.19-.68,2,.5,1.81Z" transform="translate(-351.25 -244.7)"/>
    <path class="cls-1" d="M450.11,282c.29,1.28.59,2.57.88,3.85s2.08.68,1.81-.49-.59-2.57-.89-3.86-2.07-.67-1.8.5Z" transform="translate(-351.25 -244.7)"/>
    <path class="cls-1" d="M423.23,289.8l4.31-2.54a.94.94,0,0,0-.94-1.62l-4.31,2.54a.94.94,0,0,0,.94,1.62Z" transform="translate(-351.25 -244.7)"/>
    <path class="cls-1" d="M393.64,279.54c-.57,1.28-1.14,2.57-1.72,3.86-.48,1.09,1.13,2,1.62.94.57-1.29,1.14-2.57,1.72-3.86.48-1.09-1.13-2-1.62-.94Z" transform="translate(-351.25 -244.7)"/>
    <path class="cls-1" d="M442.49,315.92a11.48,11.48,0,0,1,3.72-1.93.93.93,0,0,0-.5-1.8,13.08,13.08,0,0,0-4.16,2.11c-.94.72,0,2.35.94,1.62Z" transform="translate(-351.25 -244.7)"/>
    <path class="cls-1" d="M388.78,301a18.33,18.33,0,0,1-.32,5.77c-.26,1.17,1.54,1.67,1.8.5a20,20,0,0,0,.39-6.27c-.11-1.19-2-1.2-1.87,0Z" transform="translate(-351.25 -244.7)"/>
    <path class="cls-1" d="M408.2,312a30.46,30.46,0,0,1-2.54,6.63c-.56,1.06,1.06,2,1.62.94a32.6,32.6,0,0,0,2.72-7.07.93.93,0,0,0-1.8-.5Z" transform="translate(-351.25 -244.7)"/>
    <path class="cls-1" d="M420.21,333.66l5.14.52c1.2.12,1.19-1.75,0-1.87l-5.14-.52c-1.19-.12-1.18,1.75,0,1.87Z" transform="translate(-351.25 -244.7)"/>
    <path class="cls-1" d="M387.28,261.49c-7.9-3.67-18-2.91-24,4a17.33,17.33,0,0,0-.38,21.82c.71.9,1.86-.25,1.47-1.13-3.2-7.3-5.26-15.91,2.82-20.88,6.11-3.75,13.72-2.6,20.42-1.57l.5-1.8a36.8,36.8,0,0,0-19.93,2.25c-4.43,1.86-10.26,4.86-9.15,10.59,1.18,6.14,8.29,11.86,12.58,15.88a144,144,0,0,0,17.73,14,336,336,0,0,0,42.56,24,61.15,61.15,0,0,0,21.61,6.3c6.65.55,15.15.93,21.37-2,5.35-2.54,7.31-8.1,5.22-13.57-2.57-6.7-9.5-9.61-15.69-12.1-.17.6-.34,1.2-.5,1.8,6.51,1.63,20.8,9.21,15.8,18.18-4.18,7.51-17.86,5.76-24.6,4.22-13.9-3.19-27.73-9.69-40.83-15.25-12.76-5.41-25.31-11.93-35.36-21.65-5-4.8-10.87-11.11-12.31-18.1-2.28-11.05,9.26-11.85,16.88-11.21a.94.94,0,0,0,.25-1.84c-6.64-1.21-14-1.85-19.74,2.32a12.93,12.93,0,0,0-5.08,13.15c1.21,6.81,6.35,11.65,11.6,15.67,7.08,5.43,14.5,10.47,22,15.36,14.79,9.71,30.07,19.63,46.89,25.44a80.71,80.71,0,0,0,24.36,4.61c6.58.15,14.88-.13,20.58-3.91,14-9.3-9.9-25.45-17.53-29.19-1.07-.53-2,1-.94,1.61,7.13,4,18.11,10.7,14.85,20.63-3.77,11.52-19.84,7.28-28,4.78a383.38,383.38,0,0,1-48.29-18.14c-14.7-6.77-30.81-14.58-42.95-25.47-6.79-6.09-11.81-15.47-4.91-23.64,6.72-8,18-6.57,25.46-.57a1,1,0,0,0,1.32,0,7.77,7.77,0,0,1,5.9-3.18.94.94,0,0,0,.47-1.74,25.08,25.08,0,0,0-38.32,14.09c-.28,1,1.23,1.69,1.71.73a28.39,28.39,0,0,1,28.79-15.7c-.08-.61-.16-1.22-.25-1.84-8.49,2-20.13,5.3-25.68,12.65-5.37,7.1,0,14.2,5.32,19.33a.94.94,0,0,0,1.56-.91l-3.41-17.22a1,1,0,0,0-1.71-.23c-5.9,11.2,5.49,23.13,13.78,29.38,11.9,9,26.34,15,39.51,21.82,13.66,7.09,27.92,13.64,43.42,15.1a56.5,56.5,0,0,0,22.21-2.06c5.07-1.6,9.45-3.38,10.06-9.17,1.31-12.45-9.14-23.57-21.09-25-.92-.11-1.28,1.35-.48,1.74,9.56,4.64,20.58,14.73,21.18,26.08.45,8.38-11.18,10.72-17.69,10.47-6.21-.24-12.2-2.34-18-4.33-1.14-.39-1.63,1.41-.5,1.8,7.47,2.55,15.27,5.17,23.27,4.22,5.36-.63,12.47-3.12,14.58-8.65,2.24-5.88-2.61-13.54-5.94-18.08a42.66,42.66,0,0,0-15.92-13.12l-.47,1.74a22.18,22.18,0,0,1,17.36,12.74c1.92,4.07,3,9.4.49,13.31-2.35,3.6-7.34,4.64-11.42,5.52-16.1,3.47-32.59-1.07-47.26-7.67-13.27-6-26.23-13-39.06-19.88-6.31-3.38-12.55-7.09-17.79-12-5.85-5.51-13-14.69-8.59-23l-1.71-.23L361,289.94l1.56-.91c-2.76-2.68-6.05-5.75-6.88-9.69-1.08-5.17,2.69-8.89,6.62-11.43,5.92-3.82,13-6.11,19.8-7.73,1.1-.27.73-1.73-.25-1.84A30.15,30.15,0,0,0,351.46,275l1.7.72a23.21,23.21,0,0,1,35.57-13l.48-1.74a11.21,11.21,0,0,0-3.46.78c-1.17.5-2.38,2-3.64,2-1,0-3.09-2-4.13-2.51a22.45,22.45,0,0,0-5.31-1.73,18.24,18.24,0,0,0-17.46,5.76c-10.61,12.41,2.36,25.13,12.49,32.05,15.79,10.78,33,19.33,50.74,26.46,8.86,3.56,17.86,6.76,26.93,9.71,8.33,2.7,17.93,6.72,26.83,4.57,6.42-1.54,11.43-6.48,10.74-13.41-.89-8.93-9.07-13.89-16.16-17.82l-.94,1.61c7,3.46,14.06,8.39,18.53,15,8.36,12.31-10.07,14.5-17.91,14.66-17,.35-33.22-6.19-47.86-14.34a424.84,424.84,0,0,1-40.59-26c-6.64-4.76-15.29-10-17.15-18.61-3.05-14.09,12.74-15.67,22.39-13.91.08-.61.16-1.23.25-1.84-4.92-.41-10.72-.68-15,2.34-4.49,3.2-4.76,8.78-3,13.59,4.47,12.19,16.84,21.83,27.54,28.37,13.56,8.3,28.72,13.53,43.43,19.38,11.73,4.67,29.56,12.4,41.64,4.34,4.46-3,5.25-8,2.81-12.65-3.22-6.11-10.1-9.87-16.55-11.49a.93.93,0,0,0-.5,1.8c4,1.6,8.28,3.26,11.36,6.36,4.15,4.15,5.82,11.31.11,15.14S460,333.57,453.52,333c-15.34-1.26-29.24-10.22-42.45-17.48-12.56-6.91-24.92-14.44-35.68-24-4.19-3.72-18.7-15.29-13-21.89,5.45-6.26,17.74-7.06,25.19-5.94,1.18.18,1.69-1.62.5-1.8-8.18-1.26-17.61-2.46-24.3,3.55s-4.2,14.48-1.06,21.64l1.47-1.13a15.45,15.45,0,0,1,1.27-20.14c5.41-5.49,14.17-5.86,20.84-2.75,1.08.5,2-1.11.94-1.62Z" transform="translate(-351.25 -244.7)"/>
    <path class="cls-2" d="M429.66,244.76c-20.33-.9-41.13,8.62-52.11,26.1-10.47,16.65-10,39.73,1.72,55.67,12.53,17.09,37.5,23.92,57.64,18.94,22.41-5.53,33.72-28.29,31.54-50.21a54.81,54.81,0,0,0-45.88-48.42c-2.12-.35-3,2.9-.89,3.24,20.09,3.24,37,17.76,42.07,37.65s-1.92,44.54-22.11,52.68c-18.26,7.37-43.07,2.27-56.59-12.15-12.59-13.42-15-35-7-51.32,9.31-19.17,30.85-29.74,51.64-28.81,2.16.09,2.16-3.27,0-3.37Z" transform="translate(-351.25 -244.7)"/>
    <path class="cls-2" d="M385.49,260c-7-.11-14.83-.16-20.74,4.2-4.38,3.23-7.46,8.76-6.09,14.28,1.5,6.07,7.9,10.63,12.37,14.46a177.35,177.35,0,0,0,18.13,13.67A180.56,180.56,0,0,0,431,326.91,175.75,175.75,0,0,0,454.16,333c6.3,1.2,13.6,3,20,2.09,5.6-.77,9.9-4.67,9.26-10.65-1-8.71-9.88-12.35-14.57-18.69-1.28-1.72-4.2,0-2.91,1.7,3.8,5.13,15.51,11.18,14.2,18.63-1.61,9.15-15.83,5.29-21.89,4.26a176.64,176.64,0,0,1-82.37-37.68c-4.86-4-14.65-10.37-14.24-17.49.66-11.49,15.47-12,23.8-11.84,2.16,0,2.16-3.33,0-3.36Z" transform="translate(-351.25 -244.7)"/>
  </g>
</svg>
