<svg id="Layer_1" data-name="Layer 1" xmlns="http://www.w3.org/2000/svg" viewBox="0 0 93.25 132.75">
  <defs>
    <style>
      .cls-1 {
        fill: #fd5967;
      }

      .cls-2 {
        fill: #231f20;
      }
    </style>
  </defs>
  <title>stationary</title>
  <g>
    <path class="cls-1" d="M413.66,239.92a5.39,5.39,0,0,0-.68,2.44.94.94,0,0,0,1.74.47c.41-.86.81-1.72,1.21-2.59l-1.71-.22.46,2c.17.73,1.39,1,1.71.22A16.2,16.2,0,0,0,417.6,238l-1.83-.25a14.19,14.19,0,0,0,.28,3.56c.2,1,1.49.75,1.8,0a26.52,26.52,0,0,0,1.16-3.46l-1.81-.5-.63,3.68a.94.94,0,0,0,1.71.72,19.56,19.56,0,0,0,1.91-4l-1.81-.5c-.25,1.41-.5,2.82-.76,4.23-.17,1,1.22,1.75,1.71.72a30.07,30.07,0,0,0,2.08-5.62.93.93,0,0,0-1.8-.49,39.41,39.41,0,0,0-1.59,8.26c-.08,1,1.3,1.23,1.74.48a20.75,20.75,0,0,0,2.49-6.34.93.93,0,0,0-1.8-.5,12.57,12.57,0,0,0-.67,6.89c.16,1,1.55.81,1.8,0q1.1-3.44,2.17-6.87l-1.84-.25a44.6,44.6,0,0,0,.12,8.49c.09.81,1.3,1.41,1.74.47a22.6,22.6,0,0,0,2.06-7.78H424l.15,6.86c0,.88,1.32,1.34,1.74.47a20.21,20.21,0,0,0,1.75-5.15l-1.84-.25a31,31,0,0,0-.19,5.1c0,.85,1.32,1.37,1.74.47l1-2.15c.5-1.09-1.11-2-1.62-.95l-1,2.15,1.75.48a31,31,0,0,1,.19-5.1c.13-1-1.63-1.28-1.83-.24a19.09,19.09,0,0,1-1.56,4.7l1.74.47-.15-6.86a.94.94,0,0,0-1.87,0,19.6,19.6,0,0,1-1.81,6.84l1.75.47a44.6,44.6,0,0,1-.12-8.49c.09-1.09-1.53-1.22-1.83-.25q-1.09,3.44-2.17,6.88h1.8a10.81,10.81,0,0,1,.67-5.9l-1.8-.5a19.53,19.53,0,0,1-2.3,5.89l1.74.47a37.36,37.36,0,0,1,1.52-7.77l-1.8-.49a28.35,28.35,0,0,1-1.89,5.17l1.71.72c.25-1.41.5-2.82.76-4.23a.94.94,0,0,0-1.81-.5,16.82,16.82,0,0,1-1.71,3.58l1.71.72.63-3.67c.2-1.17-1.5-1.69-1.81-.5a25.06,25.06,0,0,1-1.15,3.46h1.8a11.69,11.69,0,0,1-.21-3.06c0-1-1.69-1.3-1.84-.25a14.23,14.23,0,0,1-1,3.78l1.71.22-.46-2a.94.94,0,0,0-1.7-.22c-.41.86-.81,1.73-1.21,2.59l1.74.47c.14-.5.29-1,.43-1.5.57-1.06-1-2-1.62-.94Z" transform="translate(-373.99 -230.43)"/>
    <path class="cls-1" d="M414.86,248.84l-.88,3a.94.94,0,0,0,1.47,1.13l3-2.47-1.32-1.33-3.63,4.13c-.67.76.19,2.06,1.14,1.47l4.16-2.63-1.13-1.47-6,5.52c-.9.82.41,2.08,1.32,1.32a11.7,11.7,0,0,1,3.66-2.31l-1.14-1.47a53.42,53.42,0,0,1-4.95,5c-.78.7.25,2.08,1.13,1.47l3.44-2.4L414,256.37a29.41,29.41,0,0,1-3.94,4.18l1.32,1.33a17.5,17.5,0,0,1,4.86-3.16l-1.14-1.46-5.44,5.83a.93.93,0,0,0,1.32,1.32,18.55,18.55,0,0,1,4.07-2.89L414,260.05l-5.81,5.9c-.72.73.23,2.09,1.13,1.47l3.16-2.18-1.13-1.47-3.5,4.32c-.61.75.21,2.16,1.13,1.47l3-2.26-1.13-1.47a46.2,46.2,0,0,0-4.67,5.77c-.64.93.71,1.76,1.47,1.13l4.66-3.84L411,267.56l-5.85,6.16c-.71.74.21,2.06,1.14,1.46l5-3.19-1.13-1.47-5.52,5.61a.94.94,0,0,0,.91,1.56,7.74,7.74,0,0,0,4.09-2.48c.81-.88-.5-2.2-1.33-1.32a51.4,51.4,0,0,0-4.58,5.61c-.59.84.52,1.63,1.28,1.28l3.42-1.59-1.13-1.47-5.38,6a.93.93,0,0,0,1.32,1.32l3.61-2.86-1.32-1.32-5,5.19c-.71.75.21,2.06,1.13,1.47a8.89,8.89,0,0,0,4.19-5.91.94.94,0,0,0-1.71-.72q-2.42,3.87-5.11,7.55c-.62.85.78,1.93,1.47,1.13a6.85,6.85,0,0,1,2.52-2.13l-1.13-1.47a24,24,0,0,0-3.3,5.09c-.43.89.74,2,1.47,1.14a13,13,0,0,1,3.62-3.1l-1.28-1.28a53.84,53.84,0,0,1-5.92,7.2l1.32,1.32a27.09,27.09,0,0,1,4.72-4L401.2,291l-4.95,6.57,1.62.95,2.77-2.4-1.28-1.28c-1.69,2.43-3.47,4.77-5.37,7-.65.78.17,2,1.14,1.47a13.91,13.91,0,0,0,4.58-4.19l-1.62-.94a42.71,42.71,0,0,1-4,5.95.93.93,0,0,0,1.32,1.32l2.54-2-1.32-1.32-5.45,6.07,1.47,1.13c1.35-1.78,2.7-3.57,4.06-5.35l-1.62-.94-4.28,7.14a.94.94,0,0,0,1.47,1.13l4.34-4.46-1.32-1.33c-1.87,2.09-3.74,4.17-5.6,6.26l1.32,1.32a13.57,13.57,0,0,1,2.6-2.59l-1.47-1.13a40,40,0,0,1-5.2,6.88c-.7.74.22,2.1,1.13,1.47l3-2.05-1.28-1.28a20.44,20.44,0,0,1-2.54,3.68.94.94,0,0,0,1.33,1.32l3.33-3.07-1.47-1.14a33.45,33.45,0,0,1-4.58,6l1.32,1.32a9.69,9.69,0,0,1,2.68-2.62l-1.28-1.28a40.66,40.66,0,0,1-4.17,6.08.94.94,0,0,0,1.33,1.32l2.23-2L386.51,323c-.94,1.68-1.89,3.35-2.84,5a.94.94,0,0,0,1.47,1.13l3.17-2.56-1.47-1.14q-2,2.67-4,5.32c-.56.74.54,1.8,1.28,1.28l3-2.12-1.28-1.28a16.65,16.65,0,0,1-3.35,4.43L384,334l.67-1.1-1.56-.91-1,2.11,1.61.95a155,155,0,0,0,11.71-27.16c.34-1.05-1.13-1.56-1.71-.72l-3,4.47c-.68,1,.94,1.93,1.61.94l3-4.46-1.71-.73a152.47,152.47,0,0,1-11.52,26.71.94.94,0,0,0,1.61.95,4.34,4.34,0,0,0,1.22-2.56.94.94,0,0,0-1.56-.91,2.56,2.56,0,0,0-1.15,1.92.94.94,0,0,0,1.56.91,17.84,17.84,0,0,0,3.65-4.81c.4-.77-.47-1.85-1.28-1.28l-3,2.13,1.28,1.27,4-5.31c.69-.91-.72-1.75-1.47-1.14l-3.17,2.57,1.47,1.14q1.41-2.52,2.84-5a.94.94,0,0,0-1.47-1.13l-2.24,2,1.33,1.32a45,45,0,0,0,4.46-6.46c.42-.75-.49-1.86-1.28-1.27a14.55,14.55,0,0,0-3.06,2.91c-.73.91.47,2.21,1.32,1.32a36.14,36.14,0,0,0,4.88-6.39.94.94,0,0,0-1.47-1.13l-3.34,3.07,1.33,1.32a32.65,32.65,0,0,0,2.82-4.06c.46-.77-.48-1.83-1.28-1.28l-2.95,2.06,1.13,1.47a41.47,41.47,0,0,0,5.5-7.27c.58-1-.69-1.74-1.47-1.13a13.57,13.57,0,0,0-2.6,2.59c-.72.92.5,2.24,1.32,1.32l5.6-6.25c.8-.89-.48-2.19-1.32-1.33L391,310.09l1.46,1.13,4.29-7.14c.63-1.06-.91-1.87-1.62-.94l-4.05,5.35c-.64.84.76,1.91,1.47,1.13l5.44-6.07a.93.93,0,0,0-1.32-1.32l-2.54,2,1.32,1.32a46.72,46.72,0,0,0,4.26-6.33.94.94,0,0,0-1.62-.94,9.3,9.3,0,0,1-3.91,3.52l1.14,1.47c2-2.4,3.87-4.86,5.66-7.43.59-.85-.52-1.62-1.28-1.28a6.85,6.85,0,0,0-3.45,3.07c-.64,1.06.91,1.88,1.62.95l4.94-6.58c.57-.75-.53-1.78-1.28-1.28a31.1,31.1,0,0,0-5.09,4.29c-.83.87.48,2.18,1.32,1.32a54.33,54.33,0,0,0,6.21-7.58c.55-.79-.5-1.73-1.28-1.28a14.18,14.18,0,0,0-4,3.39l1.47,1.14a21.44,21.44,0,0,1,3-4.72c.65-.77-.16-2-1.13-1.46a10.85,10.85,0,0,0-2.9,2.42l1.47,1.13c1.79-2.46,3.49-5,5.1-7.55l-1.71-.72a6.18,6.18,0,0,1-3.32,4.79l1.13,1.47,5-5.19c.86-.89-.4-2-1.32-1.32l-3.61,2.86,1.32,1.32,5.38-6a.94.94,0,0,0-1.13-1.47L404,279.16l1.28,1.28a44.21,44.21,0,0,1,4.29-5.23l-1.33-1.32-3.25,2c.3.52.6,1,.91,1.56l5.51-5.61c.73-.74-.22-2.06-1.13-1.47l-5,3.2,1.14,1.47,5.84-6.15c.85-.89-.4-2.08-1.32-1.33l-4.66,3.85,1.47,1.13a43.43,43.43,0,0,1,4.37-5.39c.7-.73-.25-2.12-1.13-1.46L408,268l1.13,1.47,3.5-4.33c.61-.75-.18-2.12-1.13-1.47l-3.16,2.18,1.13,1.47q2.91-2.94,5.81-5.9a.93.93,0,0,0-1.13-1.46,19.72,19.72,0,0,0-4.45,3.18l1.32,1.32,5.45-5.83a.94.94,0,0,0-1.14-1.47,19.92,19.92,0,0,0-5.23,3.44c-.9.81.42,2.11,1.32,1.33a30.63,30.63,0,0,0,3.95-4.18c.58-.76-.18-2.14-1.14-1.47l-3.43,2.39,1.13,1.47a54.77,54.77,0,0,0,5-5,.94.94,0,0,0-1.14-1.46,18.15,18.15,0,0,0-4,2.6l1.32,1.32,6-5.52a.94.94,0,0,0-1.13-1.47l-4.17,2.63,1.14,1.47,3.62-4.12a.94.94,0,0,0-1.32-1.33l-3,2.48,1.47,1.13a9,9,0,0,0,1.06-3.45c.2-1.18-1.6-1.69-1.8-.5Z" transform="translate(-373.99 -230.43)"/>
    <path class="cls-1" d="M455.62,244.5l3.85,1.71c1.09.48,2-1.13.94-1.62l-3.85-1.7c-1.09-.49-2,1.12-.94,1.61Z" transform="translate(-373.99 -230.43)"/>
    <path class="cls-1" d="M448.82,257.61l3.58,1.59c1.09.48,2-1.13.94-1.62L449.77,256c-1.1-.48-2,1.13-.95,1.61Z" transform="translate(-373.99 -230.43)"/>
    <path class="cls-1" d="M445.05,267.47l3.71,1.27c1.14.39,1.63-1.42.5-1.81l-3.71-1.27c-1.14-.39-1.63,1.42-.5,1.81Z" transform="translate(-373.99 -230.43)"/>
    <path class="cls-1" d="M437.82,281.7l3,1.34a1,1,0,0,0,1.28-.34,1,1,0,0,0-.34-1.28l-3-1.34a1,1,0,0,0-1.28.34.94.94,0,0,0,.33,1.28Z" transform="translate(-373.99 -230.43)"/>
    <path class="cls-1" d="M433.3,291.16l4.15,2.52a.94.94,0,0,0,.94-1.62l-4.14-2.51a.94.94,0,0,0-.95,1.61Z" transform="translate(-373.99 -230.43)"/>
    <path class="cls-1" d="M424.86,311.66l3.17,1.8a.94.94,0,0,0,1-1.61L425.8,310a.94.94,0,0,0-.94,1.62Z" transform="translate(-373.99 -230.43)"/>
    <path class="cls-1" d="M418.29,323.41a13,13,0,0,1,3.57,1.79c1,.69,1.92-.93.94-1.62a14.39,14.39,0,0,0-4-2c-1.15-.37-1.65,1.44-.5,1.8Z" transform="translate(-373.99 -230.43)"/>
    <path class="cls-1" d="M410.64,342.83a12.32,12.32,0,0,1,4.12,2c1,.71,1.91-.91.95-1.62a14,14,0,0,0-4.57-2.22.93.93,0,0,0-.5,1.8Z" transform="translate(-373.99 -230.43)"/>
    <path class="cls-1" d="M434.11,337.16a138.79,138.79,0,0,0-5.92,14.08c-.3.86,1,1.63,1.56.91a151.12,151.12,0,0,0,9.11-12.39l-1.71-.72a113.59,113.59,0,0,1-7.48,15,.94.94,0,0,0,1.61.95q6-8.56,11.3-17.59a.94.94,0,0,0-1.62-.94,109.06,109.06,0,0,0-8.69,17.06c-.34.86,1,1.6,1.57.91,3.89-4.65,7.49-9.52,11.05-14.42l-1.61-.94-8.07,15c-.48.89.74,2,1.47,1.13,4.16-4.75,7.29-10.13,10.33-15.64a.94.94,0,0,0-1.62-.95q-4.59,8.1-8.8,16.41c-.37.74.47,1.89,1.28,1.28C442.72,352.63,446,346,449.46,341l-1.62-1-8.25,16.45a.94.94,0,0,0,1.61.95l12.26-18.28-1.71-.72c-1.14,4.23-3.13,8-5.11,11.85-1.1,2.15-2.76,4.49-2.55,7,.06.71,1,1.36,1.59.66l11.88-15.16-1.47-1.14-6,11c-1.24,2.26-3,4.4-2.9,7a1,1,0,0,0,1.6.66l2-2.19c.81-.89-.51-2.22-1.32-1.32l-2,2.19,1.59.66c-.12-2.74,2.74-6.28,4-8.64l4.63-8.45c.48-.89-.79-2-1.47-1.14l-11.88,15.17,1.6.66c-.28-3.28,3.18-7.61,4.57-10.45a43.08,43.08,0,0,0,3-7.89.94.94,0,0,0-1.71-.72q-6.12,9.15-12.25,18.28l1.61.95q4.13-8.24,8.26-16.45a.94.94,0,0,0-1.62-1c-3.2,4.53-6.46,11.22-10.91,14.61l1.28,1.28q4.2-8.31,8.8-16.4l-1.62-.95c-3,5.37-6,10.64-10,15.27l1.47,1.13q4-7.5,8.06-15a.93.93,0,0,0-1.61-.94c-3.47,4.77-7,9.51-10.77,14l1.57.91a105.35,105.35,0,0,1,8.5-16.62l-1.62-.94q-5.26,9-11.29,17.58l1.61.95A116,116,0,0,0,439,339.53c.4-1-1.16-1.56-1.71-.72a144.14,144.14,0,0,1-8.81,12l1.56.91a135.81,135.81,0,0,1,5.73-13.63c.53-1.08-1.09-2-1.61-.95Z" transform="translate(-373.99 -230.43)"/>
    <path class="cls-2" d="M379.48,331q16.5-42.24,33-84.49l-2.07,1.18a42.18,42.18,0,0,1,14,5.53l-.6-2.3-20.4,46.78-10.2,23.4c-1.54,3.52-2.77,7.46-4.71,10.79a3.46,3.46,0,0,1-2.75,3l-1.5-.76c-2-.46-4.21-2.13-6-3s-3.63,1.93-1.7,2.9c4.68,2.36,10.65,7.61,14.1,1.43,4.71-8.42,7.92-18.15,11.77-27l24.33-55.78a1.75,1.75,0,0,0-.61-2.31,44.93,44.93,0,0,0-14.81-5.87,1.75,1.75,0,0,0-2.07,1.18q-16.5,42.24-33,84.49c-.79,2,2.47,2.89,3.25.89Z" transform="translate(-373.99 -230.43)"/>
    <path class="cls-2" d="M375.18,332.65A87.67,87.67,0,0,1,374,350.81c-.22,1.24,1.17,2.9,2.47,1.9a78.52,78.52,0,0,0,15.09-15.27c1.3-1.73-1.62-3.41-2.9-1.69a72.78,72.78,0,0,1-13.89,14.05l2.47,1.9a90.69,90.69,0,0,0,1.29-19.05c-.08-2.16-3.45-2.17-3.36,0Z" transform="translate(-373.99 -230.43)"/>
    <path class="cls-2" d="M397,342.27Q423.37,288.14,447.56,233l-1.9.77q4.74,2,9.4,4.09c.93.43,3.83,1.15,4.4,2.06,1.13,1.84.31,4.23-.28,6-2,5.89-5.28,11.62-7.85,17.28L436,296.83q-7.44,16.38-14.87,32.76L417,338.68c-1,2.2-2.06,6.56-3.72,8.19-2.25,2.22-5.77-.39-8.38-1.67l-8.39-4.14c-1.93-1-3.64,1.95-1.7,2.91l10.06,5c1.85.91,4.72,3,6.91,3.13,4.92.22,6.58-8.26,8.13-11.68l20.25-44.58Q450.1,274,460,252.13c1.45-3.18,6.34-9.74,3.59-13.36-1.51-2-4.74-2.87-6.85-3.83-3.37-1.55-6.78-3-10.21-4.44a1.68,1.68,0,0,0-1.9.78q-24.18,55.14-50.54,109.29c-.95,1.94,1.95,3.65,2.9,1.7Z" transform="translate(-373.99 -230.43)"/>
    <path class="cls-2" d="M426.7,354.93q6.17-13.83,13.24-27.24c1.05-2,2.07-5,3.6-6.67l.92-1.65a8.46,8.46,0,0,1,3.6.42c4.14.83,10.51,2.51,13.76,5.22a1.82,1.82,0,0,1,1.7,2.4q-1,2.35-2,4.7c-1,2.26-2,4.52-3,6.76q-2.65,5.89-5.49,11.71c-1,2-1.87,4.84-3.29,6.61q-.6,2.67-3.57,2.35-2.34-.89-4.64-1.88a125.69,125.69,0,0,1-12.94-6.57,1.68,1.68,0,0,0-1.7,2.9c5.72,3.3,12,7,18.38,8.8,4.1,1.17,5.52-.37,7.37-3.9,3.43-6.54,6.54-13.26,9.54-20,1.37-3.08,6.27-10.64,4.69-14.13-1.5-3.34-8.35-5.08-11.52-6.24s-9.6-4.29-12.88-2.06c-1.81,1.24-2.69,4.32-3.7,6.19q-2.7,5-5.28,10.06c-3.43,6.76-6.66,13.61-9.75,20.53-.87,2,2,3.67,2.91,1.69Z" transform="translate(-373.99 -230.43)"/>
    <path class="cls-2" d="M435.52,336.79a106.54,106.54,0,0,1,22.24,6.62c2,.84,2.86-2.41.89-3.24a105.27,105.27,0,0,0-22.23-6.62c-2.12-.39-3,2.85-.9,3.24Z" transform="translate(-373.99 -230.43)"/>
    <path class="cls-2" d="M411,246.72c.78-1.75.81-3.89,3.13-3.23a24.28,24.28,0,0,1,3.75,1.87l8,4c-.14-.36-.28-.71-.43-1.06l-.84,2c-.47,1.11,1.34,1.59,1.8.49l.85-2a.94.94,0,0,0-.43-1.06c-4.22-2.1-8.54-4.88-13-6.46-3-1.06-3.51,2.23-4.5,4.48-.49,1.09,1.13,2,1.61.94Z" transform="translate(-373.99 -230.43)"/>
    <path class="cls-2" d="M413.29,243c1.2-3.91,5-6.86,9.16-5.71a6.25,6.25,0,0,1,3.07,10.32c-.82.89.5,2.21,1.32,1.32a8.1,8.1,0,0,0-2.91-13.1c-5.43-2.17-10.83,1.39-12.44,6.67a.93.93,0,0,0,1.8.5Z" transform="translate(-373.99 -230.43)"/>
    <path class="cls-2" d="M414,248.08q-17,42.57-34,85.14c-.45,1.11,1.36,1.6,1.8.49q17-42.57,34-85.14c.45-1.12-1.36-1.6-1.8-.49Z" transform="translate(-373.99 -230.43)"/>
    <path class="cls-2" d="M418.42,250c-9.16,29.34-22.63,57.33-34.8,85.51-.47,1.09,1.14,2,1.61.94,12.23-28.32,25.79-56.46,35-86,.36-1.15-1.45-1.64-1.81-.5Z" transform="translate(-373.99 -230.43)"/>
    <path class="cls-2" d="M377,341.67a41,41,0,0,0,7,1.64c1.17.16,1.7-1.59.5-1.81l-6.29-1.12c-.53-.09-1.27.24-1.19.9A12.47,12.47,0,0,1,377,345c-.14.83.89,1.69,1.57.91a8.19,8.19,0,0,0,1.63-2.87l-1.8-.5a11.29,11.29,0,0,1-1,3.47l1.71.73a9.24,9.24,0,0,1,1.76-3.19l-1.57-.91c-.4,1-.8,2-1.21,2.95s1,1.58,1.57.91a28.72,28.72,0,0,1,3.83-3.65l-1.56-.91a9.83,9.83,0,0,1-2,3.09c-.81.88.51,2.21,1.33,1.32a12.7,12.7,0,0,0,2.43-3.91c.39-1-.93-1.41-1.56-.91a28.8,28.8,0,0,0-3.84,3.65l1.57.91c.4-1,.8-2,1.21-2.95s-1-1.6-1.57-.91a11.73,11.73,0,0,0-2.23,4c-.32,1,1.25,1.68,1.71.72a13.19,13.19,0,0,0,1.2-3.92.93.93,0,0,0-1.8-.5,5.8,5.8,0,0,1-1.16,2.05l1.57.91a14.49,14.49,0,0,0,.11-4.21l-1.18.9,6.29,1.13c.17-.61.34-1.21.5-1.81a41.33,41.33,0,0,1-7-1.63c-1.14-.38-1.63,1.43-.49,1.8Z" transform="translate(-373.99 -230.43)"/>
    <path class="cls-2" d="M450.79,249.05a24.39,24.39,0,0,0,6.29,3.15c1.15.38,1.64-1.43.5-1.81a22.13,22.13,0,0,1-5.84-2.95c-1-.7-1.92.93-.95,1.61Z" transform="translate(-373.99 -230.43)"/>
    <path class="cls-2" d="M442,272.33a22.46,22.46,0,0,0,5.91,2.92c1.14.37,1.64-1.44.49-1.81a20.36,20.36,0,0,1-5.46-2.72c-1-.69-1.92.93-.94,1.61Z" transform="translate(-373.99 -230.43)"/>
    <path class="cls-2" d="M427,300.61a31.07,31.07,0,0,0,6.19,2.21c1.17.28,1.67-1.52.5-1.8a28.39,28.39,0,0,1-5.74-2c-1.08-.52-2,1.09-.95,1.62Z" transform="translate(-373.99 -230.43)"/>
    <path class="cls-2" d="M412.82,334.29l7.63,2.79c1.14.42,1.62-1.39.5-1.8l-7.64-2.8c-1.13-.41-1.62,1.39-.49,1.81Z" transform="translate(-373.99 -230.43)"/>
  </g>
</svg>
