<svg id="Layer_1" data-name="Layer 1" xmlns="http://www.w3.org/2000/svg" viewBox="0 0 133.12 119.89">
  <defs>
    <style>
      .cls-1 {
        fill: #fd5967;
      }

      .cls-2 {
        fill: #231f20;
      }
    </style>
  </defs>
  <title>sun</title>
  <g>
    <path class="cls-1" d="M426.85,277.76c-9.87-1.47-20.94,2.14-25.49,11.66-3.89,8.14-1.91,18.32,5.7,23.5s22.19,7.25,29.91,1.52c6.32-4.7,11.38-17.74,6.58-24.89-2.52-3.73-7.51-5.82-11.47-7.51-5.2-2.22-11-3.86-16.66-3.13a18,18,0,0,0-15.65,18.71c.37,10.68,10.77,17.68,20.45,19.51,10.1,1.92,19.51-4,23.48-13.24,3.8-8.87,3.33-21.26-6.38-26-7.73-3.75-22.11-4.07-29.31,1.09-7.42,5.32-9.9,18.51-5.47,26.33,5.62,9.91,19,12.15,29.29,10A19,19,0,0,0,447.2,295c-.74-9.53-8.67-17.18-17.71-19.35-10.26-2.45-22.75,1.9-29.13,10.37-6.24,8.28-1.55,17,5.75,22.63,9.38,7.19,23.58,11.62,33.93,3.73,8.34-6.35,11.68-20.87,2.55-27.84s-23.06-6.77-32.54-.5c-4.23,2.79-7.94,7-8.42,12.21-.59,6.49,3.55,12.22,7.31,17.07.67.87,1.94-.24,1.47-1.13a43.41,43.41,0,0,1-5-17.48l-1.74.47a46.33,46.33,0,0,1,4.89,15.18l1.71-.72a37,37,0,0,1-4.51-19.11l-1.83.25q2.37,9.93,4.76,19.85a.94.94,0,0,0,1.83-.25q-.44-11.14-1.87-22.19h-1.87q1.59,12.23,4.24,24.27a.94.94,0,0,0,1.84-.25q-.75-14.7-2.28-29.34c-.12-1.18-2-1.21-1.87,0a310.62,310.62,0,0,0,4,30.83c.19,1.06,1.81.77,1.83-.25q.31-14.11-.47-28.21h-1.87q1.23,14.13,3.35,28.15c.15,1,1.9.8,1.83-.25a300.14,300.14,0,0,0-3.84-31.76c-.19-1.09-1.77-.75-1.83.25a94.7,94.7,0,0,0,2.16,26.91.94.94,0,0,0,1.84-.25l-2-32.53-1.74.47c2.78,5.21,2.95,11.78,3.84,17.52l2.91,18.69c.17,1,1.88.79,1.84-.25q-.67-17.62-2.5-35.18c-.12-1.17-2-1.21-1.87,0a291.08,291.08,0,0,0,4.7,34c.24,1.2,2,.66,1.8-.5a254,254,0,0,1-2.2-27.41l-1.84.25q2,13.2,3.08,26.5c.1,1.19,2,1.21,1.87,0q-1.1-14.89-2.18-29.8l-1.84.25q2.28,15.07,4.58,30.17c.15,1,1.92.8,1.83-.25l-2.58-32.43-1.83.25q2.77,17.07,5.56,34.13c.17,1,1.85.78,1.83-.25q-.24-16.46-.49-32.9H426.7q1.79,16.8,3.56,33.61c.13,1.17,1.89,1.23,1.87,0l-.51-29.82-1.84.25c1.65,7.66,2,15.41,2.17,23.21h1.87l-2.4-29.17-1.84.25q2.84,18.17,5.66,36.34c.17,1.06,1.84.78,1.84-.25q0-15.42,0-30.83h-1.87a167.34,167.34,0,0,0,2.51,27.08c.18,1.05,1.84.78,1.83-.25q-.13-11.57-1.21-23.07l-1.84.24,2.55,18c.15,1.07,1.83.78,1.84-.24,0-6-.24-11.9-.79-17.84l-1.84.25q1,6.81,2,13.63c.15,1.07,1.83.78,1.83-.25l.08-11.71-1.84.25a34.66,34.66,0,0,1,1.09,6.53h1.87c-.25-2.68-.51-5.37-.76-8.05a.94.94,0,0,0-1.87,0,104.5,104.5,0,0,0,.47,12.63.94.94,0,0,0,1.87,0c.17-2.24.33-4.48.5-6.72h-1.87c.21,11.69-13,15.67-21.72,19.32a1,1,0,0,0-.42,1.57c5.35,5.66,13-.75,16.44-5.42,4.28-5.74,6.08-13.64,2.24-20.07-7.21-12.07-31-13.43-29.7,4.47.51,7.25,4.61,14,12.18,15.18a14.62,14.62,0,0,0,16-8.9c5.53-13.64-9.46-28.56-22.92-21.28a16.19,16.19,0,0,0-7.49,18.54c2.85,8.89,13.06,11.76,21.24,13.11,1.17.19,1.68-1.61.49-1.81-6.22-1-13.32-2.57-17.57-7.66-4.68-5.6-3.47-14.26,1.93-19,5.7-5,14.74-3.57,19.78,1.65,5.84,6,5.16,17.32-2.29,21.82-7.72,4.68-16.73.09-18.9-8.24-1-3.81-1.15-8.53,1.38-11.79,2.9-3.71,8-3.9,12.24-3,7.47,1.52,14.17,7.22,13.88,15.33-.2,5.55-10,23.79-17.61,15.74l-.42,1.57c9.63-4,23.33-8.46,23.1-21.13a.94.94,0,0,0-1.87,0c-.17,2.24-.33,4.48-.5,6.72H443a104.5,104.5,0,0,1-.47-12.63h-1.87c.25,2.68.51,5.37.76,8.05.11,1.18,2,1.21,1.87,0a39.07,39.07,0,0,0-1.16-7,.94.94,0,0,0-1.83.25l-.08,11.71L442,300q-1-6.82-2-13.64c-.15-1-1.94-.8-1.84.25.55,5.94.82,11.87.79,17.84l1.83-.25-2.55-18c-.15-1-1.93-.8-1.84.25q1.09,11.5,1.22,23.07l1.84-.25A164.52,164.52,0,0,1,437,282.66a.94.94,0,0,0-1.87,0q0,15.42,0,30.83l1.83-.25q-2.82-18.17-5.65-36.34c-.16-1-1.93-.8-1.84.25l2.4,29.17c.09,1.19,1.9,1.22,1.87,0-.22-8-.55-15.89-2.24-23.71a.94.94,0,0,0-1.83.25l.51,29.82h1.87q-1.77-16.81-3.56-33.61c-.12-1.17-1.89-1.23-1.87,0q.26,16.44.49,32.9l1.84-.25q-2.77-17.06-5.56-34.13c-.17-1-1.92-.8-1.84.25l2.58,32.43,1.84-.25q-2.3-15.09-4.58-30.17c-.16-1-1.91-.8-1.83.25q1.08,14.89,2.18,29.8h1.87q-1.1-13.56-3.15-27c-.16-1.05-1.86-.79-1.83.24A255.45,255.45,0,0,0,421,311.06l1.8-.5A289.23,289.23,0,0,1,418.15,277h-1.87q1.83,17.55,2.5,35.18l1.84-.25-3.21-20.56c-.84-5.39-1.13-11.2-3.73-16.09a1,1,0,0,0-1.75.47l2,32.53,1.84-.25a92.69,92.69,0,0,1-2.1-26.41l-1.84.24a296.09,296.09,0,0,1,3.77,31.27l1.84-.24q-2.09-13.79-3.28-27.66c-.1-1.18-1.93-1.21-1.87,0q.78,14.1.47,28.21l1.84-.25q-2.74-15.07-4-30.33h-1.87q1.53,14.64,2.28,29.34l1.83-.25q-2.6-11.79-4.17-23.77c-.15-1.18-2-1.2-1.87,0q1.43,11.06,1.87,22.19l1.84-.24-4.76-19.86a.94.94,0,0,0-1.84.25,39,39,0,0,0,4.76,20.06c.54,1,1.85.25,1.71-.72a47.81,47.81,0,0,0-5.08-15.63.94.94,0,0,0-1.74.47,45.7,45.7,0,0,0,5.22,18.42l1.47-1.13c-2.91-3.76-5.9-7.87-6.59-12.68-.83-5.9,2.63-10.54,7.32-13.67a27.69,27.69,0,0,1,23.21-3.25c3.7,1.16,7.76,3.19,10,6.44,3.17,4.53,2.07,10.31-.05,15.09-4.35,9.78-15.27,12.53-24.93,9.58-7.47-2.29-17.46-8.15-19.7-16.25-2.77-10,9.26-17.49,17.38-19.57,8.49-2.18,17.8,0,23.7,6.72s6.43,16.79.65,23.65-17.55,7.35-25.56,4.91c-10.46-3.18-15.21-12-12.56-22.59s10.78-12.92,20.58-13c8.32-.05,17.54,1.83,19.82,11.12,2.2,8.94-2.14,19.81-10,24.52-8.54,5.12-20.21,1.83-27-4.86a16.25,16.25,0,0,1-2-20.69c5.5-8.4,16.39-7.79,24.73-4.62,4,1.5,9.15,3.49,12,6.77,3.94,4.45,1.84,12.38-.56,17.2-4.87,9.8-16,10.07-25.48,7.58-10-2.64-16.2-11.39-13.12-21.72s14.43-14.62,24.27-13.16c1.18.18,1.69-1.62.5-1.8Z" transform="translate(-354.25 -237.71)"/>
    <path class="cls-1" d="M375.63,252l.09,5.56a.94.94,0,0,0,1.74.47,21,21,0,0,0,2.35-4.66l-1.84-.24a46,46,0,0,1-.68,10c-.17,1,1.21,1.74,1.71.72.74-1.49,3.45-8.42,5.5-8.18l-.93-.93a47,47,0,0,1-1.46,8.73c-.26,1,1.22,1.7,1.71.72a30.38,30.38,0,0,1,5.27-7.53c.84-.87-.48-2.19-1.32-1.32a31.94,31.94,0,0,0-5.57,7.91l1.71.72a50.67,50.67,0,0,0,1.53-9.23,1,1,0,0,0-.94-.94c-1.5-.17-2.41.82-3.19,2a60.25,60.25,0,0,0-3.93,7.13l1.71.73a48,48,0,0,0,.75-10.5.94.94,0,0,0-1.83-.25,19,19,0,0,1-2.16,4.2l1.74.48L377.5,252a.94.94,0,0,0-1.87,0Z" transform="translate(-354.25 -237.71)"/>
    <path class="cls-1" d="M449.38,256.47a4.13,4.13,0,0,0,.72,3.09.94.94,0,0,0,1.74-.47,6.77,6.77,0,0,1,.62-2.74h-1.8a56,56,0,0,1,1.86,6c.22.84,1.66.93,1.81,0a60.82,60.82,0,0,1,1.25-6l-1.56.41c1.92,2,1.18,5.33,2.81,7.6.36.49,1.31.7,1.62,0l4.89-11.23-1.71-.22c.69,5.12,0,10.19-.78,15.26-.18,1.18,1.63,1.68,1.81.5.83-5.43,1.52-10.77.77-16.26a.94.94,0,0,0-1.71-.22l-4.89,11.22h1.62c-1.76-2.43-1-5.69-3.11-8a.94.94,0,0,0-1.56.41c-.52,2-.94,4-1.26,6h1.81a56.72,56.72,0,0,0-1.87-6,.94.94,0,0,0-1.8,0,11,11,0,0,0-.69,3.24l1.75-.47c-.16-.72-.31-1.43-.47-2.15.15-1.19-1.72-1.18-1.87,0Z" transform="translate(-354.25 -237.71)"/>
    <path class="cls-1" d="M452.15,333.55l1.63,3a.94.94,0,0,0,1.74-.47,12.53,12.53,0,0,1,1.55-4.87h-1.61q1.4,3,2.8,6c.43.92,1.66.35,1.74-.47a33.68,33.68,0,0,1,1.81-9.18H460l2.31,10.09c.19.85,1.67.93,1.8,0l.81-5.89c.26-1.91.23-4.42,1.59-5.94l-1.57-.41a99.18,99.18,0,0,1,1.17,14.09.94.94,0,0,0,1.87,0,103.31,103.31,0,0,0-1.23-14.59.94.94,0,0,0-1.56-.41,7.93,7.93,0,0,0-1.78,4.62c-.38,2.68-.73,5.36-1.1,8h1.8L461.81,327c-.22-1-1.5-.79-1.8,0a35.79,35.79,0,0,0-1.88,9.68l1.74-.48c-.93-2-1.87-4-2.8-6a.93.93,0,0,0-1.61,0,14.83,14.83,0,0,0-1.81,5.81l1.75-.47-1.64-3c-.58-1.06-2.19-.12-1.61.94Z" transform="translate(-354.25 -237.71)"/>
    <path class="cls-1" d="M376.7,342.45l.92.77c.43.89,1.71.39,1.75-.47a56.1,56.1,0,0,0-.32-8.79l-1.84.25,1.83,5.86a.94.94,0,0,0,1.84-.25q.35-6.22,1.12-12.41l-1.75.47c1.94,4,2.42,8.27,2.83,12.62.09,1,1.67,1.37,1.84.25.38-2.44.75-4.89,1.13-7.33l-1.71.22c.87,1.95,1.73,3.89,2.6,5.83a.94.94,0,0,0,1.47.19,10.52,10.52,0,0,0,2.11-4.43c.26-1.17-1.54-1.67-1.8-.5a8.48,8.48,0,0,1-1.63,3.6l1.47.19L386,332.7a1,1,0,0,0-1.71.22c-.37,2.45-.75,4.89-1.12,7.33l1.83.25c-.44-4.69-1-9.27-3.08-13.56-.45-.93-1.64-.34-1.74.47q-.78,6.19-1.12,12.41l1.84-.25L379,333.71c-.3-.95-2-.84-1.84.25a56.1,56.1,0,0,1,.32,8.79l1.74-.47c-.75-1.56-1.88-2.37-3.48-1.45a.94.94,0,0,0,.94,1.62Z" transform="translate(-354.25 -237.71)"/>
    <path class="cls-2" d="M428.69,262.33c-15.32-4.08-27.8,7.17-35.49,19.19-8,12.5-11.61,28.53-.29,40.27,20.57,21.32,67.51,8.48,69.66-22.66,1.28-18.63-17.12-31.45-32.26-37.93-2-.84-3.69,2.06-1.7,2.91,14.79,6.33,33.57,19,30.27,37.57-3.22,18.11-22.16,27-39,27-18.37,0-35.74-13.31-29.7-33.16,4.62-15.15,19.67-34.7,37.61-29.93,2.1.56,3-2.69.9-3.24Z" transform="translate(-354.25 -237.71)"/>
    <path class="cls-2" d="M413.65,253a91.89,91.89,0,0,0,14.74.76,1.7,1.7,0,0,0,1.62-2.13,37.9,37.9,0,0,0-5.87-13.09,1.7,1.7,0,0,0-2.64-.34,115,115,0,0,0-8.76,12c-1.17,1.83,1.75,3.52,2.91,1.7a108.17,108.17,0,0,1,8.23-11.29l-2.64-.34a35.44,35.44,0,0,1,5.52,12.29l1.63-2.13a91.89,91.89,0,0,1-14.74-.77c-2.15-.28-2.12,3.09,0,3.37Z" transform="translate(-354.25 -237.71)"/>
    <path class="cls-2" d="M369.35,289.19q0,7.57-.05,15.15l1.68-1.69a26.86,26.86,0,0,1-14.21-3.91c.12.88.23,1.76.34,2.64a79.26,79.26,0,0,1,14.75-11.89c1.83-1.14.14-4.05-1.7-2.9A82.67,82.67,0,0,0,354.73,299a1.71,1.71,0,0,0,.34,2.64A30.27,30.27,0,0,0,371,306a1.72,1.72,0,0,0,1.69-1.68q0-7.57,0-15.15a1.68,1.68,0,0,0-3.36,0Z" transform="translate(-354.25 -237.71)"/>
    <path class="cls-2" d="M469.84,290.27q-.15,6.54-.09,13.07a1.7,1.7,0,0,0,2.13,1.63l14.25-5.33a1.7,1.7,0,0,0,.74-2.81,35,35,0,0,0-15-8.54,1.69,1.69,0,0,0-.89,3.25,31.41,31.41,0,0,1,13.54,7.67c.25-.94.5-1.87.74-2.81L471,301.72l2.14,1.62q-.08-6.52.08-13.07c.05-2.17-3.31-2.17-3.36,0Z" transform="translate(-354.25 -237.71)"/>
    <path class="cls-2" d="M419.26,342.47A49.49,49.49,0,0,1,431,343.65l-1.18-2.07a60.82,60.82,0,0,1-7.07,13.48l2.64-.34A43.17,43.17,0,0,1,417.7,342c-.77-2-4-1.13-3.24.89A47.54,47.54,0,0,0,423,357.1a1.7,1.7,0,0,0,2.64-.34,64,64,0,0,0,7.42-14.29,1.7,1.7,0,0,0-1.18-2.07,53.77,53.77,0,0,0-12.65-1.3c-2.16,0-2.17,3.4,0,3.37Z" transform="translate(-354.25 -237.71)"/>
    <path class="cls-2" d="M448.5,262l11.74,6.6a.94.94,0,0,0,1.37-.55,50.61,50.61,0,0,0,1.85-15.58,1,1,0,0,0-1.41-.81q-7.37,3.74-15.05,6.74c-1.11.44-.63,2.24.49,1.8q7.92-3.09,15.51-6.92l-1.41-.81a48.93,48.93,0,0,1-1.78,15.08l1.37-.56-11.74-6.6a.93.93,0,0,0-.94,1.61Z" transform="translate(-354.25 -237.71)"/>
    <path class="cls-2" d="M383.34,266.54A32.24,32.24,0,0,1,394,254.25a.94.94,0,0,0-.47-1.74,142.9,142.9,0,0,0-20.36-1.25,1,1,0,0,0-.9,1.19,35,35,0,0,0,8.32,15.43c.81.89,2.13-.43,1.32-1.32A33.09,33.09,0,0,1,374,252l-.9,1.18a142.9,142.9,0,0,1,20.36,1.25l-.47-1.74a34.05,34.05,0,0,0-11.3,13c-.53,1.07,1.08,2,1.62.94Z" transform="translate(-354.25 -237.71)"/>
    <path class="cls-2" d="M383.23,327.46a49.87,49.87,0,0,0,8.34,8.28c.06-.49.13-1,.19-1.46A79.76,79.76,0,0,1,378.09,342l1.4.81a51.79,51.79,0,0,1,2-14.7.93.93,0,0,0-1.8-.49,53.4,53.4,0,0,0-2,15.19,1,1,0,0,0,1.41.8,79.1,79.1,0,0,0,13.67-7.75.94.94,0,0,0,.19-1.47,49.5,49.5,0,0,1-8.33-8.29c-.75-.94-2.07.39-1.33,1.33Z" transform="translate(-354.25 -237.71)"/>
    <path class="cls-2" d="M454.74,335.33l12.76-11.6-1.6-.66c.28,2.67.56,5.35.83,8l.35,3.35.21,2c.57,1.19.3,1.65-.82,1.39-1.77.68-5.74-.93-7.59-1.31l-8-1.64c-1.17-.25-1.67,1.56-.49,1.8L461,338.87c1.82.38,5.57,2,7.32.87s.77-3.61.59-5.3q-.58-5.69-1.18-11.37a1,1,0,0,0-1.6-.67q-6.37,5.81-12.76,11.6c-.89.82.44,2.14,1.33,1.33Z" transform="translate(-354.25 -237.71)"/>
    <path class="cls-2" d="M422.06,274.46c-13.62.77-25.24,12.09-24.11,26.24.46,5.71,4.56,8.59,9.24,11.29,5.83,3.35,12.6,5.32,19.35,4.39,12.14-1.66,21.93-14.46,19.23-26.86-2.6-12-19-21.06-29.72-14-1,.67-.07,2.29.94,1.62,10.08-6.68,25.82,2.82,27.11,14.27,1.31,11.61-7.82,22.49-19.34,23.27-9,.62-24.94-4.9-25-15.59,0-12.49,10.18-22.08,22.29-22.77,1.19-.07,1.2-1.94,0-1.87Z" transform="translate(-354.25 -237.71)"/>
  </g>
</svg>
