<svg id="Layer_1" data-name="Layer 1" xmlns="http://www.w3.org/2000/svg" viewBox="0 0 134.88 87.89">
  <defs>
    <style>
      .cls-1 {
        fill: #fd5967;
      }

      .cls-2 {
        fill: #231f20;
      }
    </style>
  </defs>
  <title>zigzag</title>
  <g>
    <path class="cls-1" d="M353.67,274.74c5.31,7.95,4.82,19.82,5.92,29.07q1.79,14.82,3.55,29.64a.94.94,0,0,0,1.84.25c6.81-20,4.23-41.14,1.47-61.64l-1.81.5c4,20.23,8.12,40.51,15.84,59.72a.94.94,0,0,0,1.84-.25,331.18,331.18,0,0,0-1.07-60.48l-1.84.25q6.25,30.27,15.32,59.83a.94.94,0,0,0,1.83-.25c2.49-18.59.35-37.19-1.93-55.68l-1.83.25a468.88,468.88,0,0,0,10.46,51.69.94.94,0,0,0,1.84-.25,344.38,344.38,0,0,0-1.25-61.34H402a299.5,299.5,0,0,0,12,56.41.94.94,0,0,0,1.83-.25l-2.16-56.71-1.84.25q4.9,26.75,9.8,53.51c.2,1.07,1.8.76,1.84-.25q.92-28.54,1.84-57.09l-1.84.25L438,325.22c.25,1.07,1.77.76,1.84-.25a339.81,339.81,0,0,0-.72-55.07l-1.83.25c3.5,19.33,7.1,38.67,13.27,57.36a.94.94,0,0,0,1.83-.25A480.72,480.72,0,0,0,453.55,264l-1.83.25q4.69,28.17,9.4,56.35a.94.94,0,0,0,1.8,0q4.18-27.37,8.38-54.75l-1.84-.25q2.79,25.79,5.57,51.58c.12,1.19,2,1.2,1.87,0q-2.79-25.79-5.57-51.58c-.1-.95-1.66-1.38-1.83-.25q-4.2,27.38-8.38,54.75h1.8q-4.69-28.17-9.4-56.35c-.17-1-1.88-.79-1.84.25a480.72,480.72,0,0,1-1.19,63.28l1.84-.25c-6.17-18.69-9.76-38-13.27-57.36-.19-1-1.94-.8-1.84.25a339.81,339.81,0,0,1,.72,55.07l1.83-.25q-7.25-31.52-14.5-63.05a.94.94,0,0,0-1.84.25q-.92,28.54-1.84,57.09l1.83-.25-9.79-53.51c-.19-1-1.88-.8-1.84.25L414,322.21l1.84-.25a296.63,296.63,0,0,1-11.94-55.91c-.13-1.18-2-1.2-1.87,0a344.38,344.38,0,0,1,1.25,61.34l1.84-.25a468.91,468.91,0,0,1-10.47-51.69c-.15-1-2-.8-1.84.25,2.28,18.49,4.42,37.09,1.93,55.68l1.84-.25q-9.06-29.55-15.32-59.83c-.21-1-1.95-.8-1.83.25A331.18,331.18,0,0,1,380.45,332l1.84-.25c-7.73-19.21-11.85-39.48-15.84-59.72-.24-1.21-2-.66-1.81.5,2.72,20.17,5.24,41-1.46,60.65l1.83.24-4-33.59c-1-8.49-.8-18.72-5.7-26.06-.67-1-2.29-.06-1.62.94Z" transform="translate(-353.51 -253.41)"/>
    <path class="cls-2" d="M358.56,288.16a118,118,0,0,0,31.52,21.26c1.39.64,3.32-.77,2.3-2.31a211.54,211.54,0,0,0-31.7-37.55l-2,2.65,46,28.29a1.69,1.69,0,0,0,2.3-2.3q-8.49-16.31-17-32.59l-2.64,2c13.37,13.18,27.09,26.43,44.42,34.28,1.23.56,2.95-.37,2.47-1.9a345,345,0,0,0-18.35-45.86l-2.9,1.7c13.36,17.41,27.37,35,47,45.6a1.7,1.7,0,0,0,2.47-1.9l-6.18-43.74-3.08,1.3C461.79,275,470.72,293,484.7,307.47a1.7,1.7,0,0,0,2.87-1.19,153.17,153.17,0,0,0-1.31-41.35,1.7,1.7,0,0,0-3.08-.4q-18,36.14-38.81,70.81l3.14.85,3.09-36.84c.47-5.59,1.19-11.22,1.39-16.83.13-3.59-.35-6.95-3.16-9.42a1.69,1.69,0,0,0-2.64.34Q432.93,301.68,417.8,329l3.08.4c-3.87-18.41,7-37.46-1.46-55.25-.66-1.39-2.66-.86-3.08.4a283.61,283.61,0,0,1-29.11,62.15l3.14.85q3.93-30.39,7.88-60.78c.22-1.68-2.42-2.27-3.14-.85-11.14,21.77-22.44,43.66-38.27,62.48l2.81,1.63,7.41-43.28c.92-5.32,4.7-18.87-4.46-19.38-2.16-.12-2.15,3.24,0,3.36,6,.34-.5,25.15-1.14,28.9q-2.52,14.75-5,29.51c-.25,1.47,1.62,3.06,2.81,1.64,16-19.05,27.52-41.12,38.8-63.16l-3.14-.85q-3.94,30.39-7.88,60.78c-.23,1.77,2.33,2.14,3.14.85a287.58,287.58,0,0,0,29.45-62.95l-3.08.4c8.11,17.09-2.64,36.54,1.12,54.45a1.7,1.7,0,0,0,3.08.4q15.12-27.29,28.38-55.53l-2.64.34c3.68,3.24,2,9.9,1.6,14.18l-1.3,15.51-2.61,31c-.14,1.73,2.33,2.2,3.14.85q20.76-34.65,38.81-70.81l-3.08-.41a149.84,149.84,0,0,1,1.19,40.46l2.88-1.19c-13.78-14.22-22.51-32-31-49.66-.91-1.88-3.32-.42-3.08,1.3q3.09,21.87,6.19,43.74l2.47-1.9c-19.15-10.32-32.83-27.44-45.84-44.4a1.68,1.68,0,0,0-2.9,1.7,338.81,338.81,0,0,1,18,45.06l2.47-1.9c-17.07-7.74-30.54-20.76-43.73-33.76a1.69,1.69,0,0,0-2.64,2q8.49,16.31,17,32.59l2.3-2.3-46-28.29a1.69,1.69,0,0,0-2,2.64,207.67,207.67,0,0,1,31.17,36.87l2.3-2.3a115.39,115.39,0,0,1-30.83-20.73c-1.58-1.48-4,.89-2.38,2.38Z" transform="translate(-353.51 -253.41)"/>
  </g>
</svg>
